<svg xmlns="http://www.w3.org/2000/svg" xmlns:xlink="http://www.w3.org/1999/xlink" viewBox="0 0 24 24"><defs><style>.cls-1{fill:#1d3446;}.cls-2{fill:none;}</style><symbol id="Config" data-name="Config" viewBox="0 0 24 24"><path class="cls-1" d="M20.28,11h-1.2a.83.83,0,0,1-.65-.59l-.69-1.73a.76.76,0,0,1,.11-.83L18.7,7a.51.51,0,0,0,0-.72l-1-1a.51.51,0,0,0-.72,0l-.85.85a.71.71,0,0,1-.8.11l-1.6-.69a.65.65,0,0,1-.4-.65V3.71a.83.83,0,0,0-.67-.66H11.31c-.28,0-.93.38-.93.66v1.2c0,.28,0,.57-.27.65l-1.58.69a.63.63,0,0,1-.75-.11L7,5.3a.49.49,0,0,0-.7,0l-1,1a.51.51,0,0,0,0,.71l.85.85a.72.72,0,0,1,.12.8l-.69,1.78a.83.83,0,0,1-.65.59H3.71c-.28,0-.3,0-.3.3v1.38c0,.28,0,.3.3.3h1.2a.83.83,0,0,1,.65.59l.69,1.73a.76.76,0,0,1-.11.83L5.3,17a.52.52,0,0,0,0,.72l1,1a.51.51,0,0,0,.72,0l.85-.85a.72.72,0,0,1,.8-.11l1.47.69c.27.08.27.37.27.65v1.2c0,.28.65.66.93.66h1.38a.83.83,0,0,0,.67-.66v-1.2a.65.65,0,0,1,.4-.65l1.64-.69a.69.69,0,0,1,.78.11l.84.85a.5.5,0,0,0,.71,0l1-1a.51.51,0,0,0,0-.72l-.85-.85a.72.72,0,0,1-.11-.8l.69-1.78a.83.83,0,0,1,.65-.59h1.2c.28,0,0,0,0-.3V11.31C20.32,11,20.56,11,20.28,11ZM12,16a4,4,0,1,1,4-4A4,4,0,0,1,12,16Z"/><rect class="cls-2" width="24" height="24"/></symbol></defs><title>Recurso 2</title><g id="Capa_2" data-name="Capa 2"><g id="Capa_1-2" data-name="Capa 1"><use id="Config-3" data-name="Config" width="24" height="24" transform="translate(24 24) rotate(180)" xlink:href="#Config"/></g></g></svg>