<?xml version="1.0" encoding="utf-8"?>
<!-- Generator: Adobe Illustrator 19.2.0, SVG Export Plug-In . SVG Version: 6.00 Build 0)  -->
<!DOCTYPE svg PUBLIC "-//W3C//DTD SVG 1.1//EN" "http://www.w3.org/Graphics/SVG/1.1/DTD/svg11.dtd">
<svg version="1.1" id="Capa_1" xmlns="http://www.w3.org/2000/svg" xmlns:xlink="http://www.w3.org/1999/xlink" x="0px" y="0px"
	 viewBox="0 0 269 93" style="enable-background:new 0 0 269 93;" xml:space="preserve">
<style type="text/css">
	.st0{fill:#F50087;}
	.st1{enable-background:new    ;}
	.st2{fill:#858584;}
	.st3{fill:none;stroke:#6C937E;stroke-width:0.75;stroke-miterlimit:10;}
	.st4{fill:#6C937E;}
	.st5{fill:none;stroke:#6C937E;stroke-width:0.25;stroke-miterlimit:10;}
</style>
<title>Nuevo-logo</title>
<g>
	<g>
		<g>
			<path class="st0" d="M54.1,67.8c-5,0-9.3-2-12.8-5.9s-5.2-8.8-5.2-14.8v-2.5c0-6.2,1.7-11.3,5.2-15.3c3.4-4,7.8-6,13-6
				c4.7,0,8.5,1.6,11.4,4.7c2.8,3.1,4.2,7.4,4.2,12.8v3.3H38.3v0.5v2.5c0,5.2,1.5,9.6,4.4,13.2c3,3.5,6.8,5.3,11.4,5.3
				c2.6,0,5-0.5,7.4-1.4s4.3-2.2,5.8-3.8l1.1,1.7c-1.5,1.7-3.4,3-5.8,4.1C60.2,67.3,57.4,67.8,54.1,67.8z M54.3,25.5
				c-4.4,0-8.1,1.5-10.9,4.6c-2.8,3.1-4.4,7-4.8,11.7l0.1,0.2h29v-1.3c0-4.4-1.2-8-3.6-10.9C61.8,26.9,58.5,25.5,54.3,25.5z"/>
			<path class="st0" d="M80,67.9h-2.1V5.2H80V67.9z"/>
			<path class="st0" d="M93.8,10.7h-2.1V5.2h2.1V10.7z M93.8,67.9h-2.1V24.2h2.1V67.9z"/>
			<path class="st0" d="M131.1,56.5c0-2.3-1-4.3-2.9-6.2c-1.9-1.9-5.3-3.3-10.1-4.4c-5.1-1.1-8.8-2.5-11.1-4.2
				c-2.3-1.7-3.4-4.2-3.4-7.6c0-3.1,1.3-5.6,3.9-7.7s6.1-3.1,10.4-3.1c4.7,0,8.4,1.1,11.2,3.3c2.7,2.2,4,5.1,3.9,8.7l-0.1,0.2H131
				c0-2.8-1.2-5.2-3.5-7.1c-2.4-2-5.6-2.9-9.6-2.9s-7,0.9-9.1,2.6s-3.1,3.7-3.1,6c0,2.2,0.9,4.2,2.6,5.7c1.7,1.6,5.2,3,10.4,4.2
				c4.8,1.1,8.4,2.6,10.9,4.5s3.7,4.6,3.7,8s-1.4,6.1-4.1,8.2c-2.7,2.1-6.4,3.1-10.9,3.1c-5,0-8.9-1.1-11.7-3.3
				c-2.8-2.2-4.2-4.9-4-8.1l0.1-0.2h1.7c0.2,3.4,1.7,5.8,4.4,7.3c2.7,1.5,5.9,2.3,9.5,2.3c4,0,7.1-0.9,9.4-2.8
				S131.1,58.9,131.1,56.5z"/>
			<path class="st0" d="M169.2,59.1c-1.5,2.6-3.7,4.7-6.6,6.3c-2.9,1.6-6.5,2.4-10.6,2.4c-4,0-7.1-1.1-9.4-3.3
				c-2.3-2.2-3.4-5.1-3.4-8.8c0-3.6,1.7-6.6,5.1-9c3.4-2.4,7.6-3.6,12.7-3.6h12.2v-6.3c0-3.6-1.1-6.3-3.4-8.3c-2.3-2-5.5-3-9.6-3
				c-3.9,0-7,0.9-9.4,2.8s-3.5,4.3-3.5,7.2l-1.8-0.1l-0.1-0.2c-0.2-3.3,1.1-6.1,3.9-8.4c2.7-2.3,6.4-3.5,10.9-3.5
				c4.6,0,8.3,1.2,11,3.5c2.8,2.3,4.2,5.7,4.2,10.1v21.4c0,1.5,0.1,3,0.3,4.4s0.5,2.8,0.9,4.2H170c-0.3-1.9-0.6-3.3-0.7-4.2
				c-0.1-0.9-0.2-1.9-0.2-3L169.2,59.1L169.2,59.1z M151.9,65.7c4.2,0,7.8-0.9,10.8-2.8c2.9-1.9,5.1-4.6,6.5-8v-9.6h-12.1
				c-4.4,0-8.2,1-11.2,3.1c-3,2-4.6,4.6-4.6,7.6c0,2.9,1,5.2,2.9,7.1C146.1,64.8,148.7,65.7,151.9,65.7z"/>
			<g>
				<rect x="1" y="5.3" class="st0" width="2" height="62.7"/>
				<rect x="30.2" y="5.3" class="st0" width="2" height="62.7"/>
				<rect x="1.5" y="41.8" class="st0" width="30.3" height="2.3"/>
			</g>
		</g>
		<g>
			<g class="st1">
				<path class="st2" d="M8,83.9H7.1V73.8H8V83.9z"/>
				<path class="st2" d="M10.6,76.4l0.1,1.3c0.2-0.5,0.6-0.8,1-1.1c0.4-0.3,0.9-0.4,1.5-0.4c0.8,0,1.4,0.2,1.9,0.7
					c0.4,0.5,0.6,1.3,0.6,2.3v4.6h-0.8v-4.6c0-0.9-0.2-1.5-0.5-1.8c-0.3-0.4-0.8-0.5-1.4-0.5c-0.6,0-1.1,0.2-1.4,0.5
					c-0.4,0.3-0.6,0.7-0.8,1.2v5.3H9.9v-7.5H10.6z"/>
				<path class="st2" d="M17.7,83.9V77h-1.2v-0.7h1.2v-1.1c0-0.8,0.2-1.3,0.6-1.8c0.4-0.4,0.9-0.6,1.6-0.6c0.2,0,0.3,0,0.5,0
					c0.2,0,0.3,0.1,0.5,0.1l-0.1,0.7c-0.1,0-0.2,0-0.3-0.1c-0.1,0-0.3,0-0.4,0c-0.5,0-0.8,0.1-1,0.4c-0.2,0.3-0.4,0.7-0.4,1.2v1.1
					h1.8V77h-1.8v6.8H17.7z"/>
				<path class="st2" d="M20.6,80c0-1.1,0.3-2,0.9-2.7c0.6-0.7,1.4-1.1,2.4-1.1c1,0,1.8,0.4,2.4,1.1c0.6,0.7,0.9,1.6,0.9,2.7v0.2
					c0,1.1-0.3,2-0.9,2.7c-0.6,0.7-1.4,1.1-2.4,1.1c-1,0-1.8-0.4-2.4-1.1c-0.6-0.7-0.9-1.6-0.9-2.7V80z M21.4,80.2
					c0,0.9,0.2,1.6,0.7,2.2c0.4,0.6,1.1,0.9,1.8,0.9c0.8,0,1.4-0.3,1.8-0.9s0.7-1.3,0.7-2.2V80c0-0.9-0.2-1.6-0.7-2.2
					c-0.4-0.6-1.1-0.9-1.8-0.9c-0.8,0-1.4,0.3-1.8,0.9c-0.4,0.6-0.7,1.3-0.7,2.2V80.2z"/>
				<path class="st2" d="M31.7,77.1l-0.6,0c-0.5,0-1,0.1-1.3,0.4c-0.3,0.3-0.6,0.7-0.7,1.2v5.2h-0.8v-7.5H29l0.1,1.3v0.1
					c0.2-0.5,0.5-0.8,0.9-1.1c0.4-0.3,0.8-0.4,1.3-0.4c0.1,0,0.2,0,0.3,0s0.2,0,0.2,0.1L31.7,77.1z"/>
				<path class="st2" d="M33.1,76.4l0.1,1.2c0.2-0.4,0.6-0.8,1-1c0.4-0.2,0.9-0.4,1.4-0.4c0.6,0,1.1,0.1,1.4,0.4s0.7,0.7,0.8,1.3
					c0.2-0.5,0.6-0.9,1-1.2c0.4-0.3,0.9-0.4,1.5-0.4c0.8,0,1.4,0.3,1.9,0.8s0.7,1.4,0.7,2.5v4.4h-0.8v-4.4c0-0.9-0.2-1.6-0.5-2
					c-0.3-0.4-0.8-0.6-1.4-0.6c-0.6,0-1.1,0.2-1.5,0.6s-0.6,0.9-0.7,1.6c0,0,0,0.1,0,0.1c0,0.1,0,0.1,0,0.1v4.5h-0.8v-4.4
					c0-0.9-0.2-1.6-0.5-2s-0.8-0.6-1.4-0.6c-0.6,0-1.1,0.1-1.4,0.4c-0.3,0.3-0.6,0.7-0.7,1.2v5.3h-0.8v-7.5H33.1z"/>
				<path class="st2" d="M49.1,83.9C49,83.6,49,83.4,49,83.2c0-0.2,0-0.4,0-0.6c-0.3,0.4-0.6,0.7-1.1,1s-1,0.4-1.6,0.4
					c-0.7,0-1.3-0.2-1.7-0.6s-0.6-0.9-0.6-1.6c0-0.7,0.3-1.3,0.9-1.7c0.6-0.4,1.4-0.6,2.4-0.6h1.7v-0.9c0-0.5-0.2-1-0.5-1.3
					c-0.3-0.3-0.8-0.5-1.5-0.5c-0.6,0-1.1,0.1-1.4,0.4C45.1,77.7,45,78,45,78.4l-0.8,0l0,0c0-0.6,0.2-1.1,0.8-1.5
					c0.5-0.4,1.2-0.7,2.1-0.7c0.8,0,1.5,0.2,2,0.6s0.8,1,0.8,1.8v3.7c0,0.3,0,0.5,0,0.8c0,0.3,0.1,0.5,0.1,0.7H49.1z M46.4,83.3
					c0.6,0,1.1-0.1,1.6-0.4c0.5-0.3,0.8-0.6,1-1.1v-1.6h-1.7c-0.8,0-1.4,0.2-1.8,0.5s-0.7,0.7-0.7,1.2c0,0.4,0.1,0.7,0.4,1
					C45.5,83.2,45.9,83.3,46.4,83.3z"/>
				<path class="st2" d="M54.1,83.3c0.6,0,1-0.2,1.5-0.5c0.4-0.3,0.6-0.8,0.6-1.3h0.7l0,0c0,0.7-0.3,1.3-0.8,1.7
					c-0.6,0.5-1.2,0.7-2,0.7c-1,0-1.8-0.4-2.4-1.1c-0.6-0.7-0.8-1.6-0.8-2.7V80c0-1.1,0.3-2,0.8-2.7c0.6-0.7,1.3-1.1,2.4-1.1
					c0.8,0,1.5,0.2,2.1,0.7c0.5,0.5,0.8,1.1,0.8,1.9l0,0h-0.7c0-0.6-0.2-1.1-0.6-1.4c-0.4-0.4-0.9-0.5-1.5-0.5
					c-0.8,0-1.4,0.3-1.8,0.9c-0.4,0.6-0.6,1.3-0.6,2.2v0.3c0,0.9,0.2,1.6,0.6,2.2C52.7,83,53.3,83.3,54.1,83.3z"/>
				<path class="st2" d="M58.9,74.2h-0.8V73h0.8V74.2z M58.9,83.9h-0.8v-7.5h0.8V83.9z"/>
				<path class="st2" d="M60,80c0-1.1,0.3-2,0.9-2.7c0.6-0.7,1.4-1.1,2.4-1.1c1,0,1.8,0.4,2.4,1.1c0.6,0.7,0.9,1.6,0.9,2.7v0.2
					c0,1.1-0.3,2-0.9,2.7c-0.6,0.7-1.4,1.1-2.4,1.1c-1,0-1.8-0.4-2.4-1.1c-0.6-0.7-0.9-1.6-0.9-2.7V80z M60.8,80.2
					c0,0.9,0.2,1.6,0.7,2.2c0.4,0.6,1.1,0.9,1.8,0.9c0.8,0,1.4-0.3,1.8-0.9s0.7-1.3,0.7-2.2V80c0-0.9-0.2-1.6-0.7-2.2
					c-0.4-0.6-1.1-0.9-1.8-0.9c-0.8,0-1.4,0.3-1.8,0.9c-0.4,0.6-0.7,1.3-0.7,2.2V80.2z M64.3,73.4h1l0,0l-1.7,1.8h-0.8L64.3,73.4z"
					/>
				<path class="st2" d="M68.4,76.4l0.1,1.3c0.2-0.5,0.6-0.8,1-1.1c0.4-0.3,0.9-0.4,1.5-0.4c0.8,0,1.4,0.2,1.9,0.7
					c0.4,0.5,0.6,1.3,0.6,2.3v4.6h-0.8v-4.6c0-0.9-0.2-1.5-0.5-1.8c-0.3-0.4-0.8-0.5-1.4-0.5c-0.6,0-1.1,0.2-1.4,0.5
					c-0.4,0.3-0.6,0.7-0.8,1.2v5.3h-0.8v-7.5H68.4z"/>
				<path class="st2" d="M80.4,83.3c0.6,0,1-0.2,1.5-0.5c0.4-0.3,0.6-0.8,0.6-1.3h0.7l0,0c0,0.7-0.3,1.3-0.8,1.7
					c-0.6,0.5-1.2,0.7-2,0.7c-1,0-1.8-0.4-2.4-1.1c-0.6-0.7-0.8-1.6-0.8-2.7V80c0-1.1,0.3-2,0.8-2.7c0.6-0.7,1.3-1.1,2.4-1.1
					c0.8,0,1.5,0.2,2.1,0.7c0.5,0.5,0.8,1.1,0.8,1.9l0,0h-0.7c0-0.6-0.2-1.1-0.6-1.4c-0.4-0.4-0.9-0.5-1.5-0.5
					c-0.8,0-1.4,0.3-1.8,0.9c-0.4,0.6-0.6,1.3-0.6,2.2v0.3c0,0.9,0.2,1.6,0.6,2.2C79,83,79.6,83.3,80.4,83.3z"/>
				<path class="st2" d="M83.9,80c0-1.1,0.3-2,0.9-2.7c0.6-0.7,1.4-1.1,2.4-1.1c1,0,1.8,0.4,2.4,1.1c0.6,0.7,0.9,1.6,0.9,2.7v0.2
					c0,1.1-0.3,2-0.9,2.7C89,83.7,88.2,84,87.2,84c-1,0-1.8-0.4-2.4-1.1c-0.6-0.7-0.9-1.6-0.9-2.7V80z M84.7,80.2
					c0,0.9,0.2,1.6,0.7,2.2c0.4,0.6,1.1,0.9,1.8,0.9c0.8,0,1.4-0.3,1.8-0.9s0.7-1.3,0.7-2.2V80c0-0.9-0.2-1.6-0.7-2.2
					c-0.4-0.6-1.1-0.9-1.8-0.9c-0.8,0-1.4,0.3-1.8,0.9c-0.4,0.6-0.7,1.3-0.7,2.2V80.2z"/>
				<path class="st2" d="M92.3,76.4l0.1,1.3c0.2-0.5,0.6-0.8,1-1.1c0.4-0.3,0.9-0.4,1.5-0.4c0.8,0,1.4,0.2,1.9,0.7
					c0.4,0.5,0.6,1.3,0.6,2.3v4.6h-0.8v-4.6c0-0.9-0.2-1.5-0.5-1.8c-0.3-0.4-0.8-0.5-1.4-0.5c-0.6,0-1.1,0.2-1.4,0.5
					c-0.4,0.3-0.6,0.7-0.8,1.2v5.3h-0.8v-7.5H92.3z"/>
				<path class="st2" d="M103.7,82l0.2,0.9h0l0.3-0.9l2-5.6h0.9l-2.9,7.5h-0.7l-2.9-7.5h0.9L103.7,82z"/>
				<path class="st2" d="M112.4,83.9c-0.1-0.3-0.1-0.5-0.1-0.7c0-0.2,0-0.4,0-0.6c-0.3,0.4-0.6,0.7-1.1,1s-1,0.4-1.6,0.4
					c-0.7,0-1.3-0.2-1.7-0.6s-0.6-0.9-0.6-1.6c0-0.7,0.3-1.3,0.9-1.7c0.6-0.4,1.4-0.6,2.4-0.6h1.7v-0.9c0-0.5-0.2-1-0.5-1.3
					c-0.3-0.3-0.8-0.5-1.5-0.5c-0.6,0-1.1,0.1-1.4,0.4c-0.4,0.3-0.6,0.6-0.6,1.1l-0.8,0l0,0c0-0.6,0.2-1.1,0.8-1.5
					c0.5-0.4,1.2-0.7,2.1-0.7c0.8,0,1.5,0.2,2,0.6s0.8,1,0.8,1.8v3.7c0,0.3,0,0.5,0,0.8c0,0.3,0.1,0.5,0.1,0.7H112.4z M109.7,83.3
					c0.6,0,1.1-0.1,1.6-0.4c0.5-0.3,0.8-0.6,1-1.1v-1.6h-1.7c-0.8,0-1.4,0.2-1.8,0.5s-0.7,0.7-0.7,1.2c0,0.4,0.1,0.7,0.4,1
					C108.8,83.2,109.2,83.3,109.7,83.3z"/>
				<path class="st2" d="M115.5,83.9h-0.8V73h0.8V83.9z"/>
				<path class="st2" d="M116.7,80c0-1.1,0.3-2,0.9-2.7c0.6-0.7,1.4-1.1,2.4-1.1c1,0,1.8,0.4,2.4,1.1c0.6,0.7,0.9,1.6,0.9,2.7v0.2
					c0,1.1-0.3,2-0.9,2.7c-0.6,0.7-1.4,1.1-2.4,1.1c-1,0-1.8-0.4-2.4-1.1c-0.6-0.7-0.9-1.6-0.9-2.7V80z M117.5,80.2
					c0,0.9,0.2,1.6,0.7,2.2c0.4,0.6,1.1,0.9,1.8,0.9c0.8,0,1.4-0.3,1.8-0.9s0.7-1.3,0.7-2.2V80c0-0.9-0.2-1.6-0.7-2.2
					c-0.4-0.6-1.1-0.9-1.8-0.9c-0.8,0-1.4,0.3-1.8,0.9c-0.4,0.6-0.7,1.3-0.7,2.2V80.2z"/>
				<path class="st2" d="M127.8,77.1l-0.6,0c-0.5,0-1,0.1-1.3,0.4c-0.3,0.3-0.6,0.7-0.7,1.2v5.2h-0.8v-7.5h0.7l0.1,1.3v0.1
					c0.2-0.5,0.5-0.8,0.9-1.1c0.4-0.3,0.8-0.4,1.3-0.4c0.1,0,0.2,0,0.3,0s0.2,0,0.2,0.1L127.8,77.1z"/>
				<path class="st2" d="M130.9,80.2c0-1.2,0.3-2.2,0.8-2.9c0.5-0.7,1.2-1.1,2.1-1.1c0.5,0,1,0.1,1.4,0.4c0.4,0.2,0.7,0.6,1,1
					l0.1-1.2h0.7v7.4c0,1-0.3,1.7-0.8,2.3c-0.5,0.6-1.3,0.8-2.2,0.8c-0.4,0-0.7,0-1.2-0.1c-0.4-0.1-0.8-0.2-1.1-0.4l0.2-0.7
					c0.3,0.1,0.6,0.3,0.9,0.3c0.3,0.1,0.7,0.1,1.1,0.1c0.7,0,1.3-0.2,1.7-0.6c0.4-0.4,0.6-1,0.6-1.8v-0.9c-0.3,0.4-0.6,0.7-1,0.9
					c-0.4,0.2-0.8,0.3-1.4,0.3c-0.9,0-1.6-0.3-2.1-1c-0.5-0.7-0.8-1.6-0.8-2.7V80.2z M131.8,80.3c0,0.9,0.2,1.6,0.6,2.2
					c0.4,0.5,0.9,0.8,1.7,0.8c0.5,0,1-0.1,1.3-0.4c0.4-0.2,0.6-0.6,0.8-1v-3.5c-0.2-0.4-0.4-0.8-0.8-1.1c-0.3-0.3-0.8-0.4-1.4-0.4
					c-0.7,0-1.3,0.3-1.7,0.9s-0.6,1.4-0.6,2.3V80.3z"/>
				<path class="st2" d="M139.4,83.9h-0.8V73h0.8V83.9z"/>
				<path class="st2" d="M140.5,80c0-1.1,0.3-2,0.9-2.7c0.6-0.7,1.4-1.1,2.4-1.1c1,0,1.8,0.4,2.4,1.1c0.6,0.7,0.9,1.6,0.9,2.7v0.2
					c0,1.1-0.3,2-0.9,2.7c-0.6,0.7-1.4,1.1-2.4,1.1c-1,0-1.8-0.4-2.4-1.1c-0.6-0.7-0.9-1.6-0.9-2.7V80z M141.4,80.2
					c0,0.9,0.2,1.6,0.7,2.2c0.4,0.6,1.1,0.9,1.8,0.9c0.8,0,1.4-0.3,1.8-0.9c0.4-0.6,0.7-1.3,0.7-2.2V80c0-0.9-0.2-1.6-0.7-2.2
					c-0.4-0.6-1.1-0.9-1.8-0.9s-1.4,0.3-1.8,0.9c-0.4,0.6-0.7,1.3-0.7,2.2V80.2z"/>
				<path class="st2" d="M154.3,80.3c0,1.1-0.3,2-0.8,2.7c-0.5,0.7-1.2,1-2.1,1c-0.6,0-1-0.1-1.4-0.3c-0.4-0.2-0.7-0.5-1-0.9
					l-0.1,1.1h-0.7V73h0.8v4.5c0.3-0.4,0.6-0.7,1-1c0.4-0.2,0.9-0.3,1.4-0.3c0.9,0,1.6,0.4,2.1,1.1c0.5,0.7,0.8,1.7,0.8,2.9V80.3z
					 M153.4,80.2c0-1-0.2-1.7-0.6-2.4c-0.4-0.6-0.9-0.9-1.6-0.9c-0.6,0-1,0.1-1.4,0.4c-0.4,0.3-0.6,0.7-0.8,1.1v3.4
					c0.2,0.4,0.5,0.8,0.8,1c0.4,0.3,0.8,0.4,1.4,0.4c0.7,0,1.3-0.3,1.6-0.8c0.4-0.5,0.5-1.3,0.5-2.2V80.2z"/>
				<path class="st2" d="M160.2,83.9c-0.1-0.3-0.1-0.5-0.1-0.7s0-0.4,0-0.6c-0.3,0.4-0.7,0.7-1.1,1s-1,0.4-1.6,0.4
					c-0.7,0-1.3-0.2-1.7-0.6c-0.4-0.4-0.6-0.9-0.6-1.6c0-0.7,0.3-1.3,0.9-1.7c0.6-0.4,1.4-0.6,2.4-0.6h1.7v-0.9c0-0.5-0.2-1-0.5-1.3
					c-0.3-0.3-0.8-0.5-1.5-0.5c-0.6,0-1.1,0.1-1.4,0.4c-0.4,0.3-0.6,0.6-0.6,1.1l-0.8,0l0,0c0-0.6,0.2-1.1,0.8-1.5
					c0.5-0.4,1.2-0.7,2.1-0.7c0.8,0,1.5,0.2,2,0.6c0.5,0.4,0.8,1,0.8,1.8v3.7c0,0.3,0,0.5,0,0.8c0,0.3,0.1,0.5,0.1,0.7H160.2z
					 M157.5,83.3c0.6,0,1.1-0.1,1.6-0.4c0.5-0.3,0.8-0.6,1-1.1v-1.6h-1.7c-0.8,0-1.4,0.2-1.8,0.5c-0.5,0.3-0.7,0.7-0.7,1.2
					c0,0.4,0.1,0.7,0.4,1C156.6,83.2,157,83.3,157.5,83.3z"/>
				<path class="st2" d="M163.3,83.9h-0.8V73h0.8V83.9z"/>
			</g>
		</g>
	</g>
	<line class="st3" x1="179.8" y1="85.8" x2="179.8" y2="7.2"/>
	<g>
		<g class="st1">
			<path class="st4" d="M192,38.4h-0.9l-6-9.1l0,0v9.1h-0.9V27.8h0.9l6,9.1l0,0v-9.1h0.9V38.4z"/>
			<path class="st4" d="M194,34.4c0-1.2,0.3-2.1,1-2.8c0.6-0.7,1.5-1.1,2.5-1.1c1,0,1.9,0.4,2.5,1.1c0.6,0.7,1,1.7,1,2.8v0.2
				c0,1.2-0.3,2.1-0.9,2.8c-0.6,0.7-1.5,1.1-2.5,1.1c-1.1,0-1.9-0.4-2.5-1.1c-0.6-0.7-1-1.7-1-2.8V34.4z M194.9,34.6
				c0,0.9,0.2,1.7,0.7,2.3c0.5,0.6,1.1,0.9,1.9,0.9c0.8,0,1.4-0.3,1.9-0.9c0.5-0.6,0.7-1.4,0.7-2.3v-0.2c0-0.9-0.2-1.7-0.7-2.3
				c-0.5-0.6-1.1-0.9-1.9-0.9c-0.8,0-1.4,0.3-1.9,0.9c-0.5,0.6-0.7,1.4-0.7,2.3V34.6z"/>
			<path class="st4" d="M206.4,31.3l-0.6,0c-0.5,0-1,0.2-1.3,0.5c-0.4,0.3-0.6,0.7-0.8,1.3v5.4h-0.9v-7.9h0.8l0.1,1.3V32
				c0.2-0.5,0.5-0.9,0.9-1.1c0.4-0.3,0.8-0.4,1.4-0.4c0.1,0,0.2,0,0.3,0c0.1,0,0.2,0,0.3,0.1L206.4,31.3z"/>
			<path class="st4" d="M208.5,30.6l0.1,1.3c0.3-0.5,0.6-0.8,1-1.1c0.4-0.3,0.9-0.4,1.5-0.4c0.6,0,1.1,0.1,1.5,0.4
				c0.4,0.3,0.7,0.7,0.9,1.3c0.2-0.6,0.6-1,1-1.3c0.4-0.3,1-0.5,1.6-0.5c0.8,0,1.5,0.3,1.9,0.8c0.5,0.6,0.7,1.4,0.7,2.6v4.6h-0.9
				v-4.6c0-1-0.2-1.7-0.5-2.1c-0.3-0.4-0.8-0.6-1.4-0.6c-0.7,0-1.2,0.2-1.6,0.6c-0.4,0.4-0.6,1-0.7,1.6c0,0,0,0.1,0,0.1
				c0,0.1,0,0.1,0,0.1v4.7h-0.9v-4.6c0-1-0.2-1.6-0.5-2c-0.3-0.4-0.8-0.6-1.4-0.6c-0.6,0-1.1,0.2-1.5,0.5s-0.6,0.7-0.8,1.3v5.5h-0.9
				v-7.9H208.5z"/>
			<path class="st4" d="M226,38.4c-0.1-0.3-0.1-0.5-0.1-0.7c0-0.2,0-0.4,0-0.6c-0.3,0.4-0.7,0.8-1.2,1c-0.5,0.3-1,0.4-1.6,0.4
				c-0.8,0-1.4-0.2-1.8-0.6s-0.6-1-0.6-1.6c0-0.7,0.3-1.3,0.9-1.7c0.6-0.4,1.5-0.7,2.5-0.7h1.7v-1c0-0.6-0.2-1-0.5-1.3
				s-0.9-0.5-1.5-0.5c-0.6,0-1.1,0.2-1.5,0.5c-0.4,0.3-0.6,0.7-0.6,1.1l-0.8,0l0,0c0-0.6,0.2-1.1,0.8-1.6s1.3-0.7,2.2-0.7
				c0.9,0,1.6,0.2,2.1,0.7c0.5,0.4,0.8,1.1,0.8,1.9v3.9c0,0.3,0,0.5,0,0.8c0,0.3,0.1,0.5,0.2,0.8H226z M223.1,37.8
				c0.6,0,1.2-0.1,1.7-0.4s0.8-0.7,1-1.1v-1.6H224c-0.8,0-1.4,0.2-1.9,0.5c-0.5,0.3-0.7,0.8-0.7,1.3c0,0.4,0.1,0.8,0.4,1
				C222.2,37.7,222.6,37.8,223.1,37.8z"/>
		</g>
		<g class="st1">
			<path class="st5" d="M192,38.4h-0.9l-6-9.1l0,0v9.1h-0.9V27.8h0.9l6,9.1l0,0v-9.1h0.9V38.4z"/>
			<path class="st5" d="M194,34.4c0-1.2,0.3-2.1,1-2.8c0.6-0.7,1.5-1.1,2.5-1.1c1,0,1.9,0.4,2.5,1.1c0.6,0.7,1,1.7,1,2.8v0.2
				c0,1.2-0.3,2.1-0.9,2.8c-0.6,0.7-1.5,1.1-2.5,1.1c-1.1,0-1.9-0.4-2.5-1.1c-0.6-0.7-1-1.7-1-2.8V34.4z M194.9,34.6
				c0,0.9,0.2,1.7,0.7,2.3c0.5,0.6,1.1,0.9,1.9,0.9c0.8,0,1.4-0.3,1.9-0.9c0.5-0.6,0.7-1.4,0.7-2.3v-0.2c0-0.9-0.2-1.7-0.7-2.3
				c-0.5-0.6-1.1-0.9-1.9-0.9c-0.8,0-1.4,0.3-1.9,0.9c-0.5,0.6-0.7,1.4-0.7,2.3V34.6z"/>
			<path class="st5" d="M206.4,31.3l-0.6,0c-0.5,0-1,0.2-1.3,0.5c-0.4,0.3-0.6,0.7-0.8,1.3v5.4h-0.9v-7.9h0.8l0.1,1.3V32
				c0.2-0.5,0.5-0.9,0.9-1.1c0.4-0.3,0.8-0.4,1.4-0.4c0.1,0,0.2,0,0.3,0c0.1,0,0.2,0,0.3,0.1L206.4,31.3z"/>
			<path class="st5" d="M208.5,30.6l0.1,1.3c0.3-0.5,0.6-0.8,1-1.1c0.4-0.3,0.9-0.4,1.5-0.4c0.6,0,1.1,0.1,1.5,0.4
				c0.4,0.3,0.7,0.7,0.9,1.3c0.2-0.6,0.6-1,1-1.3c0.4-0.3,1-0.5,1.6-0.5c0.8,0,1.5,0.3,1.9,0.8c0.5,0.6,0.7,1.4,0.7,2.6v4.6h-0.9
				v-4.6c0-1-0.2-1.7-0.5-2.1c-0.3-0.4-0.8-0.6-1.4-0.6c-0.7,0-1.2,0.2-1.6,0.6c-0.4,0.4-0.6,1-0.7,1.6c0,0,0,0.1,0,0.1
				c0,0.1,0,0.1,0,0.1v4.7h-0.9v-4.6c0-1-0.2-1.6-0.5-2c-0.3-0.4-0.8-0.6-1.4-0.6c-0.6,0-1.1,0.2-1.5,0.5s-0.6,0.7-0.8,1.3v5.5h-0.9
				v-7.9H208.5z"/>
			<path class="st5" d="M226,38.4c-0.1-0.3-0.1-0.5-0.1-0.7c0-0.2,0-0.4,0-0.6c-0.3,0.4-0.7,0.8-1.2,1c-0.5,0.3-1,0.4-1.6,0.4
				c-0.8,0-1.4-0.2-1.8-0.6s-0.6-1-0.6-1.6c0-0.7,0.3-1.3,0.9-1.7c0.6-0.4,1.5-0.7,2.5-0.7h1.7v-1c0-0.6-0.2-1-0.5-1.3
				s-0.9-0.5-1.5-0.5c-0.6,0-1.1,0.2-1.5,0.5c-0.4,0.3-0.6,0.7-0.6,1.1l-0.8,0l0,0c0-0.6,0.2-1.1,0.8-1.6s1.3-0.7,2.2-0.7
				c0.9,0,1.6,0.2,2.1,0.7c0.5,0.4,0.8,1.1,0.8,1.9v3.9c0,0.3,0,0.5,0,0.8c0,0.3,0.1,0.5,0.2,0.8H226z M223.1,37.8
				c0.6,0,1.2-0.1,1.7-0.4s0.8-0.7,1-1.1v-1.6H224c-0.8,0-1.4,0.2-1.9,0.5c-0.5,0.3-0.7,0.8-0.7,1.3c0,0.4,0.1,0.8,0.4,1
				C222.2,37.7,222.6,37.8,223.1,37.8z"/>
		</g>
		<g class="st1">
			<path class="st4" d="M185.2,55.2h-0.9V44.6h0.9V55.2z"/>
			<path class="st4" d="M188.7,47.4l0.1,1.4c0.3-0.5,0.6-0.9,1-1.1c0.4-0.3,0.9-0.4,1.5-0.4c0.9,0,1.5,0.3,1.9,0.8
				c0.4,0.5,0.7,1.3,0.7,2.4v4.8h-0.9v-4.8c0-0.9-0.2-1.5-0.5-1.9c-0.3-0.4-0.8-0.6-1.4-0.6c-0.6,0-1.1,0.2-1.5,0.5
				s-0.7,0.8-0.8,1.3v5.5H188v-7.9H188.7z"/>
			<path class="st4" d="M197.6,45.4v2h1.7v0.7h-1.7v5.1c0,0.5,0.1,0.9,0.3,1.1c0.2,0.2,0.4,0.3,0.7,0.3c0.1,0,0.3,0,0.4,0
				c0.1,0,0.3,0,0.5-0.1l0.1,0.6c-0.1,0.1-0.3,0.1-0.5,0.1s-0.4,0.1-0.6,0.1c-0.6,0-1-0.2-1.3-0.5c-0.3-0.3-0.5-0.9-0.5-1.7v-5.1
				h-1.4v-0.7h1.4v-2H197.6z"/>
			<path class="st4" d="M204.1,55.4c-1,0-1.8-0.4-2.4-1.1s-1-1.6-1-2.8v-0.4c0-1.1,0.3-2.1,1-2.8c0.6-0.7,1.4-1.1,2.3-1.1
				c1,0,1.7,0.3,2.3,0.9c0.6,0.6,0.8,1.4,0.8,2.4v0.7h-5.5v0.2c0,0.9,0.2,1.6,0.7,2.2c0.5,0.6,1.1,0.9,1.8,0.9c0.5,0,1-0.1,1.4-0.2
				c0.4-0.2,0.7-0.4,1-0.6l0.4,0.6c-0.3,0.3-0.7,0.6-1.1,0.7C205.3,55.3,204.7,55.4,204.1,55.4z M204,48c-0.6,0-1.2,0.2-1.6,0.7
				c-0.4,0.5-0.7,1.1-0.8,1.8l0,0h4.6v-0.2c0-0.7-0.2-1.2-0.6-1.7C205.2,48.2,204.7,48,204,48z"/>
			<path class="st4" d="M212.4,48.1l-0.6,0c-0.5,0-1,0.2-1.3,0.5c-0.4,0.3-0.6,0.7-0.8,1.3v5.4h-0.9v-7.9h0.8l0.1,1.3v0.1
				c0.2-0.5,0.5-0.9,0.9-1.1s0.8-0.4,1.4-0.4c0.1,0,0.2,0,0.3,0c0.1,0,0.2,0,0.3,0.1L212.4,48.1z"/>
			<path class="st4" d="M214.6,47.4l0.1,1.4c0.3-0.5,0.6-0.9,1-1.1s0.9-0.4,1.5-0.4c0.9,0,1.5,0.3,1.9,0.8c0.4,0.5,0.7,1.3,0.7,2.4
				v4.8H219v-4.8c0-0.9-0.2-1.5-0.5-1.9s-0.8-0.6-1.4-0.6c-0.6,0-1.1,0.2-1.5,0.5c-0.4,0.3-0.7,0.8-0.8,1.3v5.5h-0.9v-7.9H214.6z"/>
			<path class="st4" d="M227.1,55.2c-0.1-0.3-0.1-0.5-0.1-0.7c0-0.2,0-0.4,0-0.6c-0.3,0.4-0.7,0.8-1.2,1c-0.5,0.3-1,0.4-1.6,0.4
				c-0.8,0-1.4-0.2-1.8-0.6s-0.6-1-0.6-1.6c0-0.7,0.3-1.3,0.9-1.7c0.6-0.4,1.5-0.7,2.5-0.7h1.7v-1c0-0.6-0.2-1-0.5-1.3
				s-0.9-0.5-1.5-0.5c-0.6,0-1.1,0.2-1.5,0.5c-0.4,0.3-0.6,0.7-0.6,1.1l-0.8,0l0,0c0-0.6,0.2-1.1,0.8-1.6s1.3-0.7,2.2-0.7
				c0.9,0,1.6,0.2,2.1,0.7c0.5,0.4,0.8,1.1,0.8,1.9v3.9c0,0.3,0,0.5,0,0.8c0,0.3,0.1,0.5,0.2,0.8H227.1z M224.3,54.6
				c0.6,0,1.2-0.1,1.7-0.4s0.8-0.7,1-1.1v-1.6h-1.7c-0.8,0-1.4,0.2-1.9,0.5c-0.5,0.3-0.7,0.8-0.7,1.3c0,0.4,0.1,0.8,0.4,1
				C223.3,54.5,223.7,54.6,224.3,54.6z"/>
			<path class="st4" d="M233,54.6c0.6,0,1.1-0.2,1.5-0.5c0.4-0.3,0.7-0.8,0.7-1.4h0.8l0,0c0,0.7-0.3,1.3-0.9,1.8
				c-0.6,0.5-1.3,0.7-2.1,0.7c-1.1,0-1.9-0.4-2.5-1.1c-0.6-0.7-0.9-1.7-0.9-2.8v-0.3c0-1.1,0.3-2.1,0.9-2.8s1.4-1.1,2.5-1.1
				c0.9,0,1.6,0.3,2.2,0.8s0.8,1.2,0.8,2l0,0h-0.8c0-0.6-0.2-1.1-0.6-1.5c-0.4-0.4-0.9-0.6-1.6-0.6c-0.8,0-1.5,0.3-1.9,0.9
				c-0.4,0.6-0.6,1.4-0.6,2.3v0.3c0,0.9,0.2,1.7,0.6,2.3C231.6,54.3,232.2,54.6,233,54.6z"/>
			<path class="st4" d="M238.8,45.1h-0.9v-1.2h0.9V45.1z M238.8,55.2h-0.9v-7.9h0.9V55.2z"/>
			<path class="st4" d="M240.7,51.2c0-1.2,0.3-2.1,1-2.8c0.6-0.7,1.5-1.1,2.5-1.1c1,0,1.9,0.4,2.5,1.1c0.6,0.7,1,1.7,1,2.8v0.2
				c0,1.2-0.3,2.1-0.9,2.8c-0.6,0.7-1.5,1.1-2.5,1.1c-1.1,0-1.9-0.4-2.5-1.1s-1-1.7-1-2.8V51.2z M241.6,51.4c0,0.9,0.2,1.7,0.7,2.3
				c0.5,0.6,1.1,0.9,1.9,0.9c0.8,0,1.4-0.3,1.9-0.9c0.5-0.6,0.7-1.4,0.7-2.3v-0.2c0-0.9-0.2-1.7-0.7-2.3c-0.5-0.6-1.1-0.9-1.9-0.9
				s-1.4,0.3-1.9,0.9c-0.5,0.6-0.7,1.4-0.7,2.3V51.4z"/>
			<path class="st4" d="M250.2,47.4l0.1,1.4c0.3-0.5,0.6-0.9,1-1.1c0.4-0.3,0.9-0.4,1.5-0.4c0.9,0,1.5,0.3,1.9,0.8
				c0.4,0.5,0.7,1.3,0.7,2.4v4.8h-0.9v-4.8c0-0.9-0.2-1.5-0.5-1.9c-0.3-0.4-0.8-0.6-1.4-0.6c-0.6,0-1.1,0.2-1.5,0.5
				s-0.7,0.8-0.8,1.3v5.5h-0.9v-7.9H250.2z"/>
			<path class="st4" d="M262.7,55.2c-0.1-0.3-0.1-0.5-0.1-0.7s0-0.4,0-0.6c-0.3,0.4-0.7,0.8-1.2,1s-1,0.4-1.6,0.4
				c-0.8,0-1.4-0.2-1.8-0.6c-0.4-0.4-0.6-1-0.6-1.6c0-0.7,0.3-1.3,0.9-1.7c0.6-0.4,1.5-0.7,2.5-0.7h1.7v-1c0-0.6-0.2-1-0.5-1.3
				s-0.9-0.5-1.5-0.5c-0.6,0-1.1,0.2-1.5,0.5c-0.4,0.3-0.6,0.7-0.6,1.1l-0.8,0l0,0c0-0.6,0.2-1.1,0.8-1.6s1.3-0.7,2.2-0.7
				c0.9,0,1.6,0.2,2.1,0.7s0.8,1.1,0.8,1.9v3.9c0,0.3,0,0.5,0,0.8c0,0.3,0.1,0.5,0.2,0.8H262.7z M259.9,54.6c0.6,0,1.2-0.1,1.7-0.4
				c0.5-0.3,0.8-0.7,1-1.1v-1.6h-1.7c-0.8,0-1.4,0.2-1.9,0.5c-0.5,0.3-0.7,0.8-0.7,1.3c0,0.4,0.1,0.8,0.4,1S259.3,54.6,259.9,54.6z"
				/>
			<path class="st4" d="M266.7,55.2h-0.9V43.9h0.9V55.2z"/>
		</g>
		<g class="st1">
			<path class="st5" d="M185.2,55.2h-0.9V44.6h0.9V55.2z"/>
			<path class="st5" d="M188.7,47.4l0.1,1.4c0.3-0.5,0.6-0.9,1-1.1c0.4-0.3,0.9-0.4,1.5-0.4c0.9,0,1.5,0.3,1.9,0.8
				c0.4,0.5,0.7,1.3,0.7,2.4v4.8h-0.9v-4.8c0-0.9-0.2-1.5-0.5-1.9c-0.3-0.4-0.8-0.6-1.4-0.6c-0.6,0-1.1,0.2-1.5,0.5
				s-0.7,0.8-0.8,1.3v5.5H188v-7.9H188.7z"/>
			<path class="st5" d="M197.6,45.4v2h1.7v0.7h-1.7v5.1c0,0.5,0.1,0.9,0.3,1.1c0.2,0.2,0.4,0.3,0.7,0.3c0.1,0,0.3,0,0.4,0
				c0.1,0,0.3,0,0.5-0.1l0.1,0.6c-0.1,0.1-0.3,0.1-0.5,0.1s-0.4,0.1-0.6,0.1c-0.6,0-1-0.2-1.3-0.5c-0.3-0.3-0.5-0.9-0.5-1.7v-5.1
				h-1.4v-0.7h1.4v-2H197.6z"/>
			<path class="st5" d="M204.1,55.4c-1,0-1.8-0.4-2.4-1.1s-1-1.6-1-2.8v-0.4c0-1.1,0.3-2.1,1-2.8c0.6-0.7,1.4-1.1,2.3-1.1
				c1,0,1.7,0.3,2.3,0.9c0.6,0.6,0.8,1.4,0.8,2.4v0.7h-5.5v0.2c0,0.9,0.2,1.6,0.7,2.2c0.5,0.6,1.1,0.9,1.8,0.9c0.5,0,1-0.1,1.4-0.2
				c0.4-0.2,0.7-0.4,1-0.6l0.4,0.6c-0.3,0.3-0.7,0.6-1.1,0.7C205.3,55.3,204.7,55.4,204.1,55.4z M204,48c-0.6,0-1.2,0.2-1.6,0.7
				c-0.4,0.5-0.7,1.1-0.8,1.8l0,0h4.6v-0.2c0-0.7-0.2-1.2-0.6-1.7C205.2,48.2,204.7,48,204,48z"/>
			<path class="st5" d="M212.4,48.1l-0.6,0c-0.5,0-1,0.2-1.3,0.5c-0.4,0.3-0.6,0.7-0.8,1.3v5.4h-0.9v-7.9h0.8l0.1,1.3v0.1
				c0.2-0.5,0.5-0.9,0.9-1.1s0.8-0.4,1.4-0.4c0.1,0,0.2,0,0.3,0c0.1,0,0.2,0,0.3,0.1L212.4,48.1z"/>
			<path class="st5" d="M214.6,47.4l0.1,1.4c0.3-0.5,0.6-0.9,1-1.1s0.9-0.4,1.5-0.4c0.9,0,1.5,0.3,1.9,0.8c0.4,0.5,0.7,1.3,0.7,2.4
				v4.8H219v-4.8c0-0.9-0.2-1.5-0.5-1.9s-0.8-0.6-1.4-0.6c-0.6,0-1.1,0.2-1.5,0.5c-0.4,0.3-0.7,0.8-0.8,1.3v5.5h-0.9v-7.9H214.6z"/>
			<path class="st5" d="M227.1,55.2c-0.1-0.3-0.1-0.5-0.1-0.7c0-0.2,0-0.4,0-0.6c-0.3,0.4-0.7,0.8-1.2,1c-0.5,0.3-1,0.4-1.6,0.4
				c-0.8,0-1.4-0.2-1.8-0.6s-0.6-1-0.6-1.6c0-0.7,0.3-1.3,0.9-1.7c0.6-0.4,1.5-0.7,2.5-0.7h1.7v-1c0-0.6-0.2-1-0.5-1.3
				s-0.9-0.5-1.5-0.5c-0.6,0-1.1,0.2-1.5,0.5c-0.4,0.3-0.6,0.7-0.6,1.1l-0.8,0l0,0c0-0.6,0.2-1.1,0.8-1.6s1.3-0.7,2.2-0.7
				c0.9,0,1.6,0.2,2.1,0.7c0.5,0.4,0.8,1.1,0.8,1.9v3.9c0,0.3,0,0.5,0,0.8c0,0.3,0.1,0.5,0.2,0.8H227.1z M224.3,54.6
				c0.6,0,1.2-0.1,1.7-0.4s0.8-0.7,1-1.1v-1.6h-1.7c-0.8,0-1.4,0.2-1.9,0.5c-0.5,0.3-0.7,0.8-0.7,1.3c0,0.4,0.1,0.8,0.4,1
				C223.3,54.5,223.7,54.6,224.3,54.6z"/>
			<path class="st5" d="M233,54.6c0.6,0,1.1-0.2,1.5-0.5c0.4-0.3,0.7-0.8,0.7-1.4h0.8l0,0c0,0.7-0.3,1.3-0.9,1.8
				c-0.6,0.5-1.3,0.7-2.1,0.7c-1.1,0-1.9-0.4-2.5-1.1c-0.6-0.7-0.9-1.7-0.9-2.8v-0.3c0-1.1,0.3-2.1,0.9-2.8s1.4-1.1,2.5-1.1
				c0.9,0,1.6,0.3,2.2,0.8s0.8,1.2,0.8,2l0,0h-0.8c0-0.6-0.2-1.1-0.6-1.5c-0.4-0.4-0.9-0.6-1.6-0.6c-0.8,0-1.5,0.3-1.9,0.9
				c-0.4,0.6-0.6,1.4-0.6,2.3v0.3c0,0.9,0.2,1.7,0.6,2.3C231.6,54.3,232.2,54.6,233,54.6z"/>
			<path class="st5" d="M238.8,45.1h-0.9v-1.2h0.9V45.1z M238.8,55.2h-0.9v-7.9h0.9V55.2z"/>
			<path class="st5" d="M240.7,51.2c0-1.2,0.3-2.1,1-2.8c0.6-0.7,1.5-1.1,2.5-1.1c1,0,1.9,0.4,2.5,1.1c0.6,0.7,1,1.7,1,2.8v0.2
				c0,1.2-0.3,2.1-0.9,2.8c-0.6,0.7-1.5,1.1-2.5,1.1c-1.1,0-1.9-0.4-2.5-1.1s-1-1.7-1-2.8V51.2z M241.6,51.4c0,0.9,0.2,1.7,0.7,2.3
				c0.5,0.6,1.1,0.9,1.9,0.9c0.8,0,1.4-0.3,1.9-0.9c0.5-0.6,0.7-1.4,0.7-2.3v-0.2c0-0.9-0.2-1.7-0.7-2.3c-0.5-0.6-1.1-0.9-1.9-0.9
				s-1.4,0.3-1.9,0.9c-0.5,0.6-0.7,1.4-0.7,2.3V51.4z"/>
			<path class="st5" d="M250.2,47.4l0.1,1.4c0.3-0.5,0.6-0.9,1-1.1c0.4-0.3,0.9-0.4,1.5-0.4c0.9,0,1.5,0.3,1.9,0.8
				c0.4,0.5,0.7,1.3,0.7,2.4v4.8h-0.9v-4.8c0-0.9-0.2-1.5-0.5-1.9c-0.3-0.4-0.8-0.6-1.4-0.6c-0.6,0-1.1,0.2-1.5,0.5
				s-0.7,0.8-0.8,1.3v5.5h-0.9v-7.9H250.2z"/>
			<path class="st5" d="M262.7,55.2c-0.1-0.3-0.1-0.5-0.1-0.7s0-0.4,0-0.6c-0.3,0.4-0.7,0.8-1.2,1s-1,0.4-1.6,0.4
				c-0.8,0-1.4-0.2-1.8-0.6c-0.4-0.4-0.6-1-0.6-1.6c0-0.7,0.3-1.3,0.9-1.7c0.6-0.4,1.5-0.7,2.5-0.7h1.7v-1c0-0.6-0.2-1-0.5-1.3
				s-0.9-0.5-1.5-0.5c-0.6,0-1.1,0.2-1.5,0.5c-0.4,0.3-0.6,0.7-0.6,1.1l-0.8,0l0,0c0-0.6,0.2-1.1,0.8-1.6s1.3-0.7,2.2-0.7
				c0.9,0,1.6,0.2,2.1,0.7s0.8,1.1,0.8,1.9v3.9c0,0.3,0,0.5,0,0.8c0,0.3,0.1,0.5,0.2,0.8H262.7z M259.9,54.6c0.6,0,1.2-0.1,1.7-0.4
				c0.5-0.3,0.8-0.7,1-1.1v-1.6h-1.7c-0.8,0-1.4,0.2-1.9,0.5c-0.5,0.3-0.7,0.8-0.7,1.3c0,0.4,0.1,0.8,0.4,1S259.3,54.6,259.9,54.6z"
				/>
			<path class="st5" d="M266.7,55.2h-0.9V43.9h0.9V55.2z"/>
		</g>
		<g class="st1">
			<path class="st2" d="M184.7,69.2h3.5V70h-4.5v-7.4h1V69.2z"/>
			<path class="st2" d="M191.4,70.1c-0.8,0-1.4-0.3-1.8-0.8c-0.4-0.5-0.7-1.2-0.7-2v-0.2c0-0.8,0.2-1.4,0.7-1.9
				c0.5-0.5,1-0.8,1.6-0.8c0.7,0,1.3,0.2,1.7,0.7c0.4,0.4,0.6,1,0.6,1.8v0.6h-3.5l0,0c0,0.5,0.1,1,0.4,1.3c0.3,0.3,0.6,0.5,1.1,0.5
				c0.3,0,0.6,0,0.9-0.1c0.3-0.1,0.5-0.2,0.7-0.4l0.4,0.6c-0.2,0.2-0.5,0.4-0.8,0.5S191.8,70.1,191.4,70.1z M191.2,65.2
				c-0.3,0-0.6,0.1-0.9,0.4c-0.2,0.3-0.4,0.6-0.4,1.1l0,0h2.5v-0.1c0-0.4-0.1-0.7-0.3-1C191.9,65.4,191.6,65.2,191.2,65.2z"/>
			<path class="st2" d="M196.2,68l0.2,0.7h0l1.3-4.1h1.1l-2.3,6.3c-0.1,0.4-0.3,0.7-0.6,1c-0.3,0.3-0.6,0.4-1,0.4
				c-0.1,0-0.2,0-0.3,0c-0.1,0-0.2,0-0.3-0.1l0.1-0.8c0,0,0,0,0.2,0c0.1,0,0.2,0,0.3,0c0.2,0,0.4-0.1,0.5-0.3s0.2-0.4,0.3-0.6
				l0.2-0.6l-2-5.4h1.1L196.2,68z"/>
			<path class="st2" d="M205,70h-1v-6.4l-1.5,0v-0.7l2.5-0.3V70z"/>
			<path class="st2" d="M209.4,65.9h0.9c0.4,0,0.8-0.1,0.9-0.3s0.3-0.5,0.3-0.9c0-0.4-0.1-0.7-0.3-1c-0.2-0.2-0.5-0.3-0.9-0.3
				c-0.4,0-0.7,0.1-0.9,0.3s-0.4,0.5-0.4,0.9h-1l0,0c0-0.6,0.2-1,0.6-1.4c0.4-0.4,1-0.6,1.6-0.6c0.7,0,1.2,0.2,1.6,0.5
				c0.4,0.4,0.6,0.9,0.6,1.5c0,0.3-0.1,0.6-0.3,0.9s-0.5,0.5-0.8,0.7c0.4,0.1,0.8,0.4,0.9,0.7c0.2,0.3,0.3,0.7,0.3,1
				c0,0.7-0.2,1.2-0.7,1.6c-0.4,0.4-1,0.6-1.7,0.6c-0.7,0-1.2-0.2-1.7-0.5c-0.4-0.4-0.7-0.9-0.6-1.5l0,0h1c0,0.4,0.1,0.7,0.4,0.9
				c0.2,0.2,0.6,0.3,1,0.3c0.4,0,0.8-0.1,1-0.3c0.2-0.2,0.4-0.6,0.4-1c0-0.5-0.1-0.8-0.3-1c-0.2-0.2-0.5-0.3-1-0.3h-0.9V65.9z"/>
			<path class="st2" d="M216.7,70h-1v-6.4l-1.5,0v-0.7l2.5-0.3V70z"/>
			<path class="st2" d="M223.6,67.5h1v0.8h-1V70h-1v-1.7h-3.3v-0.6l3.2-5.1h1.1V67.5z M220.4,67.5h2.2v-3.5l0,0l-0.1,0.3L220.4,67.5
				z"/>
			<path class="st2" d="M228,67.4c0-0.9,0.2-1.6,0.6-2.1s0.9-0.8,1.6-0.8c0.3,0,0.6,0.1,0.9,0.2c0.2,0.1,0.5,0.3,0.6,0.5v-3h1V70
				h-0.8l-0.1-0.7c-0.2,0.3-0.4,0.5-0.7,0.6c-0.3,0.1-0.6,0.2-0.9,0.2c-0.7,0-1.2-0.2-1.6-0.7c-0.4-0.5-0.6-1.1-0.6-1.9V67.4z
				 M229,67.5c0,0.6,0.1,1,0.3,1.3c0.2,0.3,0.6,0.5,1.1,0.5c0.3,0,0.5-0.1,0.7-0.2s0.4-0.3,0.5-0.6V66c-0.1-0.2-0.3-0.4-0.5-0.5
				c-0.2-0.1-0.4-0.2-0.7-0.2c-0.5,0-0.8,0.2-1.1,0.6s-0.3,0.9-0.3,1.5V67.5z"/>
			<path class="st2" d="M236.3,70.1c-0.8,0-1.4-0.3-1.8-0.8c-0.5-0.5-0.7-1.2-0.7-2v-0.2c0-0.8,0.2-1.4,0.7-1.9
				c0.5-0.5,1-0.8,1.6-0.8c0.7,0,1.3,0.2,1.7,0.7c0.4,0.4,0.6,1,0.6,1.8v0.6h-3.5l0,0c0,0.5,0.1,1,0.4,1.3c0.3,0.3,0.6,0.5,1.1,0.5
				c0.3,0,0.6,0,0.9-0.1c0.3-0.1,0.5-0.2,0.7-0.4l0.4,0.6c-0.2,0.2-0.5,0.4-0.8,0.5S236.8,70.1,236.3,70.1z M236.2,65.2
				c-0.3,0-0.6,0.1-0.9,0.4c-0.2,0.3-0.4,0.6-0.4,1.1l0,0h2.5v-0.1c0-0.4-0.1-0.7-0.3-1C236.9,65.4,236.6,65.2,236.2,65.2z"/>
			<path class="st2" d="M246.8,70H242v-0.7l2.4-2.7c0.4-0.5,0.7-0.9,0.9-1.1s0.2-0.6,0.2-0.9c0-0.4-0.1-0.7-0.3-0.9
				c-0.2-0.3-0.5-0.4-0.9-0.4c-0.5,0-0.9,0.1-1.1,0.4c-0.2,0.3-0.4,0.6-0.4,1.1h-1l0,0c0-0.6,0.2-1.2,0.6-1.6c0.4-0.4,1-0.6,1.8-0.6
				c0.7,0,1.2,0.2,1.6,0.6s0.6,0.9,0.6,1.5c0,0.4-0.1,0.8-0.4,1.2c-0.2,0.4-0.6,0.8-1,1.3l-1.9,2.1l0,0h3.5V70z"/>
			<path class="st2" d="M252.5,67.2c0,0.9-0.2,1.7-0.6,2.2c-0.4,0.5-1,0.8-1.7,0.8s-1.3-0.3-1.7-0.8c-0.4-0.5-0.6-1.2-0.6-2.2v-1.7
				c0-0.9,0.2-1.7,0.6-2.2s1-0.8,1.7-0.8c0.7,0,1.3,0.3,1.7,0.8s0.6,1.2,0.6,2.2V67.2z M251.5,65.2c0-0.6-0.1-1.1-0.3-1.4
				s-0.6-0.5-1-0.5c-0.4,0-0.8,0.2-1,0.5s-0.3,0.8-0.3,1.4v2.2c0,0.6,0.1,1.1,0.3,1.4c0.2,0.3,0.6,0.5,1,0.5c0.4,0,0.8-0.2,1-0.5
				s0.3-0.8,0.3-1.4V65.2z"/>
			<path class="st2" d="M258.3,67.2c0,0.9-0.2,1.7-0.6,2.2c-0.4,0.5-1,0.8-1.7,0.8s-1.3-0.3-1.7-0.8c-0.4-0.5-0.6-1.2-0.6-2.2v-1.7
				c0-0.9,0.2-1.7,0.6-2.2c0.4-0.5,1-0.8,1.7-0.8c0.7,0,1.3,0.3,1.7,0.8c0.4,0.5,0.6,1.2,0.6,2.2V67.2z M257.3,65.2
				c0-0.6-0.1-1.1-0.3-1.4c-0.2-0.3-0.6-0.5-1-0.5c-0.4,0-0.8,0.2-1,0.5c-0.2,0.3-0.3,0.8-0.3,1.4v2.2c0,0.6,0.1,1.1,0.3,1.4
				s0.6,0.5,1,0.5s0.8-0.2,1-0.5s0.3-0.8,0.3-1.4V65.2z"/>
			<path class="st2" d="M261.5,69.3c0.5,0,0.9-0.2,1.2-0.5c0.3-0.4,0.4-0.9,0.4-1.6v-0.3c-0.2,0.2-0.4,0.4-0.6,0.5
				c-0.2,0.1-0.5,0.2-0.8,0.2c-0.7,0-1.3-0.2-1.7-0.7s-0.6-1-0.6-1.8c0-0.7,0.2-1.3,0.7-1.8s1-0.7,1.6-0.7c0.8,0,1.4,0.2,1.8,0.7
				s0.7,1.2,0.7,2.1v1.8c0,1-0.2,1.7-0.7,2.2c-0.5,0.5-1.1,0.8-1.9,0.8c-0.3,0-0.5,0-0.8-0.1c-0.3,0-0.5-0.1-0.7-0.2l0.2-0.8
				c0.2,0.1,0.4,0.2,0.6,0.2C261,69.3,261.2,69.3,261.5,69.3z M261.6,66.8c0.4,0,0.7-0.1,0.9-0.2s0.4-0.4,0.5-0.6v-0.6
				c0-0.6-0.1-1.1-0.4-1.5c-0.2-0.3-0.6-0.5-1.1-0.5c-0.4,0-0.7,0.2-0.9,0.5c-0.3,0.3-0.4,0.7-0.4,1.2c0,0.5,0.1,0.9,0.4,1.2
				C260.9,66.6,261.2,66.8,261.6,66.8z"/>
		</g>
	</g>
</g>
</svg>
