<svg xmlns="http://www.w3.org/2000/svg" viewBox="0 0 37.27 43.38"><defs><style>.cls-1,.cls-2,.cls-3{fill:none;stroke-miterlimit:10;}.cls-1,.cls-3{stroke:#7e7c7a;}.cls-2{stroke:#868482;}.cls-3{stroke-linecap:round;}</style></defs><title>Recurso 1@1-5x</title><g id="Capa_2" data-name="Capa 2"><g id="Layer_1" data-name="Layer 1"><path class="cls-1" d="M4.45.5h26a4,4,0,0,1,3.95,3.95v27.1l-11,11h-19A4,4,0,0,1,.5,38.55V4.45A4,4,0,0,1,4.45.5Z"/><line class="cls-1" x1="7.22" y1="12.46" x2="28.57" y2="12.46"/><line class="cls-1" x1="7.22" y1="18.05" x2="28.57" y2="18.05"/><line class="cls-1" x1="7.22" y1="7.64" x2="17.89" y2="7.64"/><path class="cls-1" d="M23.45,42.5V34.44a3,3,0,0,1,3-3h8"/><path class="cls-2" d="M16.37,38.53V36.31a6.38,6.38,0,0,1-3.35-1l.53-1.47a5.86,5.86,0,0,0,3.16.94c1.55,0,2.61-.9,2.61-2.15s-.86-2-2.48-2.61c-2.24-.88-3.62-1.89-3.62-3.79a3.59,3.59,0,0,1,3.31-3.53V20.53h1.36v2.13a5.85,5.85,0,0,1,2.85.77l-.55,1.45a5.3,5.3,0,0,0-2.76-.75c-1.69,0-2.32,1-2.32,1.89,0,1.14.81,1.71,2.72,2.5,2.26.92,3.4,2.06,3.4,4a3.81,3.81,0,0,1-3.46,3.73v2.28Z"/><polyline class="cls-3" points="27.3 42.88 36.77 32.92 36.77 4.83"/></g></g></svg>