<?xml version="1.0" encoding="utf-8"?>
<!-- Generator: Adobe Illustrator 19.2.1, SVG Export Plug-In . SVG Version: 6.00 Build 0)  -->
<!DOCTYPE svg PUBLIC "-//W3C//DTD SVG 1.1//EN" "http://www.w3.org/Graphics/SVG/1.1/DTD/svg11.dtd">
<svg version="1.1" id="Capa_1" xmlns="http://www.w3.org/2000/svg" xmlns:xlink="http://www.w3.org/1999/xlink" x="0px" y="0px"
	 viewBox="0 0 63.7 76.4" enable-background="new 0 0 63.7 76.4" xml:space="preserve">
<g display="none">
	<path display="inline" fill="none" stroke="#989898" stroke-width="1.5" stroke-miterlimit="10" d="M30.6,6.8
		C18.9,6.6,8.2,11-0.8,19.5c-1.6,1.5-1.7,3.5-0.3,4.9c1.3,1.3,3.3,1.2,4.9-0.3c8.1-7.6,17.6-11.7,29-10.9
		c10.5,0.7,19.6,5.2,27.2,12.6c1,1,2.1,1.5,3.4,1.1c1.2-0.3,1.9-1.1,2.2-2.3c0.3-1.3-0.2-2.4-1.2-3.3c-3.5-3.5-7.5-6.4-11.8-8.7
		C46.1,9.2,39.1,7.2,30.6,6.8z"/>
	<path display="inline" fill="none" stroke="#989898" stroke-width="1.5" stroke-miterlimit="10" d="M32.2,21
		c-9.1-0.2-16.4,2.8-22.5,8.4c-0.9,0.8-1.5,1.8-1.3,3c0.2,1.3,0.8,2.2,2.1,2.7c1.4,0.5,2.6,0.2,3.6-0.8c2.5-2.5,5.5-4.4,8.9-5.6
		c8.2-2.9,15.9-1.3,23.2,3.6c1.3,0.9,2.5,2,3.7,3.1c1.5,1.3,3.5,1.5,4.7,0.2c1.2-1.2,1.1-3.3-0.2-4.6C49.2,26,43.1,22.8,36,21.5
		C34.6,21.3,33.2,21.2,32.2,21z"/>
	<path display="inline" fill="none" stroke="#989898" stroke-width="1.5" stroke-miterlimit="10" d="M18.1,42.6
		c0.1,1.7,0.6,2.7,1.8,3.3c1.3,0.6,2.6,0.4,3.6-0.6c2-1.9,4.3-3.1,7.1-3.3c3.7-0.3,6.8,1.2,9.6,3.6c1.6,1.5,3.5,1.6,4.7,0.3
		c1.2-1.3,1-3.2-0.6-4.7c-7-6.8-18.1-7.1-24.8-0.6C18.8,41.2,18.4,42.2,18.1,42.6z"/>
	<g display="inline">
		<path fill="none" stroke="#989898" stroke-width="1.5" stroke-miterlimit="10" d="M30.6,50.8c0.9,0,1.7,0,2.6,0c0,0,0,0,0,0
			c0.2,0.5,0.3,0.9,0.5,1.4c0.1,0.3,0.3,0.5,0.5,0.8c0.2,0.1,0.3,0.3,0.5,0.3c0.2,0.1,0.4,0.2,0.6,0.2c0.3,0,0.6,0,0.8-0.1
			c0.2-0.1,0.4-0.2,0.7-0.3c0.2-0.1,0.4-0.2,0.6-0.3c0.1,0,0.1-0.1,0.2-0.1c0.6,0.6,1.2,1.2,1.8,1.8c0,0,0,0,0,0.1
			c-0.1,0.1-0.1,0.3-0.2,0.4c-0.1,0.3-0.3,0.6-0.4,0.9c-0.1,0.2-0.2,0.5-0.2,0.8c0,0.1,0,0.2,0,0.4c0,0.3,0.1,0.5,0.3,0.7
			c0.1,0.2,0.3,0.4,0.4,0.5c0.1,0.1,0.3,0.2,0.5,0.3c0.4,0.1,0.8,0.3,1.1,0.4c0.1,0,0.2,0.1,0.3,0.1c0,0.9,0,1.7,0,2.6
			c0,0,0,0-0.1,0c-0.4,0.1-0.8,0.3-1.2,0.4c-0.3,0.1-0.6,0.3-0.8,0.5c-0.1,0.1-0.2,0.2-0.3,0.4c-0.2,0.3-0.3,0.6-0.3,1
			c0,0.1,0,0.2,0,0.3c0,0.2,0.1,0.4,0.2,0.6c0.1,0.2,0.2,0.4,0.3,0.6c0.1,0.2,0.2,0.5,0.3,0.7c0,0,0,0,0,0.1
			c-0.6,0.6-1.2,1.2-1.7,1.7c0,0,0,0-0.1,0c-0.2-0.1-0.4-0.2-0.6-0.3c-0.3-0.1-0.5-0.2-0.8-0.4c-0.2-0.1-0.5-0.2-0.7-0.2
			c-0.1,0-0.2,0-0.3,0c-0.2,0-0.4,0.1-0.6,0.2c-0.2,0.1-0.5,0.3-0.6,0.5c-0.1,0.1-0.2,0.3-0.3,0.4c-0.1,0.2-0.2,0.5-0.3,0.7
			c-0.1,0.2-0.2,0.4-0.2,0.6c0,0.1-0.1,0.2-0.1,0.2c-0.9,0-1.7,0-2.6,0c0,0,0,0,0-0.1c-0.2-0.4-0.3-0.8-0.5-1.3
			c-0.1-0.3-0.3-0.6-0.5-0.8c-0.2-0.1-0.3-0.3-0.5-0.4c-0.2-0.1-0.5-0.2-0.8-0.2c-0.1,0-0.2,0-0.3,0c-0.2,0-0.3,0.1-0.5,0.1
			c-0.2,0.1-0.4,0.2-0.6,0.3c-0.3,0.1-0.5,0.2-0.8,0.4c0,0-0.1,0-0.1,0c-0.6-0.6-1.1-1.1-1.7-1.7c0,0,0,0,0,0
			c0.1-0.1,0.1-0.3,0.2-0.4c0.1-0.3,0.3-0.6,0.4-0.9c0.1-0.2,0.1-0.4,0.2-0.6c0-0.2,0-0.3,0-0.5c0-0.2-0.1-0.4-0.2-0.6
			c-0.1-0.2-0.2-0.4-0.4-0.6c-0.1-0.1-0.3-0.2-0.5-0.3c-0.3-0.1-0.5-0.2-0.8-0.3c-0.2-0.1-0.4-0.2-0.6-0.2c-0.1,0-0.1,0-0.2-0.1
			c0-0.9,0-1.7,0-2.6c0,0,0,0,0,0c0.4-0.2,0.9-0.3,1.3-0.5c0.2-0.1,0.5-0.2,0.6-0.4c0.2-0.2,0.4-0.5,0.5-0.7
			c0.1-0.2,0.1-0.4,0.1-0.6c0-0.1,0-0.3,0-0.4c0-0.2-0.1-0.4-0.1-0.5c-0.1-0.2-0.2-0.5-0.3-0.7c-0.1-0.2-0.2-0.5-0.3-0.7
			c0.6-0.6,1.2-1.2,1.8-1.8c0.1,0,0.2,0.1,0.3,0.1c0.3,0.2,0.6,0.3,1,0.5c0.2,0.1,0.5,0.2,0.7,0.2c0.3,0,0.5,0,0.8-0.1
			c0.2-0.1,0.5-0.2,0.7-0.4c0.2-0.2,0.4-0.4,0.5-0.6c0.1-0.2,0.2-0.4,0.2-0.6c0.1-0.2,0.2-0.4,0.2-0.6C30.5,51,30.5,50.9,30.6,50.8z
			 M31.9,55.8c-1.2,0-2.3,0.4-3.1,1.3c-0.8,0.8-1.2,1.8-1.3,2.9c-0.1,1.2,0.3,2.3,1.2,3.2c0.8,0.9,1.9,1.4,3.1,1.4
			c1.2,0,2.3-0.4,3.1-1.2c0.9-0.8,1.3-1.8,1.4-3c0-1.2-0.4-2.2-1.2-3.1C34.2,56.3,33.1,55.8,31.9,55.8z"/>
	</g>
</g>
<g id="tools_xA0_Trazado_de_recorte_5_" display="none">
	<g display="inline">
		<path fill="none" stroke="#989898" stroke-width="1.5" stroke-miterlimit="10" d="M43,42.4c-0.9-0.9-2.3-0.9-3.1,0l-1.7,1.7
			l-2.8-2.8l4-4.3c5.5,3.1,12.6,2.4,17.3-2.3c4.3-4.3,5.3-10.5,3.1-15.7L50.3,28l-7.8-7.8l9.3-9.2c-5.2-2.1-11.4-1.1-15.7,3.2
			c-5.1,5.1-5.5,13.1-1.4,18.7l-4.2,3.5L15.9,21.8l-0.1-4.5L7.2,12L3,16.3l5.3,8.5l4.5,0l14.4,14.4L5.5,57.3c-1.7,1.7-1.7,4.5,0,6.3
			l1.6,1.6c1.7,1.7,4.5,1.7,6.3,0l19-20.8l2.7,2.7l-1.5,1.5c-0.9,0.9-0.9,2.3,0,3.1l13.8,13.9c0.9,0.9,2.3,0.9,3.1,0l6.3-6.3
			c0.9-0.9,0.9-2.3,0-3.1L43,42.4z M10.7,62.7c-0.9,0.9-2.3,0.9-3.1,0c-0.9-0.9-0.9-2.3,0-3.1c0.9-0.9,2.3-0.9,3.1,0
			C11.6,60.4,11.6,61.8,10.7,62.7z"/>
	</g>
</g>
<g display="none">
	<g display="inline">
		<path fill="none" stroke="#989898" stroke-width="1.5" stroke-miterlimit="10" d="M19.9,9.7c1.9,0,3.9,0,5.8,0c0,0,0,0.1,0,0.1
			c0.4,1,0.7,2.1,1.1,3.1c0.2,0.7,0.6,1.2,1.2,1.7c0.4,0.3,0.8,0.6,1.2,0.8c0.5,0.2,1,0.4,1.5,0.4c0.6,0,1.3,0,1.9-0.3
			c0.5-0.2,1-0.5,1.5-0.7c0.5-0.2,0.9-0.4,1.4-0.7c0.2-0.1,0.3-0.1,0.5-0.2c1.4,1.3,2.7,2.7,4,4c0,0,0,0.1,0,0.1
			c-0.1,0.3-0.3,0.6-0.4,0.9c-0.3,0.7-0.7,1.4-1,2.1c-0.3,0.6-0.4,1.2-0.4,1.8c0,0.3,0,0.5,0.1,0.8c0.1,0.6,0.3,1.1,0.6,1.6
			c0.3,0.4,0.6,0.8,1,1.1c0.3,0.3,0.7,0.5,1.1,0.6c0.9,0.3,1.7,0.6,2.6,0.9c0.2,0.1,0.5,0.2,0.8,0.3c0,1.9,0,3.9,0,5.8
			c0,0-0.1,0-0.1,0c-0.9,0.3-1.9,0.7-2.8,1c-0.7,0.2-1.3,0.6-1.8,1.1c-0.3,0.3-0.5,0.6-0.7,0.9c-0.4,0.7-0.6,1.4-0.7,2.3
			c0,0.2,0,0.4,0,0.7c0,0.4,0.2,0.9,0.4,1.3c0.2,0.5,0.4,0.9,0.6,1.4c0.3,0.5,0.5,1.1,0.8,1.6c0,0.1,0,0.1,0,0.2
			c-1.3,1.3-2.6,2.6-4,4c-0.1,0.1-0.1,0.1-0.2,0c-0.4-0.2-0.8-0.4-1.3-0.6c-0.6-0.3-1.2-0.6-1.7-0.8c-0.5-0.2-1.1-0.4-1.7-0.4
			c-0.2,0-0.5,0-0.7,0c-0.4,0-0.9,0.2-1.3,0.4c-0.6,0.3-1,0.6-1.4,1.1c-0.3,0.3-0.5,0.6-0.7,1c-0.2,0.5-0.4,1.1-0.6,1.6
			c-0.2,0.5-0.4,1-0.5,1.4c-0.1,0.2-0.1,0.4-0.2,0.6c-1.9,0-3.9,0-5.8,0c0,0,0-0.1,0-0.1c-0.3-1-0.7-1.9-1-2.9
			c-0.3-0.7-0.7-1.4-1.2-1.9c-0.4-0.3-0.8-0.6-1.2-0.8c-0.5-0.2-1.1-0.4-1.7-0.4c-0.2,0-0.4,0-0.6,0c-0.4,0-0.7,0.1-1.1,0.3
			c-0.4,0.2-0.9,0.4-1.3,0.6c-0.6,0.3-1.2,0.6-1.8,0.9c-0.1,0.1-0.2,0-0.2,0c-1.3-1.3-2.6-2.6-3.9-3.9c0,0-0.1-0.1-0.1-0.1
			c0.2-0.3,0.3-0.7,0.5-1c0.3-0.7,0.7-1.4,1-2.1c0.2-0.5,0.3-0.9,0.4-1.4c0-0.3,0-0.7,0-1.1c0-0.5-0.2-0.9-0.4-1.3
			c-0.2-0.5-0.6-0.9-1-1.3c-0.3-0.3-0.6-0.5-1-0.7c-0.6-0.2-1.2-0.4-1.7-0.7c-0.5-0.2-1-0.4-1.5-0.5c-0.1,0-0.3-0.1-0.4-0.1
			c0-1.9,0-3.9,0-5.8c0,0,0,0,0,0c1-0.4,2-0.7,3.1-1.1c0.5-0.2,1-0.5,1.5-0.9c0.5-0.5,0.9-1,1.2-1.7c0.2-0.4,0.3-0.9,0.3-1.3
			c0-0.3,0-0.6,0-0.9c0-0.4-0.1-0.8-0.3-1.2c-0.2-0.6-0.5-1.1-0.8-1.7c-0.2-0.5-0.5-1-0.7-1.5c1.4-1.4,2.7-2.7,4.1-4.1
			c0.2,0.1,0.5,0.2,0.7,0.3c0.7,0.3,1.5,0.7,2.2,1.1c0.5,0.3,1.1,0.4,1.6,0.5c0.6,0,1.2,0,1.7-0.2c0.6-0.2,1.1-0.5,1.5-0.8
			c0.4-0.4,0.8-0.8,1.1-1.3c0.2-0.5,0.4-1,0.6-1.4c0.2-0.5,0.3-1,0.5-1.4C19.8,10.2,19.8,9.9,19.9,9.7z M22.9,21.2
			c-2.8,0-5.2,1-7.1,2.9c-1.8,1.8-2.8,4-2.9,6.6c-0.1,2.8,0.8,5.2,2.6,7.2c1.9,2,4.2,3.1,7,3.2c2.8,0.1,5.2-0.8,7.2-2.7
			c2-1.9,3-4.2,3.1-6.9c0.1-2.7-0.8-5.1-2.7-7.1C28.1,22.2,25.7,21.2,22.9,21.2z"/>
		<path fill="none" stroke="#989898" stroke-width="1.5" stroke-miterlimit="10" d="M22.8,36.9c-1.6,0-3-0.6-4.1-1.7
			c-1.1-1.1-1.7-2.5-1.7-4.1c0-1.6,0.6-3.1,1.8-4.2c1.1-1.1,2.5-1.6,4-1.6c1.6,0,3,0.6,4.1,1.7c1.2,1.2,1.8,2.7,1.7,4.4
			C28.5,34.3,26.1,36.9,22.8,36.9z"/>
	</g>
	<g display="inline">
		<path fill="none" stroke="#989898" stroke-width="1.5" stroke-miterlimit="10" d="M52.2,43.3c1,0.3,2,0.6,3.1,0.9c0,0,0,0,0,0
			c0,0.6,0.1,1.2,0.1,1.8c0,0.4,0.1,0.7,0.4,1.1c0.1,0.2,0.3,0.4,0.5,0.6c0.2,0.2,0.5,0.3,0.7,0.4c0.3,0.1,0.7,0.2,1,0.1
			c0.3,0,0.6-0.1,0.9-0.1c0.3,0,0.5-0.1,0.8-0.1c0.1,0,0.2,0,0.3,0c0.5,0.9,1,1.8,1.5,2.7c0,0,0,0.1,0,0.1c-0.1,0.1-0.2,0.3-0.4,0.4
			c-0.3,0.3-0.5,0.6-0.8,0.9c-0.2,0.3-0.4,0.5-0.5,0.9c0,0.1-0.1,0.3-0.1,0.4c0,0.3,0,0.6,0.1,0.9c0.1,0.3,0.2,0.5,0.4,0.7
			c0.1,0.2,0.3,0.4,0.5,0.5c0.4,0.3,0.8,0.6,1.2,0.9c0.1,0.1,0.2,0.2,0.4,0.2c-0.3,1-0.6,2-0.9,3.1c0,0-0.1,0-0.1,0
			c-0.5,0-1.1,0.1-1.6,0.1c-0.4,0-0.8,0.1-1.1,0.3c-0.2,0.1-0.4,0.2-0.5,0.4c-0.3,0.3-0.5,0.7-0.7,1.1c0,0.1-0.1,0.2-0.1,0.4
			c0,0.2,0,0.5,0,0.7c0,0.3,0.1,0.5,0.1,0.8c0.1,0.3,0.1,0.6,0.2,1c0,0,0,0.1,0,0.1c-0.9,0.5-1.8,1-2.7,1.5c0,0-0.1,0-0.1,0
			c-0.2-0.2-0.4-0.3-0.6-0.5c-0.3-0.2-0.5-0.5-0.8-0.7c-0.2-0.2-0.5-0.4-0.8-0.4c-0.1,0-0.3-0.1-0.4-0.1c-0.2,0-0.5,0-0.7,0
			c-0.3,0.1-0.6,0.2-0.9,0.4c-0.2,0.1-0.4,0.2-0.5,0.4c-0.2,0.3-0.4,0.5-0.6,0.8c-0.2,0.2-0.3,0.5-0.5,0.7c-0.1,0.1-0.1,0.2-0.2,0.3
			c-1-0.3-2-0.6-3.1-0.9c0,0,0,0,0-0.1c0-0.6-0.1-1.1-0.1-1.7c0-0.4-0.1-0.8-0.4-1.2c-0.1-0.2-0.3-0.4-0.5-0.6
			c-0.3-0.2-0.5-0.4-0.8-0.4c-0.1,0-0.2,0-0.3-0.1c-0.2,0-0.4,0-0.6,0c-0.3,0-0.5,0.1-0.8,0.1c-0.4,0.1-0.7,0.1-1.1,0.2
			c-0.1,0-0.1,0-0.1-0.1c-0.5-0.9-1-1.8-1.5-2.6c0,0,0,0,0-0.1c0.1-0.2,0.3-0.3,0.4-0.5c0.3-0.3,0.6-0.6,0.8-1
			c0.2-0.2,0.3-0.4,0.4-0.7c0.1-0.2,0.1-0.4,0.1-0.6c0-0.3,0-0.5,0-0.8c-0.1-0.3-0.2-0.6-0.3-0.8c-0.1-0.2-0.3-0.4-0.4-0.5
			c-0.3-0.2-0.5-0.4-0.8-0.6c-0.2-0.2-0.5-0.3-0.7-0.5c-0.1,0-0.1-0.1-0.2-0.1c0.3-1,0.6-2,0.9-3.1c0,0,0,0,0,0
			c0.6,0,1.2-0.1,1.8-0.1c0.3,0,0.6-0.1,0.9-0.2c0.3-0.2,0.6-0.4,0.9-0.7c0.2-0.2,0.3-0.4,0.4-0.6c0.1-0.2,0.1-0.3,0.1-0.5
			c0-0.2,0-0.4,0-0.7c0-0.3-0.1-0.7-0.2-1c-0.1-0.3-0.1-0.6-0.2-0.9c0.9-0.5,1.8-1,2.8-1.6c0.1,0.1,0.2,0.2,0.3,0.3
			c0.3,0.3,0.7,0.6,1,0.9c0.2,0.2,0.5,0.4,0.8,0.5c0.3,0.1,0.6,0.2,0.9,0.2c0.3,0,0.6-0.1,0.9-0.2c0.3-0.1,0.6-0.3,0.8-0.5
			c0.2-0.2,0.3-0.4,0.5-0.7c0.2-0.2,0.3-0.5,0.5-0.7C52.1,43.6,52.2,43.4,52.2,43.3z M52.1,49.8c-1.5-0.4-2.9-0.2-4.2,0.5
			c-1.2,0.7-2.1,1.7-2.5,3c-0.5,1.4-0.4,2.8,0.3,4.2c0.7,1.3,1.8,2.3,3.2,2.7c1.4,0.5,2.8,0.3,4.2-0.4c1.3-0.7,2.2-1.8,2.6-3.2
			c0.4-1.4,0.3-2.8-0.4-4.1C54.7,51.1,53.6,50.2,52.1,49.8z"/>
		<path fill="none" stroke="#989898" stroke-width="1.5" stroke-miterlimit="10" d="M49.8,58.1c-0.8-0.2-1.5-0.7-1.9-1.5
			c-0.4-0.8-0.5-1.6-0.3-2.4c0.2-0.9,0.8-1.5,1.6-1.9c0.7-0.4,1.5-0.5,2.3-0.2c0.8,0.2,1.5,0.7,1.9,1.5c0.5,0.8,0.5,1.7,0.2,2.6
			C53.1,57.5,51.5,58.5,49.8,58.1z"/>
	</g>
</g>
<g>
	<path fill="none" stroke="#989898" stroke-width="1.5" stroke-miterlimit="10" d="M39.4,15H6.2c-1.1,1.5-1.8,3.1-2.7,4.8h39.3v42.8
		H2.1l0.8,1.7c1.9,3.7,4.3,7.1,7.1,10.2h7.4h3.9v-2.4h-3.6v-4.8h21.6c5.4,0,9.3-4.2,9.3-9.3V22.4C48.7,17.3,44.8,15,39.4,15z"/>
	<path fill="none" stroke="#989898" stroke-width="1.5" stroke-miterlimit="10" d="M53.1,17.6h-1.8c0-1.3-0.5-2.6-1.5-3.5
		c-0.9-0.9-2.2-1.5-3.5-1.5v-1.9C50.1,10.7,53.1,13.8,53.1,17.6L53.1,17.6z"/>
	<path fill="none" stroke="#989898" stroke-width="1.5" stroke-miterlimit="10" d="M56.7,17.6h-1.8c0-4.8-3.8-8.7-8.5-8.7V7
		C52,7,56.6,11.7,56.7,17.6L56.7,17.6z"/>
	<path fill="none" stroke="#989898" stroke-width="1.5" stroke-miterlimit="10" d="M61.6,17.6h-2.7c-0.1-7.1-5.7-12.8-12.6-12.9V1.9
		C54.7,2,61.6,9,61.6,17.6L61.6,17.6z"/>
</g>
</svg>
