<?xml version="1.0" encoding="utf-8"?>
<!-- Generator: Adobe Illustrator 19.2.1, SVG Export Plug-In . SVG Version: 6.00 Build 0)  -->
<!DOCTYPE svg PUBLIC "-//W3C//DTD SVG 1.1//EN" "http://www.w3.org/Graphics/SVG/1.1/DTD/svg11.dtd">
<svg version="1.1" id="Capa_1" xmlns="http://www.w3.org/2000/svg" xmlns:xlink="http://www.w3.org/1999/xlink" x="0px" y="0px"
	 viewBox="0 0 63.7 60.9" enable-background="new 0 0 63.7 60.9" xml:space="preserve">
<g display="none">
	<path display="inline" fill="none" stroke="#989898" stroke-width="1.5" stroke-miterlimit="10" d="M30.6-0.9
		C18.9-1.1,8.2,3.3-0.8,11.8c-1.6,1.5-1.7,3.5-0.3,4.9c1.3,1.3,3.3,1.2,4.9-0.3c8.1-7.6,17.6-11.7,29-10.9
		c10.5,0.7,19.6,5.2,27.2,12.6c1,1,2.1,1.5,3.4,1.1c1.2-0.3,1.9-1.1,2.2-2.3c0.3-1.3-0.2-2.4-1.2-3.3C61,10.2,57.1,7.3,52.7,5
		C46.1,1.4,39.1-0.6,30.6-0.9z"/>
	<path display="inline" fill="none" stroke="#989898" stroke-width="1.5" stroke-miterlimit="10" d="M32.2,13.3
		c-9.1-0.2-16.4,2.8-22.5,8.4c-0.9,0.8-1.5,1.8-1.3,3c0.2,1.3,0.8,2.2,2.1,2.7c1.4,0.5,2.6,0.2,3.6-0.8c2.5-2.5,5.5-4.4,8.9-5.6
		c8.2-2.9,15.9-1.3,23.2,3.6c1.3,0.9,2.5,2,3.7,3.1c1.5,1.3,3.5,1.5,4.7,0.2c1.2-1.2,1.1-3.3-0.2-4.6C49.2,18.3,43.1,15,36,13.8
		C34.6,13.5,33.2,13.4,32.2,13.3z"/>
	<path display="inline" fill="none" stroke="#989898" stroke-width="1.5" stroke-miterlimit="10" d="M18.1,34.9
		c0.1,1.7,0.6,2.7,1.8,3.3c1.3,0.6,2.6,0.4,3.6-0.6c2-1.9,4.3-3.1,7.1-3.3c3.7-0.3,6.8,1.2,9.6,3.6c1.6,1.5,3.5,1.6,4.7,0.3
		c1.2-1.3,1-3.2-0.6-4.7c-7-6.8-18.1-7.1-24.8-0.6C18.8,33.5,18.4,34.4,18.1,34.9z"/>
	<g display="inline">
		<path fill="none" stroke="#989898" stroke-width="1.5" stroke-miterlimit="10" d="M30.6,43c0.9,0,1.7,0,2.6,0c0,0,0,0,0,0
			c0.2,0.5,0.3,0.9,0.5,1.4c0.1,0.3,0.3,0.5,0.5,0.8c0.2,0.1,0.3,0.3,0.5,0.3c0.2,0.1,0.4,0.2,0.6,0.2c0.3,0,0.6,0,0.8-0.1
			c0.2-0.1,0.4-0.2,0.7-0.3c0.2-0.1,0.4-0.2,0.6-0.3c0.1,0,0.1-0.1,0.2-0.1c0.6,0.6,1.2,1.2,1.8,1.8c0,0,0,0,0,0.1
			c-0.1,0.1-0.1,0.3-0.2,0.4c-0.1,0.3-0.3,0.6-0.4,0.9c-0.1,0.2-0.2,0.5-0.2,0.8c0,0.1,0,0.2,0,0.4c0,0.3,0.1,0.5,0.3,0.7
			c0.1,0.2,0.3,0.4,0.4,0.5c0.1,0.1,0.3,0.2,0.5,0.3c0.4,0.1,0.8,0.3,1.1,0.4c0.1,0,0.2,0.1,0.3,0.1c0,0.9,0,1.7,0,2.6
			c0,0,0,0-0.1,0c-0.4,0.1-0.8,0.3-1.2,0.4c-0.3,0.1-0.6,0.3-0.8,0.5c-0.1,0.1-0.2,0.2-0.3,0.4c-0.2,0.3-0.3,0.6-0.3,1
			c0,0.1,0,0.2,0,0.3c0,0.2,0.1,0.4,0.2,0.6c0.1,0.2,0.2,0.4,0.3,0.6c0.1,0.2,0.2,0.5,0.3,0.7c0,0,0,0,0,0.1
			c-0.6,0.6-1.2,1.2-1.7,1.7c0,0,0,0-0.1,0c-0.2-0.1-0.4-0.2-0.6-0.3c-0.3-0.1-0.5-0.2-0.8-0.4c-0.2-0.1-0.5-0.2-0.7-0.2
			c-0.1,0-0.2,0-0.3,0c-0.2,0-0.4,0.1-0.6,0.2c-0.2,0.1-0.5,0.3-0.6,0.5c-0.1,0.1-0.2,0.3-0.3,0.4c-0.1,0.2-0.2,0.5-0.3,0.7
			c-0.1,0.2-0.2,0.4-0.2,0.6c0,0.1-0.1,0.2-0.1,0.2c-0.9,0-1.7,0-2.6,0c0,0,0,0,0-0.1c-0.2-0.4-0.3-0.8-0.5-1.3
			c-0.1-0.3-0.3-0.6-0.5-0.8c-0.2-0.1-0.3-0.3-0.5-0.4c-0.2-0.1-0.5-0.2-0.8-0.2c-0.1,0-0.2,0-0.3,0c-0.2,0-0.3,0.1-0.5,0.1
			c-0.2,0.1-0.4,0.2-0.6,0.3c-0.3,0.1-0.5,0.2-0.8,0.4c0,0-0.1,0-0.1,0c-0.6-0.6-1.1-1.1-1.7-1.7c0,0,0,0,0,0
			c0.1-0.1,0.1-0.3,0.2-0.4c0.1-0.3,0.3-0.6,0.4-0.9c0.1-0.2,0.1-0.4,0.2-0.6c0-0.2,0-0.3,0-0.5c0-0.2-0.1-0.4-0.2-0.6
			c-0.1-0.2-0.2-0.4-0.4-0.6c-0.1-0.1-0.3-0.2-0.5-0.3c-0.3-0.1-0.5-0.2-0.8-0.3c-0.2-0.1-0.4-0.2-0.6-0.2c-0.1,0-0.1,0-0.2-0.1
			c0-0.9,0-1.7,0-2.6c0,0,0,0,0,0c0.4-0.2,0.9-0.3,1.3-0.5c0.2-0.1,0.5-0.2,0.6-0.4c0.2-0.2,0.4-0.5,0.5-0.7
			c0.1-0.2,0.1-0.4,0.1-0.6c0-0.1,0-0.3,0-0.4c0-0.2-0.1-0.4-0.1-0.5c-0.1-0.2-0.2-0.5-0.3-0.7c-0.1-0.2-0.2-0.5-0.3-0.7
			c0.6-0.6,1.2-1.2,1.8-1.8c0.1,0,0.2,0.1,0.3,0.1c0.3,0.2,0.6,0.3,1,0.5c0.2,0.1,0.5,0.2,0.7,0.2c0.3,0,0.5,0,0.8-0.1
			c0.2-0.1,0.5-0.2,0.7-0.4c0.2-0.2,0.4-0.4,0.5-0.6c0.1-0.2,0.2-0.4,0.2-0.6c0.1-0.2,0.2-0.4,0.2-0.6C30.5,43.3,30.5,43.1,30.6,43z
			 M31.9,48.1c-1.2,0-2.3,0.4-3.1,1.3c-0.8,0.8-1.2,1.8-1.3,2.9c-0.1,1.2,0.3,2.3,1.2,3.2c0.8,0.9,1.9,1.4,3.1,1.4
			c1.2,0,2.3-0.4,3.1-1.2c0.9-0.8,1.3-1.8,1.4-3c0-1.2-0.4-2.2-1.2-3.1C34.2,48.5,33.1,48.1,31.9,48.1z"/>
	</g>
</g>
<g id="tools_xA0_Trazado_de_recorte_5_" display="none">
	<g display="inline">
		<path fill="none" stroke="#989898" stroke-width="1.5" stroke-miterlimit="10" d="M43,34.6c-0.9-0.9-2.3-0.9-3.1,0l-1.7,1.7
			l-2.8-2.8l4-4.3c5.5,3.1,12.6,2.4,17.3-2.3c4.3-4.3,5.3-10.5,3.1-15.7l-9.3,9.2l-7.8-7.8l9.3-9.2c-5.2-2.1-11.4-1.1-15.7,3.2
			c-5.1,5.1-5.5,13.1-1.4,18.7l-4.2,3.5L15.9,14l-0.1-4.5L7.2,4.3L3,8.5L8.2,17l4.5,0l14.4,14.4L5.5,49.6c-1.7,1.7-1.7,4.5,0,6.3
			l1.6,1.6c1.7,1.7,4.5,1.7,6.3,0l19-20.8l2.7,2.7l-1.5,1.5c-0.9,0.9-0.9,2.3,0,3.1l13.8,13.9c0.9,0.9,2.3,0.9,3.1,0l6.3-6.3
			c0.9-0.9,0.9-2.3,0-3.1L43,34.6z M10.7,54.9c-0.9,0.9-2.3,0.9-3.1,0c-0.9-0.9-0.9-2.3,0-3.1c0.9-0.9,2.3-0.9,3.1,0
			C11.6,52.6,11.6,54.1,10.7,54.9z"/>
	</g>
</g>
<g>
	<g>
		<path fill="none" stroke="#989898" stroke-width="1.5" stroke-miterlimit="10" d="M19.9,1.9c1.9,0,3.9,0,5.8,0c0,0,0,0.1,0,0.1
			c0.4,1,0.7,2.1,1.1,3.1c0.2,0.7,0.6,1.2,1.2,1.7c0.4,0.3,0.8,0.6,1.2,0.8c0.5,0.2,1,0.4,1.5,0.4c0.6,0,1.3,0,1.9-0.3
			c0.5-0.2,1-0.5,1.5-0.7c0.5-0.2,0.9-0.4,1.4-0.7c0.2-0.1,0.3-0.1,0.5-0.2c1.4,1.3,2.7,2.7,4,4c0,0,0,0.1,0,0.1
			c-0.1,0.3-0.3,0.6-0.4,0.9c-0.3,0.7-0.7,1.4-1,2.1c-0.3,0.6-0.4,1.2-0.4,1.8c0,0.3,0,0.5,0.1,0.8c0.1,0.6,0.3,1.1,0.6,1.6
			c0.3,0.4,0.6,0.8,1,1.1c0.3,0.3,0.7,0.5,1.1,0.6c0.9,0.3,1.7,0.6,2.6,0.9c0.2,0.1,0.5,0.2,0.8,0.3c0,1.9,0,3.9,0,5.8
			c0,0-0.1,0-0.1,0c-0.9,0.3-1.9,0.7-2.8,1c-0.7,0.2-1.3,0.6-1.8,1.1c-0.3,0.3-0.5,0.6-0.7,0.9c-0.4,0.7-0.6,1.4-0.7,2.3
			c0,0.2,0,0.4,0,0.7c0,0.4,0.2,0.9,0.4,1.3c0.2,0.5,0.4,0.9,0.6,1.4c0.3,0.5,0.5,1.1,0.8,1.6c0,0.1,0,0.1,0,0.2
			c-1.3,1.3-2.6,2.6-4,4c-0.1,0.1-0.1,0.1-0.2,0c-0.4-0.2-0.8-0.4-1.3-0.6c-0.6-0.3-1.2-0.6-1.7-0.8c-0.5-0.2-1.1-0.4-1.7-0.4
			c-0.2,0-0.5,0-0.7,0c-0.4,0-0.9,0.2-1.3,0.4c-0.6,0.3-1,0.6-1.4,1.1c-0.3,0.3-0.5,0.6-0.7,1c-0.2,0.5-0.4,1.1-0.6,1.6
			c-0.2,0.5-0.4,1-0.5,1.4c-0.1,0.2-0.1,0.4-0.2,0.6c-1.9,0-3.9,0-5.8,0c0,0,0-0.1,0-0.1c-0.3-1-0.7-1.9-1-2.9
			c-0.3-0.7-0.7-1.4-1.2-1.9c-0.4-0.3-0.8-0.6-1.2-0.8c-0.5-0.2-1.1-0.4-1.7-0.4c-0.2,0-0.4,0-0.6,0c-0.4,0-0.7,0.1-1.1,0.3
			c-0.4,0.2-0.9,0.4-1.3,0.6c-0.6,0.3-1.2,0.6-1.8,0.9c-0.1,0.1-0.2,0-0.2,0c-1.3-1.3-2.6-2.6-3.9-3.9c0,0-0.1-0.1-0.1-0.1
			c0.2-0.3,0.3-0.7,0.5-1c0.3-0.7,0.7-1.4,1-2.1c0.2-0.5,0.3-0.9,0.4-1.4c0-0.3,0-0.7,0-1.1c0-0.5-0.2-0.9-0.4-1.3
			c-0.2-0.5-0.6-0.9-1-1.3c-0.3-0.3-0.6-0.5-1-0.7c-0.6-0.2-1.2-0.4-1.7-0.7c-0.5-0.2-1-0.4-1.5-0.5c-0.1,0-0.3-0.1-0.4-0.1
			c0-1.9,0-3.9,0-5.8c0,0,0,0,0,0c1-0.4,2-0.7,3.1-1.1c0.5-0.2,1-0.5,1.5-0.9c0.5-0.5,0.9-1,1.2-1.7c0.2-0.4,0.3-0.9,0.3-1.3
			c0-0.3,0-0.6,0-0.9c0-0.4-0.1-0.8-0.3-1.2c-0.2-0.6-0.5-1.1-0.8-1.7c-0.2-0.5-0.5-1-0.7-1.5C7,8.9,8.4,7.5,9.7,6.1
			c0.2,0.1,0.5,0.2,0.7,0.3c0.7,0.3,1.5,0.7,2.2,1.1c0.5,0.3,1.1,0.4,1.6,0.5c0.6,0,1.2,0,1.7-0.2c0.6-0.2,1.1-0.5,1.5-0.8
			c0.4-0.4,0.8-0.8,1.1-1.3c0.2-0.5,0.4-1,0.6-1.4c0.2-0.5,0.3-1,0.5-1.4C19.8,2.5,19.8,2.2,19.9,1.9z M22.9,13.4
			c-2.8,0-5.2,1-7.1,2.9c-1.8,1.8-2.8,4-2.9,6.6c-0.1,2.8,0.8,5.2,2.6,7.2c1.9,2,4.2,3.1,7,3.2c2.8,0.1,5.2-0.8,7.2-2.7
			c2-1.9,3-4.2,3.1-6.9c0.1-2.7-0.8-5.1-2.7-7.1C28.1,14.5,25.7,13.5,22.9,13.4z"/>
		<path fill="none" stroke="#989898" stroke-width="1.5" stroke-miterlimit="10" d="M22.8,29.1c-1.6,0-3-0.6-4.1-1.7
			c-1.1-1.1-1.7-2.5-1.7-4.1c0-1.6,0.6-3.1,1.8-4.2c1.1-1.1,2.5-1.6,4-1.6c1.6,0,3,0.6,4.1,1.7c1.2,1.2,1.8,2.7,1.7,4.4
			C28.5,26.5,26.1,29.2,22.8,29.1z"/>
	</g>
	<g>
		<path fill="none" stroke="#989898" stroke-width="1.5" stroke-miterlimit="10" d="M52.2,35.6c1,0.3,2,0.6,3.1,0.9c0,0,0,0,0,0
			c0,0.6,0.1,1.2,0.1,1.8c0,0.4,0.1,0.7,0.4,1.1c0.1,0.2,0.3,0.4,0.5,0.6c0.2,0.2,0.5,0.3,0.7,0.4c0.3,0.1,0.7,0.2,1,0.1
			c0.3,0,0.6-0.1,0.9-0.1c0.3,0,0.5-0.1,0.8-0.1c0.1,0,0.2,0,0.3,0c0.5,0.9,1,1.8,1.5,2.7c0,0,0,0.1,0,0.1c-0.1,0.1-0.2,0.3-0.4,0.4
			c-0.3,0.3-0.5,0.6-0.8,0.9c-0.2,0.3-0.4,0.5-0.5,0.9c0,0.1-0.1,0.3-0.1,0.4c0,0.3,0,0.6,0.1,0.9c0.1,0.3,0.2,0.5,0.4,0.7
			c0.1,0.2,0.3,0.4,0.5,0.5c0.4,0.3,0.8,0.6,1.2,0.9c0.1,0.1,0.2,0.2,0.4,0.2c-0.3,1-0.6,2-0.9,3.1c0,0-0.1,0-0.1,0
			c-0.5,0-1.1,0.1-1.6,0.1c-0.4,0-0.8,0.1-1.1,0.3c-0.2,0.1-0.4,0.2-0.5,0.4c-0.3,0.3-0.5,0.7-0.7,1.1c0,0.1-0.1,0.2-0.1,0.4
			c0,0.2,0,0.5,0,0.7c0,0.3,0.1,0.5,0.1,0.8c0.1,0.3,0.1,0.6,0.2,1c0,0,0,0.1,0,0.1c-0.9,0.5-1.8,1-2.7,1.5c0,0-0.1,0-0.1,0
			c-0.2-0.2-0.4-0.3-0.6-0.5c-0.3-0.2-0.5-0.5-0.8-0.7c-0.2-0.2-0.5-0.4-0.8-0.4c-0.1,0-0.3-0.1-0.4-0.1c-0.2,0-0.5,0-0.7,0
			c-0.3,0.1-0.6,0.2-0.9,0.4c-0.2,0.1-0.4,0.2-0.5,0.4c-0.2,0.3-0.4,0.5-0.6,0.8c-0.2,0.2-0.3,0.5-0.5,0.7C49.1,58.8,49,58.9,49,59
			c-1-0.3-2-0.6-3.1-0.9c0,0,0,0,0-0.1c0-0.6-0.1-1.1-0.1-1.7c0-0.4-0.1-0.8-0.4-1.2c-0.1-0.2-0.3-0.4-0.5-0.6
			c-0.3-0.2-0.5-0.4-0.8-0.4c-0.1,0-0.2,0-0.3-0.1c-0.2,0-0.4,0-0.6,0c-0.3,0-0.5,0.1-0.8,0.1c-0.4,0.1-0.7,0.1-1.1,0.2
			c-0.1,0-0.1,0-0.1-0.1c-0.5-0.9-1-1.8-1.5-2.6c0,0,0,0,0-0.1c0.1-0.2,0.3-0.3,0.4-0.5c0.3-0.3,0.6-0.6,0.8-1
			c0.2-0.2,0.3-0.4,0.4-0.7c0.1-0.2,0.1-0.4,0.1-0.6c0-0.3,0-0.5,0-0.8c-0.1-0.3-0.2-0.6-0.3-0.8c-0.1-0.2-0.3-0.4-0.4-0.5
			c-0.3-0.2-0.5-0.4-0.8-0.6c-0.2-0.2-0.5-0.3-0.7-0.5c-0.1,0-0.1-0.1-0.2-0.1c0.3-1,0.6-2,0.9-3.1c0,0,0,0,0,0
			c0.6,0,1.2-0.1,1.8-0.1c0.3,0,0.6-0.1,0.9-0.2c0.3-0.2,0.6-0.4,0.9-0.7c0.2-0.2,0.3-0.4,0.4-0.6c0.1-0.2,0.1-0.3,0.1-0.5
			c0-0.2,0-0.4,0-0.7c0-0.3-0.1-0.7-0.2-1c-0.1-0.3-0.1-0.6-0.2-0.9c0.9-0.5,1.8-1,2.8-1.6c0.1,0.1,0.2,0.2,0.3,0.3
			c0.3,0.3,0.7,0.6,1,0.9c0.2,0.2,0.5,0.4,0.8,0.5c0.3,0.1,0.6,0.2,0.9,0.2c0.3,0,0.6-0.1,0.9-0.2c0.3-0.1,0.6-0.3,0.8-0.5
			c0.2-0.2,0.3-0.4,0.5-0.7c0.2-0.2,0.3-0.5,0.5-0.7C52.1,35.8,52.2,35.7,52.2,35.6z M52.1,42.1c-1.5-0.4-2.9-0.2-4.2,0.5
			c-1.2,0.7-2.1,1.7-2.5,3c-0.5,1.4-0.4,2.8,0.3,4.2c0.7,1.3,1.8,2.3,3.2,2.7c1.4,0.5,2.8,0.3,4.2-0.4c1.3-0.7,2.2-1.8,2.6-3.2
			c0.4-1.4,0.3-2.8-0.4-4.1C54.7,43.4,53.6,42.5,52.1,42.1z"/>
		<path fill="none" stroke="#989898" stroke-width="1.5" stroke-miterlimit="10" d="M49.8,50.3c-0.8-0.2-1.5-0.7-1.9-1.5
			c-0.4-0.8-0.5-1.6-0.3-2.4c0.2-0.9,0.8-1.5,1.6-1.9c0.7-0.4,1.5-0.5,2.3-0.2c0.8,0.2,1.5,0.7,1.9,1.5c0.5,0.8,0.5,1.7,0.2,2.6
			C53.1,49.8,51.5,50.8,49.8,50.3z"/>
	</g>
</g>
</svg>
