<?xml version="1.0" encoding="utf-8"?>
<!-- Generator: Adobe Illustrator 19.2.1, SVG Export Plug-In . SVG Version: 6.00 Build 0)  -->
<!DOCTYPE svg PUBLIC "-//W3C//DTD SVG 1.1//EN" "http://www.w3.org/Graphics/SVG/1.1/DTD/svg11.dtd">
<svg version="1.1" id="Capa_1" xmlns="http://www.w3.org/2000/svg" xmlns:xlink="http://www.w3.org/1999/xlink" x="0px" y="0px"
	 viewBox="0 0 61.2 60.4" enable-background="new 0 0 61.2 60.4" xml:space="preserve">
<g display="none">
	<path display="inline" fill="none" stroke="#989898" stroke-width="1.5" stroke-miterlimit="10" d="M29.3-1.2
		C17.7-1.4,6.9,3-2.1,11.5c-1.6,1.5-1.7,3.5-0.3,4.9c1.3,1.3,3.3,1.2,4.9-0.3c8.1-7.6,17.6-11.7,29-10.9C42.2,6,51.2,10.5,58.8,17.9
		c1,1,2.1,1.5,3.4,1.1c1.2-0.3,1.9-1.1,2.2-2.3c0.3-1.3-0.2-2.4-1.2-3.3c-3.5-3.5-7.5-6.4-11.8-8.7C44.9,1.2,37.8-0.8,29.3-1.2z"/>
	<path display="inline" fill="none" stroke="#989898" stroke-width="1.5" stroke-miterlimit="10" d="M31,13
		c-9.1-0.2-16.4,2.8-22.5,8.4c-0.9,0.8-1.5,1.8-1.3,3c0.2,1.3,0.8,2.2,2.1,2.7c1.4,0.5,2.6,0.2,3.6-0.8c2.5-2.5,5.5-4.4,8.9-5.6
		c8.2-2.9,15.9-1.3,23.2,3.6c1.3,0.9,2.5,2,3.7,3.1c1.5,1.3,3.5,1.5,4.7,0.2c1.2-1.2,1.1-3.3-0.2-4.6c-5.1-5.1-11.2-8.3-18.3-9.6
		C33.3,13.3,31.9,13.2,31,13z"/>
	<path display="inline" fill="none" stroke="#989898" stroke-width="1.5" stroke-miterlimit="10" d="M16.9,34.6
		c0.1,1.7,0.6,2.7,1.8,3.3c1.3,0.6,2.6,0.4,3.6-0.6c2-1.9,4.3-3.1,7.1-3.3c3.7-0.3,6.8,1.2,9.6,3.6c1.6,1.5,3.5,1.6,4.7,0.3
		c1.2-1.3,1-3.2-0.6-4.7c-7-6.8-18.1-7.1-24.8-0.6C17.5,33.2,17.2,34.2,16.9,34.6z"/>
	<g display="inline">
		<path fill="none" stroke="#989898" stroke-width="1.5" stroke-miterlimit="10" d="M29.3,42.8c0.9,0,1.7,0,2.6,0c0,0,0,0,0,0
			c0.2,0.5,0.3,0.9,0.5,1.4c0.1,0.3,0.3,0.5,0.5,0.8c0.2,0.1,0.3,0.3,0.5,0.3c0.2,0.1,0.4,0.2,0.6,0.2c0.3,0,0.6,0,0.8-0.1
			c0.2-0.1,0.4-0.2,0.7-0.3c0.2-0.1,0.4-0.2,0.6-0.3c0.1,0,0.1-0.1,0.2-0.1c0.6,0.6,1.2,1.2,1.8,1.8c0,0,0,0,0,0.1
			c-0.1,0.1-0.1,0.3-0.2,0.4c-0.1,0.3-0.3,0.6-0.4,0.9c-0.1,0.2-0.2,0.5-0.2,0.8c0,0.1,0,0.2,0,0.4c0,0.3,0.1,0.5,0.3,0.7
			c0.1,0.2,0.3,0.4,0.4,0.5c0.1,0.1,0.3,0.2,0.5,0.3c0.4,0.1,0.8,0.3,1.1,0.4c0.1,0,0.2,0.1,0.3,0.1c0,0.9,0,1.7,0,2.6
			c0,0,0,0-0.1,0c-0.4,0.1-0.8,0.3-1.2,0.4c-0.3,0.1-0.6,0.3-0.8,0.5c-0.1,0.1-0.2,0.2-0.3,0.4c-0.2,0.3-0.3,0.6-0.3,1
			c0,0.1,0,0.2,0,0.3c0,0.2,0.1,0.4,0.2,0.6c0.1,0.2,0.2,0.4,0.3,0.6c0.1,0.2,0.2,0.5,0.3,0.7c0,0,0,0,0,0.1
			c-0.6,0.6-1.2,1.2-1.7,1.7c0,0,0,0-0.1,0c-0.2-0.1-0.4-0.2-0.6-0.3c-0.3-0.1-0.5-0.2-0.8-0.4c-0.2-0.1-0.5-0.2-0.7-0.2
			c-0.1,0-0.2,0-0.3,0c-0.2,0-0.4,0.1-0.6,0.2c-0.2,0.1-0.5,0.3-0.6,0.5c-0.1,0.1-0.2,0.3-0.3,0.4c-0.1,0.2-0.2,0.5-0.3,0.7
			c-0.1,0.2-0.2,0.4-0.2,0.6c0,0.1-0.1,0.2-0.1,0.2c-0.9,0-1.7,0-2.6,0c0,0,0,0,0-0.1c-0.2-0.4-0.3-0.8-0.5-1.3
			c-0.1-0.3-0.3-0.6-0.5-0.8c-0.2-0.1-0.3-0.3-0.5-0.4c-0.2-0.1-0.5-0.2-0.8-0.2c-0.1,0-0.2,0-0.3,0c-0.2,0-0.3,0.1-0.5,0.1
			c-0.2,0.1-0.4,0.2-0.6,0.3c-0.3,0.1-0.5,0.2-0.8,0.4c0,0-0.1,0-0.1,0c-0.6-0.6-1.1-1.1-1.7-1.7c0,0,0,0,0,0
			c0.1-0.1,0.1-0.3,0.2-0.4c0.1-0.3,0.3-0.6,0.4-0.9c0.1-0.2,0.1-0.4,0.2-0.6c0-0.2,0-0.3,0-0.5c0-0.2-0.1-0.4-0.2-0.6
			c-0.1-0.2-0.2-0.4-0.4-0.6c-0.1-0.1-0.3-0.2-0.5-0.3c-0.3-0.1-0.5-0.2-0.8-0.3c-0.2-0.1-0.4-0.2-0.6-0.2c-0.1,0-0.1,0-0.2-0.1
			c0-0.9,0-1.7,0-2.6c0,0,0,0,0,0c0.4-0.2,0.9-0.3,1.3-0.5c0.2-0.1,0.5-0.2,0.6-0.4c0.2-0.2,0.4-0.5,0.5-0.7
			c0.1-0.2,0.1-0.4,0.1-0.6c0-0.1,0-0.3,0-0.4c0-0.2-0.1-0.4-0.1-0.5c-0.1-0.2-0.2-0.5-0.3-0.7c-0.1-0.2-0.2-0.5-0.3-0.7
			c0.6-0.6,1.2-1.2,1.8-1.8c0.1,0,0.2,0.1,0.3,0.1c0.3,0.2,0.6,0.3,1,0.5c0.2,0.1,0.5,0.2,0.7,0.2c0.3,0,0.5,0,0.8-0.1
			c0.2-0.1,0.5-0.2,0.7-0.4c0.2-0.2,0.4-0.4,0.5-0.6c0.1-0.2,0.2-0.4,0.2-0.6c0.1-0.2,0.2-0.4,0.2-0.6C29.3,43,29.3,42.9,29.3,42.8z
			 M30.7,47.8c-1.2,0-2.3,0.4-3.1,1.3c-0.8,0.8-1.2,1.8-1.3,2.9c-0.1,1.2,0.3,2.3,1.2,3.2c0.8,0.9,1.9,1.4,3.1,1.4
			c1.2,0,2.3-0.4,3.1-1.2c0.9-0.8,1.3-1.8,1.4-3c0-1.2-0.4-2.2-1.2-3.1C32.9,48.3,31.9,47.8,30.7,47.8z"/>
	</g>
</g>
<g id="tools_xA0_Trazado_de_recorte_5_" display="none">
	<g display="inline">
		<path fill="none" stroke="#989898" stroke-width="1.5" stroke-miterlimit="10" d="M41.7,34.4c-0.9-0.9-2.3-0.9-3.1,0l-1.7,1.7
			L34,33.2l4-4.3c5.5,3.1,12.6,2.4,17.3-2.3c4.3-4.3,5.3-10.5,3.1-15.7L49,20l-7.8-7.8L50.5,3c-5.2-2.1-11.4-1.1-15.7,3.2
			c-5.1,5.1-5.5,13.1-1.4,18.7l-4.2,3.5L14.7,13.8l-0.1-4.5L6,4L1.7,8.3L7,16.7l4.5,0l14.4,14.4L4.3,49.3c-1.7,1.7-1.7,4.5,0,6.3
			l1.6,1.6c1.7,1.7,4.5,1.7,6.3,0l19-20.8l2.7,2.7l-1.5,1.5c-0.9,0.9-0.9,2.3,0,3.1L46,57.7c0.9,0.9,2.3,0.9,3.1,0l6.3-6.3
			c0.9-0.9,0.9-2.3,0-3.1L41.7,34.4z M9.5,54.7c-0.9,0.9-2.3,0.9-3.1,0c-0.9-0.9-0.9-2.3,0-3.1c0.9-0.9,2.3-0.9,3.1,0
			C10.3,52.4,10.3,53.8,9.5,54.7z"/>
	</g>
</g>
<g display="none">
	<g display="inline">
		<path fill="none" stroke="#989898" stroke-width="1.5" stroke-miterlimit="10" d="M18.7,1.7c1.9,0,3.9,0,5.8,0c0,0,0,0.1,0,0.1
			c0.4,1,0.7,2.1,1.1,3.1c0.2,0.7,0.6,1.2,1.2,1.7c0.4,0.3,0.8,0.6,1.2,0.8c0.5,0.2,1,0.4,1.5,0.4c0.6,0,1.3,0,1.9-0.3
			c0.5-0.2,1-0.5,1.5-0.7c0.5-0.2,0.9-0.4,1.4-0.7C34.4,6,34.6,6,34.7,5.9c1.4,1.3,2.7,2.7,4,4c0,0,0,0.1,0,0.1
			c-0.1,0.3-0.3,0.6-0.4,0.9c-0.3,0.7-0.7,1.4-1,2.1c-0.3,0.6-0.4,1.2-0.4,1.8c0,0.3,0,0.5,0.1,0.8c0.1,0.6,0.3,1.1,0.6,1.6
			c0.3,0.4,0.6,0.8,1,1.1c0.3,0.3,0.7,0.5,1.1,0.6c0.9,0.3,1.7,0.6,2.6,0.9c0.2,0.1,0.5,0.2,0.8,0.3c0,1.9,0,3.9,0,5.8
			c0,0-0.1,0-0.1,0c-0.9,0.3-1.9,0.7-2.8,1c-0.7,0.2-1.3,0.6-1.8,1.1c-0.3,0.3-0.5,0.6-0.7,0.9c-0.4,0.7-0.6,1.4-0.7,2.3
			c0,0.2,0,0.4,0,0.7c0,0.4,0.2,0.9,0.4,1.3c0.2,0.5,0.4,0.9,0.6,1.4c0.3,0.5,0.5,1.1,0.8,1.6c0,0.1,0,0.1,0,0.2
			c-1.3,1.3-2.6,2.6-4,4c-0.1,0.1-0.1,0.1-0.2,0c-0.4-0.2-0.8-0.4-1.3-0.6c-0.6-0.3-1.2-0.6-1.7-0.8c-0.5-0.2-1.1-0.4-1.7-0.4
			c-0.2,0-0.5,0-0.7,0c-0.4,0-0.9,0.2-1.3,0.4c-0.6,0.3-1,0.6-1.4,1.1c-0.3,0.3-0.5,0.6-0.7,1c-0.2,0.5-0.4,1.1-0.6,1.6
			c-0.2,0.5-0.4,1-0.5,1.4c-0.1,0.2-0.1,0.4-0.2,0.6c-1.9,0-3.9,0-5.8,0c0,0,0-0.1,0-0.1c-0.3-1-0.7-1.9-1-2.9
			c-0.3-0.7-0.7-1.4-1.2-1.9c-0.4-0.3-0.8-0.6-1.2-0.8c-0.5-0.2-1.1-0.4-1.7-0.4c-0.2,0-0.4,0-0.6,0c-0.4,0-0.7,0.1-1.1,0.3
			c-0.4,0.2-0.9,0.4-1.3,0.6c-0.6,0.3-1.2,0.6-1.8,0.9c-0.1,0.1-0.2,0-0.2,0c-1.3-1.3-2.6-2.6-3.9-3.9c0,0-0.1-0.1-0.1-0.1
			c0.2-0.3,0.3-0.7,0.5-1c0.3-0.7,0.7-1.4,1-2.1c0.2-0.5,0.3-0.9,0.4-1.4c0-0.3,0-0.7,0-1.1c0-0.5-0.2-0.9-0.4-1.3
			c-0.2-0.5-0.6-0.9-1-1.3c-0.3-0.3-0.6-0.5-1-0.7c-0.6-0.2-1.2-0.4-1.7-0.7c-0.5-0.2-1-0.4-1.5-0.5c-0.1,0-0.3-0.1-0.4-0.1
			c0-1.9,0-3.9,0-5.8c0,0,0,0,0,0c1-0.4,2-0.7,3.1-1.1c0.5-0.2,1-0.5,1.5-0.9c0.5-0.5,0.9-1,1.2-1.7c0.2-0.4,0.3-0.9,0.3-1.3
			c0-0.3,0-0.6,0-0.9c0-0.4-0.1-0.8-0.3-1.2c-0.2-0.6-0.5-1.1-0.8-1.7c-0.2-0.5-0.5-1-0.7-1.5c1.4-1.4,2.7-2.7,4.1-4.1
			C8.7,6,8.9,6.1,9.2,6.2c0.7,0.3,1.5,0.7,2.2,1.1c0.5,0.3,1.1,0.4,1.6,0.5c0.6,0,1.2,0,1.7-0.2c0.6-0.2,1.1-0.5,1.5-0.8
			c0.4-0.4,0.8-0.8,1.1-1.3c0.2-0.5,0.4-1,0.6-1.4c0.2-0.5,0.3-1,0.5-1.4C18.5,2.2,18.6,1.9,18.7,1.7z M21.7,13.2
			c-2.8,0-5.2,1-7.1,2.9c-1.8,1.8-2.8,4-2.9,6.6c-0.1,2.8,0.8,5.2,2.6,7.2c1.9,2,4.2,3.1,7,3.2c2.8,0.1,5.2-0.8,7.2-2.7
			c2-1.9,3-4.2,3.1-6.9c0.1-2.7-0.8-5.1-2.7-7.1C26.9,14.2,24.5,13.2,21.7,13.2z"/>
		<path fill="none" stroke="#989898" stroke-width="1.5" stroke-miterlimit="10" d="M21.6,28.9c-1.6,0-3-0.6-4.1-1.7
			c-1.1-1.1-1.7-2.5-1.7-4.1c0-1.6,0.6-3.1,1.8-4.2c1.1-1.1,2.5-1.6,4-1.6c1.6,0,3,0.6,4.1,1.7c1.2,1.2,1.8,2.7,1.7,4.4
			C27.2,26.3,24.8,28.9,21.6,28.9z"/>
	</g>
	<g display="inline">
		<path fill="none" stroke="#989898" stroke-width="1.5" stroke-miterlimit="10" d="M51,35.3c1,0.3,2,0.6,3.1,0.9c0,0,0,0,0,0
			c0,0.6,0.1,1.2,0.1,1.8c0,0.4,0.1,0.7,0.4,1.1c0.1,0.2,0.3,0.4,0.5,0.6c0.2,0.2,0.5,0.3,0.7,0.4c0.3,0.1,0.7,0.2,1,0.1
			c0.3,0,0.6-0.1,0.9-0.1c0.3,0,0.5-0.1,0.8-0.1c0.1,0,0.2,0,0.3,0c0.5,0.9,1,1.8,1.5,2.7c0,0,0,0.1,0,0.1c-0.1,0.1-0.2,0.3-0.4,0.4
			c-0.3,0.3-0.5,0.6-0.8,0.9c-0.2,0.3-0.4,0.5-0.5,0.9c0,0.1-0.1,0.3-0.1,0.4c0,0.3,0,0.6,0.1,0.9c0.1,0.3,0.2,0.5,0.4,0.7
			c0.1,0.2,0.3,0.4,0.5,0.5c0.4,0.3,0.8,0.6,1.2,0.9c0.1,0.1,0.2,0.2,0.4,0.2c-0.3,1-0.6,2-0.9,3.1c0,0-0.1,0-0.1,0
			c-0.5,0-1.1,0.1-1.6,0.1c-0.4,0-0.8,0.1-1.1,0.3c-0.2,0.1-0.4,0.2-0.5,0.4c-0.3,0.3-0.5,0.7-0.7,1.1c0,0.1-0.1,0.2-0.1,0.4
			c0,0.2,0,0.5,0,0.7c0,0.3,0.1,0.5,0.1,0.8c0.1,0.3,0.1,0.6,0.2,1c0,0,0,0.1,0,0.1c-0.9,0.5-1.8,1-2.7,1.5c0,0-0.1,0-0.1,0
			c-0.2-0.2-0.4-0.3-0.6-0.5c-0.3-0.2-0.5-0.5-0.8-0.7c-0.2-0.2-0.5-0.4-0.8-0.4c-0.1,0-0.3-0.1-0.4-0.1c-0.2,0-0.5,0-0.7,0
			c-0.3,0.1-0.6,0.2-0.9,0.4c-0.2,0.1-0.4,0.2-0.5,0.4c-0.2,0.3-0.4,0.5-0.6,0.8c-0.2,0.2-0.3,0.5-0.5,0.7c-0.1,0.1-0.1,0.2-0.2,0.3
			c-1-0.3-2-0.6-3.1-0.9c0,0,0,0,0-0.1c0-0.6-0.1-1.1-0.1-1.7c0-0.4-0.1-0.8-0.4-1.2c-0.1-0.2-0.3-0.4-0.5-0.6
			c-0.3-0.2-0.5-0.4-0.8-0.4c-0.1,0-0.2,0-0.3-0.1c-0.2,0-0.4,0-0.6,0c-0.3,0-0.5,0.1-0.8,0.1c-0.4,0.1-0.7,0.1-1.1,0.2
			c-0.1,0-0.1,0-0.1-0.1c-0.5-0.9-1-1.8-1.5-2.6c0,0,0,0,0-0.1c0.1-0.2,0.3-0.3,0.4-0.5c0.3-0.3,0.6-0.6,0.8-1
			c0.2-0.2,0.3-0.4,0.4-0.7c0.1-0.2,0.1-0.4,0.1-0.6c0-0.3,0-0.5,0-0.8c-0.1-0.3-0.2-0.6-0.3-0.8c-0.1-0.2-0.3-0.4-0.4-0.5
			c-0.3-0.2-0.5-0.4-0.8-0.6c-0.2-0.2-0.5-0.3-0.7-0.5c-0.1,0-0.1-0.1-0.2-0.1c0.3-1,0.6-2,0.9-3.1c0,0,0,0,0,0
			c0.6,0,1.2-0.1,1.8-0.1c0.3,0,0.6-0.1,0.9-0.2c0.3-0.2,0.6-0.4,0.9-0.7c0.2-0.2,0.3-0.4,0.4-0.6c0.1-0.2,0.1-0.3,0.1-0.5
			c0-0.2,0-0.4,0-0.7c0-0.3-0.1-0.7-0.2-1c-0.1-0.3-0.1-0.6-0.2-0.9c0.9-0.5,1.8-1,2.8-1.6c0.1,0.1,0.2,0.2,0.3,0.3
			c0.3,0.3,0.7,0.6,1,0.9c0.2,0.2,0.5,0.4,0.8,0.5c0.3,0.1,0.6,0.2,0.9,0.2c0.3,0,0.6-0.1,0.9-0.2c0.3-0.1,0.6-0.3,0.8-0.5
			c0.2-0.2,0.3-0.4,0.5-0.7c0.2-0.2,0.3-0.5,0.5-0.7C50.8,35.6,50.9,35.4,51,35.3z M50.9,41.8c-1.5-0.4-2.9-0.2-4.2,0.5
			c-1.2,0.7-2.1,1.7-2.5,3c-0.5,1.4-0.4,2.8,0.3,4.2c0.7,1.3,1.8,2.3,3.2,2.7c1.4,0.5,2.8,0.3,4.2-0.4c1.3-0.7,2.2-1.8,2.6-3.2
			c0.4-1.4,0.3-2.8-0.4-4.1C53.4,43.1,52.3,42.2,50.9,41.8z"/>
		<path fill="none" stroke="#989898" stroke-width="1.5" stroke-miterlimit="10" d="M48.5,50.1c-0.8-0.2-1.5-0.7-1.9-1.5
			c-0.4-0.8-0.5-1.6-0.3-2.4c0.2-0.9,0.8-1.5,1.6-1.9c0.7-0.4,1.5-0.5,2.3-0.2c0.8,0.2,1.5,0.7,1.9,1.5c0.5,0.8,0.5,1.7,0.2,2.6
			C51.9,49.5,50.2,50.5,48.5,50.1z"/>
	</g>
</g>
<g display="none">
	<path display="inline" fill="none" stroke="#989898" stroke-width="1.5" stroke-miterlimit="10" d="M38.2,7H5
		c-1.1,1.5-1.8,3.1-2.7,4.8h39.3v42.8H0.8l0.8,1.7C3.6,60,6,63.4,8.8,66.4h7.4h3.9v-2.4h-3.6v-4.8h21.6c5.4,0,9.3-4.2,9.3-9.3V14.4
		C47.5,9.3,43.5,7,38.2,7z"/>
	<path display="inline" fill="none" stroke="#989898" stroke-width="1.5" stroke-miterlimit="10" d="M51.9,9.6H50
		C50,8.2,49.5,7,48.6,6c-0.9-0.9-2.2-1.5-3.5-1.5V2.6C48.8,2.7,51.8,5.8,51.9,9.6L51.9,9.6z"/>
	<path display="inline" fill="none" stroke="#989898" stroke-width="1.5" stroke-miterlimit="10" d="M55.4,9.6h-1.8
		c0-4.8-3.8-8.7-8.5-8.7V-1C50.8-1,55.4,3.7,55.4,9.6L55.4,9.6z"/>
	<path display="inline" fill="none" stroke="#989898" stroke-width="1.5" stroke-miterlimit="10" d="M60.4,9.6h-2.7
		C57.6,2.5,52-3.2,45.1-3.3v-2.8C53.5-6,60.3,1,60.4,9.6L60.4,9.6z"/>
</g>
<g>
	<circle fill="none" stroke="#989898" stroke-width="1.5" stroke-miterlimit="10" cx="30.5" cy="30.2" r="28.9"/>
	<g>
		<path fill="none" stroke="#989898" stroke-width="1.5" stroke-miterlimit="10" d="M29.2,50.8v-5.1c-2.9,0-6-1-7.8-2.2l1.2-3.4
			c1.8,1.2,4.5,2.2,7.3,2.2c3.6,0,6-2.1,6-5c0-2.8-2-4.5-5.7-6c-5.2-2-8.4-4.4-8.4-8.8c0-4.2,3-7.4,7.7-8.2V9.1h3.1V14
			c3,0.1,5.1,0.9,6.6,1.8L38,19.2c-1.1-0.6-3.1-1.7-6.4-1.7c-3.9,0-5.4,2.3-5.4,4.4c0,2.6,1.9,4,6.3,5.8c5.2,2.1,7.9,4.8,7.9,9.3
			c0,4-2.8,7.8-8,8.6v5.3H29.2z"/>
	</g>
</g>
</svg>
