<?xml version="1.0" encoding="utf-8"?>
<!-- Generator: Adobe Illustrator 19.2.1, SVG Export Plug-In . SVG Version: 6.00 Build 0)  -->
<!DOCTYPE svg PUBLIC "-//W3C//DTD SVG 1.1//EN" "http://www.w3.org/Graphics/SVG/1.1/DTD/svg11.dtd">
<svg version="1.1" id="Capa_1" xmlns="http://www.w3.org/2000/svg" xmlns:xlink="http://www.w3.org/1999/xlink" x="0px" y="0px"
	 viewBox="0 0 71.2 65.9" enable-background="new 0 0 71.2 65.9" xml:space="preserve">
<g>
	<path fill="none" stroke="#989898" stroke-width="1.5" stroke-miterlimit="10" d="M34.3,1.6C22.7,1.4,11.9,5.8,2.9,14.3
		c-1.6,1.5-1.7,3.5-0.3,4.9C4,20.5,6,20.4,7.6,18.9c8.1-7.6,17.6-11.7,29-10.9c10.5,0.7,19.6,5.2,27.2,12.6c1,1,2.1,1.5,3.4,1.1
		c1.2-0.3,1.9-1.1,2.2-2.3c0.3-1.3-0.2-2.4-1.2-3.3c-3.5-3.5-7.5-6.4-11.8-8.7C49.9,3.9,42.8,1.9,34.3,1.6z"/>
	<path fill="none" stroke="#989898" stroke-width="1.5" stroke-miterlimit="10" d="M36,15.8c-9.1-0.2-16.4,2.8-22.5,8.4
		c-0.9,0.8-1.5,1.8-1.3,3c0.2,1.3,0.8,2.2,2.1,2.7c1.4,0.5,2.6,0.2,3.6-0.8c2.5-2.5,5.5-4.4,8.9-5.6c8.2-2.9,15.9-1.3,23.2,3.6
		c1.3,0.9,2.5,2,3.7,3.1c1.5,1.3,3.5,1.5,4.7,0.2c1.2-1.2,1.1-3.3-0.2-4.6c-5.1-5.1-11.2-8.3-18.3-9.6C38.3,16,36.9,15.9,36,15.8z"
		/>
	<path fill="none" stroke="#989898" stroke-width="1.5" stroke-miterlimit="10" d="M21.9,37.4c0.1,1.7,0.6,2.7,1.8,3.3
		c1.3,0.6,2.6,0.4,3.6-0.6c2-1.9,4.3-3.1,7.1-3.3c3.7-0.3,6.8,1.2,9.6,3.6c1.6,1.5,3.5,1.6,4.7,0.3c1.2-1.3,1-3.2-0.6-4.7
		c-7-6.8-18.1-7.1-24.8-0.6C22.5,36,22.2,36.9,21.9,37.4z"/>
	<g>
		<path fill="none" stroke="#989898" stroke-width="1.5" stroke-miterlimit="10" d="M34.3,45.5c0.9,0,1.7,0,2.6,0c0,0,0,0,0,0
			c0.2,0.5,0.3,0.9,0.5,1.4c0.1,0.3,0.3,0.5,0.5,0.8c0.2,0.1,0.3,0.3,0.5,0.3c0.2,0.1,0.4,0.2,0.6,0.2c0.3,0,0.6,0,0.8-0.1
			c0.2-0.1,0.4-0.2,0.7-0.3c0.2-0.1,0.4-0.2,0.6-0.3c0.1,0,0.1-0.1,0.2-0.1c0.6,0.6,1.2,1.2,1.8,1.8c0,0,0,0,0,0.1
			c-0.1,0.1-0.1,0.3-0.2,0.4c-0.1,0.3-0.3,0.6-0.4,0.9c-0.1,0.2-0.2,0.5-0.2,0.8c0,0.1,0,0.2,0,0.4c0,0.3,0.1,0.5,0.3,0.7
			c0.1,0.2,0.3,0.4,0.4,0.5c0.1,0.1,0.3,0.2,0.5,0.3c0.4,0.1,0.8,0.3,1.1,0.4c0.1,0,0.2,0.1,0.3,0.1c0,0.9,0,1.7,0,2.6
			c0,0,0,0-0.1,0c-0.4,0.1-0.8,0.3-1.2,0.4c-0.3,0.1-0.6,0.3-0.8,0.5c-0.1,0.1-0.2,0.2-0.3,0.4c-0.2,0.3-0.3,0.6-0.3,1
			c0,0.1,0,0.2,0,0.3c0,0.2,0.1,0.4,0.2,0.6c0.1,0.2,0.2,0.4,0.3,0.6c0.1,0.2,0.2,0.5,0.3,0.7c0,0,0,0,0,0.1
			c-0.6,0.6-1.2,1.2-1.7,1.7c0,0,0,0-0.1,0c-0.2-0.1-0.4-0.2-0.6-0.3c-0.3-0.1-0.5-0.2-0.8-0.4c-0.2-0.1-0.5-0.2-0.7-0.2
			c-0.1,0-0.2,0-0.3,0c-0.2,0-0.4,0.1-0.6,0.2c-0.2,0.1-0.5,0.3-0.6,0.5c-0.1,0.1-0.2,0.3-0.3,0.4c-0.1,0.2-0.2,0.5-0.3,0.7
			c-0.1,0.2-0.2,0.4-0.2,0.6c0,0.1-0.1,0.2-0.1,0.2c-0.9,0-1.7,0-2.6,0c0,0,0,0,0-0.1c-0.2-0.4-0.3-0.8-0.5-1.3
			c-0.1-0.3-0.3-0.6-0.5-0.8c-0.2-0.1-0.3-0.3-0.5-0.4c-0.2-0.1-0.5-0.2-0.8-0.2c-0.1,0-0.2,0-0.3,0c-0.2,0-0.3,0.1-0.5,0.1
			c-0.2,0.1-0.4,0.2-0.6,0.3c-0.3,0.1-0.5,0.2-0.8,0.4c0,0-0.1,0-0.1,0c-0.6-0.6-1.1-1.1-1.7-1.7c0,0,0,0,0,0
			c0.1-0.1,0.1-0.3,0.2-0.4c0.1-0.3,0.3-0.6,0.4-0.9c0.1-0.2,0.1-0.4,0.2-0.6c0-0.2,0-0.3,0-0.5c0-0.2-0.1-0.4-0.2-0.6
			c-0.1-0.2-0.2-0.4-0.4-0.6c-0.1-0.1-0.3-0.2-0.5-0.3c-0.3-0.1-0.5-0.2-0.8-0.3c-0.2-0.1-0.4-0.2-0.6-0.2c-0.1,0-0.1,0-0.2-0.1
			c0-0.9,0-1.7,0-2.6c0,0,0,0,0,0c0.4-0.2,0.9-0.3,1.3-0.5c0.2-0.1,0.5-0.2,0.6-0.4c0.2-0.2,0.4-0.5,0.5-0.7
			c0.1-0.2,0.1-0.4,0.1-0.6c0-0.1,0-0.3,0-0.4c0-0.2-0.1-0.4-0.1-0.5c-0.1-0.2-0.2-0.5-0.3-0.7c-0.1-0.2-0.2-0.5-0.3-0.7
			c0.6-0.6,1.2-1.2,1.8-1.8c0.1,0,0.2,0.1,0.3,0.1c0.3,0.2,0.6,0.3,1,0.5c0.2,0.1,0.5,0.2,0.7,0.2c0.3,0,0.5,0,0.8-0.1
			c0.2-0.1,0.5-0.2,0.7-0.4c0.2-0.2,0.4-0.4,0.5-0.6c0.1-0.2,0.2-0.4,0.2-0.6c0.1-0.2,0.2-0.4,0.2-0.6
			C34.3,45.8,34.3,45.6,34.3,45.5z M35.7,50.6c-1.2,0-2.3,0.4-3.1,1.3c-0.8,0.8-1.2,1.8-1.3,2.9c-0.1,1.2,0.3,2.3,1.2,3.2
			c0.8,0.9,1.9,1.4,3.1,1.4c1.2,0,2.3-0.4,3.1-1.2c0.9-0.8,1.3-1.8,1.4-3c0-1.2-0.4-2.2-1.2-3.1C37.9,51,36.9,50.6,35.7,50.6z"/>
	</g>
</g>
</svg>
