<?xml version="1.0" encoding="utf-8"?>
<!-- Generator: Adobe Illustrator 19.2.1, SVG Export Plug-In . SVG Version: 6.00 Build 0)  -->
<!DOCTYPE svg PUBLIC "-//W3C//DTD SVG 1.1//EN" "http://www.w3.org/Graphics/SVG/1.1/DTD/svg11.dtd">
<svg version="1.1" id="Capa_1" xmlns="http://www.w3.org/2000/svg" xmlns:xlink="http://www.w3.org/1999/xlink" x="0px" y="0px"
	 viewBox="0 0 60.7 58.9" enable-background="new 0 0 60.7 58.9" xml:space="preserve">
<g display="none">
	<path display="inline" fill="none" stroke="#989898" stroke-width="1.5" stroke-miterlimit="10" d="M29.1-1.9
		C17.4-2.1,6.7,2.3-2.3,10.8c-1.6,1.5-1.7,3.5-0.3,4.9c1.3,1.3,3.3,1.2,4.9-0.3C10.4,7.8,20,3.7,31.4,4.5
		c10.5,0.7,19.6,5.2,27.2,12.6c1,1,2.1,1.5,3.4,1.1c1.2-0.3,1.9-1.1,2.2-2.3c0.3-1.3-0.2-2.4-1.2-3.3C59.5,9.2,55.6,6.3,51.2,4
		C44.6,0.4,37.6-1.6,29.1-1.9z"/>
	<path display="inline" fill="none" stroke="#989898" stroke-width="1.5" stroke-miterlimit="10" d="M30.7,12.3
		c-9.1-0.2-16.4,2.8-22.5,8.4c-0.9,0.8-1.5,1.8-1.3,3C7,25,7.7,26,8.9,26.4c1.4,0.5,2.6,0.2,3.6-0.8c2.5-2.5,5.5-4.4,8.9-5.6
		c8.2-2.9,15.9-1.3,23.2,3.6c1.3,0.9,2.5,2,3.7,3.1c1.5,1.3,3.5,1.5,4.7,0.2c1.2-1.2,1.1-3.3-0.2-4.6c-5.1-5.1-11.2-8.3-18.3-9.6
		C33.1,12.5,31.7,12.4,30.7,12.3z"/>
	<path display="inline" fill="none" stroke="#989898" stroke-width="1.5" stroke-miterlimit="10" d="M16.6,33.9
		c0.1,1.7,0.6,2.7,1.8,3.3c1.3,0.6,2.6,0.4,3.6-0.6c2-1.9,4.3-3.1,7.1-3.3c3.7-0.3,6.8,1.2,9.6,3.6c1.6,1.5,3.5,1.6,4.7,0.3
		c1.2-1.3,1-3.2-0.6-4.7c-7-6.8-18.1-7.1-24.8-0.6C17.3,32.5,16.9,33.4,16.6,33.9z"/>
	<g display="inline">
		<path fill="none" stroke="#989898" stroke-width="1.5" stroke-miterlimit="10" d="M29.1,42c0.9,0,1.7,0,2.6,0c0,0,0,0,0,0
			c0.2,0.5,0.3,0.9,0.5,1.4c0.1,0.3,0.3,0.5,0.5,0.8c0.2,0.1,0.3,0.3,0.5,0.3c0.2,0.1,0.4,0.2,0.6,0.2c0.3,0,0.6,0,0.8-0.1
			c0.2-0.1,0.4-0.2,0.7-0.3c0.2-0.1,0.4-0.2,0.6-0.3c0.1,0,0.1-0.1,0.2-0.1c0.6,0.6,1.2,1.2,1.8,1.8c0,0,0,0,0,0.1
			c-0.1,0.1-0.1,0.3-0.2,0.4c-0.1,0.3-0.3,0.6-0.4,0.9c-0.1,0.2-0.2,0.5-0.2,0.8c0,0.1,0,0.2,0,0.4c0,0.3,0.1,0.5,0.3,0.7
			c0.1,0.2,0.3,0.4,0.4,0.5c0.1,0.1,0.3,0.2,0.5,0.3c0.4,0.1,0.8,0.3,1.1,0.4c0.1,0,0.2,0.1,0.3,0.1c0,0.9,0,1.7,0,2.6
			c0,0,0,0-0.1,0c-0.4,0.1-0.8,0.3-1.2,0.4c-0.3,0.1-0.6,0.3-0.8,0.5c-0.1,0.1-0.2,0.2-0.3,0.4c-0.2,0.3-0.3,0.6-0.3,1
			c0,0.1,0,0.2,0,0.3c0,0.2,0.1,0.4,0.2,0.6c0.1,0.2,0.2,0.4,0.3,0.6c0.1,0.2,0.2,0.5,0.3,0.7c0,0,0,0,0,0.1
			c-0.6,0.6-1.2,1.2-1.7,1.7c0,0,0,0-0.1,0c-0.2-0.1-0.4-0.2-0.6-0.3c-0.3-0.1-0.5-0.2-0.8-0.4c-0.2-0.1-0.5-0.2-0.7-0.2
			c-0.1,0-0.2,0-0.3,0c-0.2,0-0.4,0.1-0.6,0.2c-0.2,0.1-0.5,0.3-0.6,0.5c-0.1,0.1-0.2,0.3-0.3,0.4c-0.1,0.2-0.2,0.5-0.3,0.7
			c-0.1,0.2-0.2,0.4-0.2,0.6c0,0.1-0.1,0.2-0.1,0.2c-0.9,0-1.7,0-2.6,0c0,0,0,0,0-0.1c-0.2-0.4-0.3-0.8-0.5-1.3
			c-0.1-0.3-0.3-0.6-0.5-0.8c-0.2-0.1-0.3-0.3-0.5-0.4c-0.2-0.1-0.5-0.2-0.8-0.2c-0.1,0-0.2,0-0.3,0c-0.2,0-0.3,0.1-0.5,0.1
			c-0.2,0.1-0.4,0.2-0.6,0.3c-0.3,0.1-0.5,0.2-0.8,0.4c0,0-0.1,0-0.1,0c-0.6-0.6-1.1-1.1-1.7-1.7c0,0,0,0,0,0
			c0.1-0.1,0.1-0.3,0.2-0.4c0.1-0.3,0.3-0.6,0.4-0.9c0.1-0.2,0.1-0.4,0.2-0.6c0-0.2,0-0.3,0-0.5c0-0.2-0.1-0.4-0.2-0.6
			c-0.1-0.2-0.2-0.4-0.4-0.6c-0.1-0.1-0.3-0.2-0.5-0.3c-0.3-0.1-0.5-0.2-0.8-0.3c-0.2-0.1-0.4-0.2-0.6-0.2c-0.1,0-0.1,0-0.2-0.1
			c0-0.9,0-1.7,0-2.6c0,0,0,0,0,0c0.4-0.2,0.9-0.3,1.3-0.5c0.2-0.1,0.5-0.2,0.6-0.4c0.2-0.2,0.4-0.5,0.5-0.7
			c0.1-0.2,0.1-0.4,0.1-0.6c0-0.1,0-0.3,0-0.4c0-0.2-0.1-0.4-0.1-0.5c-0.1-0.2-0.2-0.5-0.3-0.7c-0.1-0.2-0.2-0.5-0.3-0.7
			c0.6-0.6,1.2-1.2,1.8-1.8c0.1,0,0.2,0.1,0.3,0.1c0.3,0.2,0.6,0.3,1,0.5c0.2,0.1,0.5,0.2,0.7,0.2c0.3,0,0.5,0,0.8-0.1
			c0.2-0.1,0.5-0.2,0.7-0.4c0.2-0.2,0.4-0.4,0.5-0.6c0.1-0.2,0.2-0.4,0.2-0.6c0.1-0.2,0.2-0.4,0.2-0.6C29,42.3,29,42.1,29.1,42z
			 M30.4,47.1c-1.2,0-2.3,0.4-3.1,1.3c-0.8,0.8-1.2,1.8-1.3,2.9c-0.1,1.2,0.3,2.3,1.2,3.2c0.8,0.9,1.9,1.4,3.1,1.4
			c1.2,0,2.3-0.4,3.1-1.2c0.9-0.8,1.3-1.8,1.4-3c0-1.2-0.4-2.2-1.2-3.1C32.7,47.5,31.6,47.1,30.4,47.1z"/>
	</g>
</g>
<g id="tools_xA0_Trazado_de_recorte_5_">
	<g>
		<path fill="none" stroke="#989898" stroke-width="1.5" stroke-miterlimit="10" d="M41.5,33.6c-0.9-0.9-2.3-0.9-3.1,0l-1.7,1.7
			l-2.8-2.8l4-4.3c5.5,3.1,12.6,2.4,17.3-2.3c4.3-4.3,5.3-10.5,3.1-15.7l-9.3,9.2l-7.8-7.8l9.3-9.2c-5.2-2.1-11.4-1.1-15.7,3.2
			c-5.1,5.1-5.5,13.1-1.4,18.7L29,27.6L14.4,13l-0.1-4.5L5.7,3.3L1.5,7.5L6.7,16l4.5,0l14.4,14.4L4,48.6c-1.7,1.7-1.7,4.5,0,6.3
			l1.6,1.6c1.7,1.7,4.5,1.7,6.3,0l19-20.8l2.7,2.7L32,39.9c-0.9,0.9-0.9,2.3,0,3.1l13.8,13.9c0.9,0.9,2.3,0.9,3.1,0l6.3-6.3
			c0.9-0.9,0.9-2.3,0-3.1L41.5,33.6z M9.2,53.9c-0.9,0.9-2.3,0.9-3.1,0c-0.9-0.9-0.9-2.3,0-3.1c0.9-0.9,2.3-0.9,3.1,0
			C10.1,51.6,10.1,53.1,9.2,53.9z"/>
	</g>
</g>
</svg>
