<?xml version="1.0" encoding="utf-8"?>
<!-- Generator: Adobe Illustrator 21.0.1, SVG Export Plug-In . SVG Version: 6.00 Build 0)  -->
<svg version="1.1" id="Capa_1" xmlns="http://www.w3.org/2000/svg" xmlns:xlink="http://www.w3.org/1999/xlink" x="0px" y="0px"
	 viewBox="0 0 186 58" style="enable-background:new 0 0 186 58;" xml:space="preserve">
<style type="text/css">
	.st0{fill-rule:evenodd;clip-rule:evenodd;fill:#B4C731;}
	.st1{fill-rule:evenodd;clip-rule:evenodd;fill:#FFFFFF;}
	.st2{fill-rule:evenodd;clip-rule:evenodd;fill:#F0C92F;}
	.st3{fill-rule:evenodd;clip-rule:evenodd;fill:#B0D7F5;}
</style>
<g>
	<polygon class="st0" points="0.2,5.8 185.8,5.8 185.8,52.2 0.2,52.2 0.2,5.8 	"/>
	<path class="st1" d="M18.2,16.2c7.5,0,13.6,6.1,13.6,13.6c0,7.5-6.1,13.6-13.6,13.6c-7.5,0-13.6-6.1-13.6-13.6
		C4.5,22.3,10.7,16.2,18.2,16.2L18.2,16.2z"/>
	<polygon class="st1" points="175.7,23 175.7,21.8 174.5,21.8 174.5,23 175.7,23 	"/>
	<polygon class="st1" points="175.6,33.5 175.6,25.3 174.6,25.3 174.6,33.5 175.6,33.5 	"/>
	<path class="st1" d="M158.8,28.2c0-1.1,0.5-2.3,1.7-2.3c1,0,1.2,0.9,1.3,1.7v5.8h1v-5.3c0-1.1,0.5-2.3,1.7-2.3c1,0,1.2,0.9,1.3,1.7
		v5.8h1v-6.1c0-1.3-0.8-2.3-2.1-2.3c-0.9,0-1.6,0.5-2,1.3c-0.3-0.8-1-1.3-1.9-1.3c-0.9,0-1.6,0.5-2,1.2h0v-1h-0.9v8.2h1V28.2
		L158.8,28.2z"/>
	<polygon class="st1" points="150,33.5 150,21.8 149,21.8 149,33.5 150,33.5 	"/>
	<path class="st1" d="M138.5,33.7c2.8,0,3-2.7,3-3.6h-1.1c0,1.5-0.5,2.7-1.9,2.7c-2.5,0-2.5-2.1-2.5-5.2c0-3.1,0-5.2,2.5-5.2
		c1.5,0,1.9,1.2,1.9,2.5h1c0-1.1,0-3.4-2.9-3.4c-3.5,0-3.5,2.9-3.5,6.1C134.9,30.8,135,33.7,138.5,33.7L138.5,33.7z"/>
	<polygon class="st1" points="108.8,23 108.8,21.8 107.6,21.8 107.6,23 108.8,23 	"/>
	<polygon class="st1" points="108.7,33.5 108.7,25.3 107.7,25.3 107.7,33.5 108.7,33.5 	"/>
	<path class="st1" d="M104.7,25.3h-1v8.2h1v-5.3c0-1.4,0.9-2.2,2.3-2.1v-1c-1,0-1.9,0.5-2.3,1.3h0V25.3L104.7,25.3z"/>
	<path class="st1" d="M94.6,25.3h-1v8.2h1v-5.3c0-1.4,0.9-2.2,2.3-2.1v-1c-1,0-1.8,0.5-2.3,1.3h0V25.3L94.6,25.3z"/>
	<path class="st1" d="M68.9,27.6c0.1-1.7-0.9-2.5-2.3-2.5c-1.1,0-2.1,0.4-2.5,1.6c-0.2,0.6-0.2,1.9-0.2,2.7c0,2,0,4.2,2.8,4.2
		c0.8,0,2.3-0.4,2.2-2.6h-1c0,1-0.2,1.8-1.5,1.8c-1.5,0-1.5-2-1.5-3.4c0-1.1,0.1-2.2,0.2-2.6c0.2-0.6,0.7-0.9,1.3-0.9
		c1.1,0,1.5,0.7,1.5,1.7H68.9L68.9,27.6z"/>
	<path class="st1" d="M58.9,28.3c0-1.8,0.9-2.5,1.8-2.5c1.1,0,1.5,0.9,1.5,1.9v5.7h1v-5.8c0-1.1-0.2-2.6-2.2-2.6
		c-0.9,0-1.5,0.5-2,1.2h0v-1h-1v8.2h1V28.3L58.9,28.3z"/>
	<path class="st1" d="M45.4,27.8h2.1c1.8,0,2.1,1.4,2.1,2.5c0,1.7-0.8,2.3-2.5,2.3h-1.7V27.8L45.4,27.8z M47.6,33.5c2,0,3-1.2,3-3.3
		c0-1.5-0.4-2.5-1.9-2.8v0c1.5-0.4,1.7-1.4,1.7-2.8c0-2.1-0.9-2.8-2.8-2.8h-3.3v11.7H47.6L47.6,33.5z M45.4,27v-4.3h2.1
		c0.8,0,1.9,0,1.9,2c0,1.3-0.5,2.4-2,2.4H45.4L45.4,27z"/>
	<path class="st1" d="M55.8,33.5h1c-0.1-0.9-0.1-1.5-0.1-2.1v-4.1c0-2.1-1.7-2.2-2.5-2.2c-1.4,0-2.7,0.6-2.7,2.2h1
		c0-1,0.7-1.4,1.6-1.4c1.3,0,1.7,0.7,1.7,1.9v0.7c-1.7,0.1-4.5-0.2-4.5,2.7c0,1.4,0.8,2.4,2.2,2.4c1,0,1.8-0.4,2.3-1.2h0V33.5
		L55.8,33.5z M55.7,30.8c0,1.1-0.9,2.1-2,2.1c-1,0-1.5-0.8-1.5-1.7c0-2,2.1-1.8,3.5-1.9V30.8L55.7,30.8z"/>
	<path class="st1" d="M72.4,25.9c1.6,0,1.8,1.3,1.8,3.5c0,2.1-0.2,3.5-1.8,3.5s-1.8-1.3-1.8-3.5C70.6,27.2,70.8,25.9,72.4,25.9
		L72.4,25.9z M72.4,33.6c1.9,0,2.8-1.3,2.8-3.4v-1.8c0-2.1-0.9-3.4-2.8-3.4c-1.9,0-2.8,1.2-2.8,3.4v1.8
		C69.6,32.4,70.5,33.6,72.4,33.6L72.4,33.6z"/>
	<path class="st1" d="M80.5,29.5l2-6.6h0l2,6.6H80.5L80.5,29.5z M81.9,21.7l-3.7,11.7h1l0.9-3.1h4.6l0.9,3.1h1.1l-3.7-11.7H81.9
		L81.9,21.7z"/>
	<path class="st1" d="M91.5,26.3L91.5,26.3c-0.4-0.8-1.2-1.2-2-1.2c-1.7,0-2.2,1.3-2.3,1.6c-0.2,0.9-0.3,0.9-0.3,2.8
		c0,1.8,0.2,3.8,2.5,3.8c0.8,0,1.6-0.3,2-1h0c0,2.5,0.1,3.5-1.8,3.5c-0.9,0-1.6-0.5-1.6-1.5h-1c-0.1,0.8,0.3,2.3,2.4,2.3
		c2.3,0,2.9-1.1,2.9-2.9v-6.9c0-0.4,0-0.8,0-1.6h-0.9V26.3L91.5,26.3z M89.6,25.9c0.9,0,1.8,0.6,1.8,2.4c0,2.4-0.1,2.8-0.3,3.4
		c-0.2,0.4-0.7,0.9-1.5,0.9c-1.8,0-1.8-1.7-1.8-3.4C87.9,28,87.9,25.9,89.6,25.9L89.6,25.9z"/>
	<path class="st1" d="M101.5,33.5h1c-0.1-0.9-0.1-1.5-0.1-2.1v-4.1c0-2.1-1.7-2.2-2.5-2.2c-1.4,0-2.7,0.6-2.7,2.2h1
		c0-1,0.7-1.4,1.6-1.4c1.3,0,1.7,0.7,1.7,1.9v0.7c-1.7,0.1-4.5-0.2-4.5,2.7c0,1.4,0.8,2.4,2.2,2.4c1,0,1.8-0.4,2.3-1.2h0V33.5
		L101.5,33.5z M101.5,30.8c0,1.1-0.9,2.1-2,2.1c-1,0-1.5-0.8-1.5-1.7c0-2,2.1-1.8,3.5-1.9V30.8L101.5,30.8z"/>
	<path class="st1" d="M112.8,25.9c1.6,0,1.8,1.3,1.8,3.5c0,2.1-0.2,3.5-1.8,3.5s-1.8-1.3-1.8-3.5C110.9,27.2,111.2,25.9,112.8,25.9
		L112.8,25.9z M112.8,33.6c1.9,0,2.8-1.3,2.8-3.4v-1.8c0-2.1-0.9-3.4-2.8-3.4c-1.9,0-2.8,1.2-2.8,3.4v1.8
		C109.9,32.4,110.8,33.6,112.8,33.6L112.8,33.6z"/>
	<path class="st1" d="M123.7,33.5h0.9c-0.1-0.3-0.1-0.8-0.1-1.6V21.7h-0.9v4.4h0c-0.5-0.6-1.2-1-2-1c-2.5,0-2.5,2.7-2.5,4.3
		c0,1.9,0.1,4.3,2.5,4.3c0.9,0,1.6-0.4,2.1-1.2l0,0L123.7,33.5L123.7,33.5z M121.9,32.9c-1.1,0-1.8-0.4-1.8-3.5c0-1.9,0-3.5,1.7-3.5
		c1.8,0,1.8,2.3,1.8,2.8v1.5C123.6,32.1,122.8,32.9,121.9,32.9L121.9,32.9z"/>
	<path class="st1" d="M126.5,28.8c0-1.8,0.3-2.9,1.8-2.9c1.6,0,1.9,1.1,1.9,2.9H126.5L126.5,28.8z M131.2,29.6c0-2.4,0-4.5-2.8-4.5
		c-1.8,0-2.8,1.1-2.8,3.5v2c0,2.5,1.4,3.1,2.8,3.1c1.7,0,2.7-0.7,2.8-2.7h-1c0,1.1-0.6,1.9-1.8,1.9c-1.5,0-1.8-1.5-1.8-2.6v-0.6
		H131.2L131.2,29.6z"/>
	<path class="st1" d="M144.9,25.9c1.6,0,1.8,1.3,1.8,3.5c0,2.1-0.2,3.5-1.8,3.5c-1.6,0-1.8-1.3-1.8-3.5
		C143.1,27.2,143.3,25.9,144.9,25.9L144.9,25.9z M144.9,33.6c1.9,0,2.8-1.3,2.8-3.4v-1.8c0-2.1-0.9-3.4-2.8-3.4
		c-1.9,0-2.8,1.2-2.8,3.4v1.8C142.1,32.4,143,33.6,144.9,33.6L144.9,33.6z"/>
	<path class="st1" d="M154.1,25.9c1.6,0,1.8,1.3,1.8,3.5c0,2.1-0.2,3.5-1.8,3.5c-1.6,0-1.8-1.3-1.8-3.5
		C152.2,27.2,152.5,25.9,154.1,25.9L154.1,25.9z M154.1,33.6c1.9,0,2.8-1.3,2.8-3.4v-1.8c0-2.1-0.9-3.4-2.8-3.4s-2.8,1.2-2.8,3.4
		v1.8C151.2,32.4,152.2,33.6,154.1,33.6L154.1,33.6z"/>
	<path class="st1" d="M168.8,33.5v-1h0c0.4,0.8,1.1,1.2,2.1,1.2c2.4,0,2.5-2.5,2.5-4.3c0-1.5,0.2-4.3-2.5-4.3
		c-0.9,0-1.6,0.4-2.1,1.1l0,0v-4.5h-0.9v10.9c0,0.3,0,0.5-0.1,0.8H168.8L168.8,33.5z M168.8,29.3c0-1.2,0.2-3.4,1.8-3.4
		c1.8,0,1.9,1.6,1.9,3.5c0,1.9,0,3.5-1.9,3.5C168.8,32.9,168.8,30.6,168.8,29.3L168.8,29.3z"/>
	<path class="st1" d="M181.3,33.5h1c-0.1-0.9-0.1-1.5-0.1-2.1v-4.1c0-2.1-1.7-2.2-2.5-2.2c-1.4,0-2.7,0.6-2.7,2.2h1
		c0-1,0.7-1.4,1.6-1.4c1.3,0,1.7,0.7,1.7,1.9v0.7c-1.7,0.1-4.5-0.2-4.5,2.7c0,1.4,0.8,2.4,2.2,2.4c1,0,1.8-0.4,2.3-1.2h0V33.5
		L181.3,33.5z M181.2,30.8c0,1.1-0.9,2.1-2,2.1c-1,0-1.5-0.8-1.5-1.7c0-2,2.1-1.8,3.5-1.9V30.8L181.2,30.8z"/>
	<path class="st2" d="M17.7,19.5c2.1,0,3.9,1.7,3.9,3.9c0,2.1-1.7,3.9-3.9,3.9c-2.1,0-3.9-1.7-3.9-3.9
		C13.8,21.2,15.6,19.5,17.7,19.5L17.7,19.5z"/>
	<path class="st3" d="M7.5,28c4.3,4.5,7.1,9.5,9.2,14.3c0.4,0,0.9,0.1,1.4,0.1c0.7,0,1.3,0,1.9-0.1c1.8-4.8,4.4-9.7,8.3-14.3
		c-0.4,3.5-0.2,6.2-0.1,9.2c1.5-2.1,2.4-4.6,2.4-7.3c0-6.9-5.7-12.5-12.6-12.5c-6.9,0-12.5,5.6-12.5,12.5c0,2.8,1,5.5,2.5,7.6
		C8.1,34.4,8.2,31.6,7.5,28L7.5,28z M17.7,18.6c2.6,0,4.8,2.1,4.8,4.8c0,2.7-2.2,4.8-4.8,4.8s-4.8-2.1-4.8-4.8
		C12.9,20.7,15,18.6,17.7,18.6L17.7,18.6z"/>
	<path class="st1" d="M24,26.7c0.8-1,1.2-0.9,1.2,0.5c-2.5,5-4.6,10.2-6.6,15.4c-0.3,0-0.6,0-0.9,0c-2.3-4.9-4.1-9.6-7.5-14.6
		c-0.8-1.6-0.3-2,1.3-1.2c2.2,2,4.4,4,6,6.4c0.4,0.6,0.9,0.5,1.3,0.2C20.2,30.8,22.2,28.7,24,26.7L24,26.7z"/>
	<path class="st0" d="M8.5,30.5c0.7,0.8,1.4,1.6,2.1,2.5c0.6,0.9,1.2,1.7,1.8,2.6c1.2,2,2.3,4.1,3.1,6c-0.8-0.2-2.1-1.3-3-1.5
		c-1.1-0.7-2-1.1-3.6-2.2C9,35.5,9.1,33.4,8.5,30.5L8.5,30.5z"/>
	<path class="st0" d="M27.5,30.5c-3,3.4-4.9,7.9-6.2,11.5c0.8-0.2,1.9-1.7,2.8-1.9c1.1-0.7,2-1.1,3.5-2.2
		C27.4,35.5,27.2,33.4,27.5,30.5L27.5,30.5z"/>
	<path class="st0" d="M21.7,30.5c0.5-0.7,0.7-0.6,0.7,0.3c-1.5,3.3-2.8,6.8-4,10.3c-0.2,0-0.4,0-0.5,0c-1.4-3.2-2.5-6.4-4.5-9.7
		c-0.5-1.1-0.2-1.4,0.8-0.8c1.3,1.3,2.6,3.1,3.6,4.7c0.3,0.4,0.5,0.3,0.8,0.1C19.4,33.8,20.6,31.9,21.7,30.5L21.7,30.5z"/>
</g>
</svg>
