<?xml version="1.0" encoding="utf-8"?>
<!-- Generator: Adobe Illustrator 21.0.1, SVG Export Plug-In . SVG Version: 6.00 Build 0)  -->
<svg version="1.1" id="Capa_1" xmlns="http://www.w3.org/2000/svg" xmlns:xlink="http://www.w3.org/1999/xlink" x="0px" y="0px"
	 viewBox="0 0 18.1 18.1" style="enable-background:new 0 0 18.1 18.1;" xml:space="preserve">
<style type="text/css">
	.st0{fill:#54977F;}
</style>
<g>
	<g>
		<g>
			<path class="st0" d="M9.1,18.1C9,18.1,9,18.1,9.1,18.1c-2.5,0-4.6-0.9-6.4-2.6C0.9,13.7,0,11.5,0,9.1c0-2.5,0.9-4.7,2.7-6.4
				C4.4,0.9,6.6,0,9.1,0c2.5,0,4.6,0.9,6.4,2.6c1.8,1.7,2.6,3.9,2.6,6.4c0,2.5-0.9,4.6-2.6,6.4C13.7,17.2,11.5,18.1,9.1,18.1
				L9.1,18.1z M9.1,2.1c-1.9,0-3.6,0.7-4.9,2c-1.4,1.4-2,3-2,4.9c0,1.9,0.7,3.5,2,4.9c1.4,1.4,3,2,4.9,2c1.9,0,3.5-0.7,4.9-2
				c1.4-1.4,2-3,2-4.9c0-1.9-0.7-3.6-2-4.9C12.6,2.8,11,2.1,9.1,2.1z"/>
		</g>
	</g>
	<g>
		<polygon class="st0" points="8.4,12.5 5.1,9.6 6.3,8.3 8.3,10 12.8,5.1 14.1,6.3 		"/>
	</g>
</g>
</svg>
