<?xml version="1.0" encoding="utf-8"?>
<!-- Generator: Adobe Illustrator 21.0.1, SVG Export Plug-In . SVG Version: 6.00 Build 0)  -->
<svg version="1.1" id="Capa_1" xmlns="http://www.w3.org/2000/svg" xmlns:xlink="http://www.w3.org/1999/xlink" x="0px" y="0px"
	 viewBox="0 0 14 14" style="enable-background:new 0 0 14 14;" xml:space="preserve">
<style type="text/css">
	.st0{fill:#7F7F7F;}
</style>
<path class="st0" d="M14,11.4L11.4,14c0,0-4.1-4.4-4.4-4.4C6.7,9.6,2.6,14,2.6,14L0,11.4c0,0,4.4-4,4.4-4.4C4.4,6.6,0,2.6,0,2.6
	L2.6,0c0,0,4.1,4.4,4.4,4.4c0.3,0,4.4-4.4,4.4-4.4L14,2.6c0,0-4.4,4.1-4.4,4.4C9.6,7.3,14,11.4,14,11.4z"/>
</svg>
