<?xml version="1.0" encoding="utf-8"?>
<!-- Generator: Adobe Illustrator 21.0.1, SVG Export Plug-In . SVG Version: 6.00 Build 0)  -->
<svg version="1.1" id="Capa_1" xmlns="http://www.w3.org/2000/svg" xmlns:xlink="http://www.w3.org/1999/xlink" x="0px" y="0px"
	 viewBox="0 0 82.2 82.2" style="enable-background:new 0 0 82.2 82.2;" xml:space="preserve">
<style type="text/css">
	.st0{fill:none;stroke:#7F7F7F;stroke-miterlimit:10;}
	.st1{fill:#7F7F7F;}
</style>
<g>
	<g>
		<circle class="st0" cx="41.1" cy="41.1" r="40"/>
	</g>
	<g>
		<g>
			<path class="st1" d="M57.8,59.8H16.9c-2.2,0-4-1.8-4-4V33.8c0-2.2,1.8-4,4-4h40.9c2.2,0,4,1.8,4,4v22.1
				C61.8,58,60,59.8,57.8,59.8z M16.9,31.8c-1.1,0-2,0.9-2,2v22.1c0,1.1,0.9,2,2,2h40.9c1.1,0,2-0.9,2-2V33.8c0-1.1-0.9-2-2-2H16.9z
				"/>
		</g>
		<g>
			<path class="st1" d="M64.5,54.1c-0.6,0-1-0.4-1-1v-23c0-1-0.8-1.9-1.9-1.9H22.3c-0.6,0-1-0.4-1-1s0.4-1,1-1h39.3
				c2.1,0,3.9,1.7,3.9,3.9v23C65.5,53.6,65,54.1,64.5,54.1z"/>
		</g>
		<g>
			<path class="st1" d="M68.3,50.3c-0.6,0-1-0.4-1-1v-23c0-1-0.8-1.9-1.9-1.9H26.1c-0.6,0-1-0.4-1-1s0.4-1,1-1h39.3
				c2.1,0,3.9,1.7,3.9,3.9v23C69.3,49.8,68.8,50.3,68.3,50.3z"/>
		</g>
		<path class="st1" d="M54.4,34.1H19.8l-2.3,2.2v16.8l2.1,2l34.6,0l2.3-2.3V36.3L54.4,34.1z M36.7,50.5c-3.2,0-5.9-2.6-5.9-5.9
			s2.6-5.9,5.9-5.9s5.9,2.6,5.9,5.9S39.9,50.5,36.7,50.5z"/>
		<g>
			<path class="st1" d="M38,46.5c0-0.3-0.1-0.6-0.3-0.8c-0.2-0.2-0.6-0.4-1.1-0.6c-0.7-0.2-1.2-0.5-1.5-0.8
				c-0.3-0.3-0.5-0.8-0.5-1.4c0-0.6,0.2-1,0.5-1.3c0.3-0.3,0.8-0.6,1.3-0.6v-1.1h0.8V41c0.6,0.1,1,0.3,1.3,0.7
				c0.3,0.4,0.5,0.9,0.5,1.6h-1c0-0.5-0.1-0.8-0.3-1.1c-0.2-0.3-0.5-0.4-0.9-0.4c-0.4,0-0.7,0.1-0.9,0.3c-0.2,0.2-0.3,0.5-0.3,0.8
				c0,0.3,0.1,0.6,0.3,0.8s0.6,0.4,1.1,0.6c0.7,0.2,1.2,0.5,1.5,0.8c0.3,0.3,0.5,0.8,0.5,1.3c0,0.6-0.2,1-0.5,1.4
				c-0.3,0.3-0.8,0.5-1.4,0.6v1h-0.8v-1c-0.6-0.1-1-0.3-1.4-0.6c-0.4-0.4-0.5-0.9-0.5-1.6l0,0h1c0,0.5,0.1,0.9,0.4,1.1
				c0.3,0.2,0.6,0.3,1,0.3c0.4,0,0.8-0.1,1-0.3C37.9,47.1,38,46.8,38,46.5z"/>
		</g>
	</g>
</g>
</svg>
