<?xml version="1.0" encoding="utf-8"?>
<!-- Generator: Adobe Illustrator 21.0.1, SVG Export Plug-In . SVG Version: 6.00 Build 0)  -->
<svg version="1.1" id="Capa_1" xmlns="http://www.w3.org/2000/svg" xmlns:xlink="http://www.w3.org/1999/xlink" x="0px" y="0px"
	 viewBox="0 0 186 58" style="enable-background:new 0 0 186 58;" xml:space="preserve">
<style type="text/css">
	.st0{fill-rule:evenodd;clip-rule:evenodd;fill:#C00C19;}
	.st1{fill:#C00C19;}
	.st2{fill-rule:evenodd;clip-rule:evenodd;fill:#C00C19;stroke:#222221;stroke-width:0.4278;stroke-miterlimit:22.9256;}
	.st3{fill-rule:evenodd;clip-rule:evenodd;fill:#C00C19;stroke:#222221;stroke-width:0.4279;stroke-miterlimit:22.9256;}
	.st4{fill-rule:evenodd;clip-rule:evenodd;fill:#F9EA37;stroke:#222221;stroke-width:0.4279;stroke-miterlimit:22.9256;}
	.st5{fill:#FFFFFF;stroke:#222221;stroke-width:0.4279;stroke-miterlimit:22.9256;}
	.st6{fill-rule:evenodd;clip-rule:evenodd;fill:#4D88CC;stroke:#222221;stroke-width:0.4279;stroke-miterlimit:22.9256;}
	.st7{fill:#222221;stroke:#222221;stroke-width:0.4279;stroke-miterlimit:22.9256;}
	.st8{fill-rule:evenodd;clip-rule:evenodd;fill:#DA8F22;stroke:#222221;stroke-width:0.4279;stroke-miterlimit:22.9256;}
	.st9{fill-rule:evenodd;clip-rule:evenodd;fill:#D47C1D;stroke:#222221;stroke-width:0.4279;stroke-miterlimit:22.9256;}
	.st10{fill:none;stroke:#222221;stroke-width:0.4279;stroke-miterlimit:3.8637;}
	.st11{fill-rule:evenodd;clip-rule:evenodd;fill:#C00C19;stroke:#222221;stroke-width:1.0911;stroke-miterlimit:22.9256;}
	.st12{fill:none;stroke:#222221;stroke-width:1.0911;stroke-miterlimit:3.8637;}
	.st13{fill-rule:evenodd;clip-rule:evenodd;fill:#D47C1D;stroke:#222221;stroke-width:1.0911;stroke-miterlimit:22.9256;}
	.st14{fill-rule:evenodd;clip-rule:evenodd;fill:#4D88CC;stroke:#222221;stroke-width:0.4245;stroke-miterlimit:22.9256;}
</style>
<g>
	<path class="st0" d="M111.5,20.1L111.5,20.1c0.7,0,1.2,0.5,1.2,1.2v10c0,0.7-0.5,1.2-1.2,1.2l0,0c-0.7,0-1.2-0.5-1.2-1.2v-10
		C110.3,20.7,110.8,20.1,111.5,20.1L111.5,20.1z"/>
	<path class="st1" d="M127.5,20.5c0.7,0.1,1.1,0.5,1,1.2c-0.1,0.7-0.7,1.1-1.4,1c-2.4-0.4-4.6-0.6-6.3-0.3c-1.5,0.3-2.7,1-3.4,2.2
		c-0.4,0.7-0.6,1.1-0.7,1.7c0,0.5-0.1,1.1,0.2,1.6l0.2-0.2c0.2,0.3,0.3,0.8,0.6,1.1c0.4,0.3,0.8,0.6,1.3,0.8
		c2.6,1.3,6.6,1.6,9.7,0.5c0.6-0.2,1.3,0.1,1.6,0.7c0.2,0.6,0,1.1-0.6,1.3c-3.6,1.4-8.3,1-11.5-0.5c-0.6-0.3-1.2-0.7-1.8-1.1
		c-0.5-0.4-1-0.9-1.4-1.4l0,0c-0.7-1-1-2-0.9-3.1c0.1-0.9,0.4-1.9,1-2.8c1.3-1.9,2.9-2.5,5.1-3C122.3,20,124.7,20.1,127.5,20.5
		L127.5,20.5z"/>
	<path class="st0" d="M122.8,25.6h-7.5v1.8h7.5c0.5,0,0.9-0.4,0.9-0.9l0,0C123.8,26,123.3,25.6,122.8,25.6L122.8,25.6z"/>
	<path class="st0" d="M134.2,23.8v7.6c0,0.7-0.5,1.2-1.2,1.2l0,0c-0.7,0-1.1-0.5-1.1-1.2v-6.8c-0.3-2.9,2.6-6.2,5.9-3.1
		c0,0,0.1,0.1,0.1,0.1l0,0l0,0c0,0,0,0.1,0.1,0.1c1.8,2.3,3.1,4.9,4.7,7.3l0,0l0,0l0,0l0,0l0,0c0.1,0.2,0.2,0.3,0.3,0.5
		c1,1.4,2.3,1.4,2.4-0.4c0-1.6,0-5.8-0.1-7.7c0-0.7,0.5-1.2,1.2-1.2l0,0c0.7,0,1,0.5,1,1.2v6.4c0.1,2-0.5,3.6-0.9,4.1
		c-0.7,0.7-1.5,1-2.4,0.9c-0.2,0-0.3,0-0.5-0.1c-1.9-0.4-5.5-6.9-6.1-7.8c-0.3-0.4-0.5-0.7-0.7-1c-0.2-0.3-0.4-0.6-0.6-0.9
		C135,22.3,134.2,23,134.2,23.8L134.2,23.8z M142.6,29.1c0.1,0.2,0.1,0.4,0.2,0.6L142.6,29.1L142.6,29.1z"/>
	<path class="st1" d="M92.4,20.9c-0.3-0.6-1-0.9-1.6-0.6c-0.6,0.3-0.9,1-0.6,1.6c1.2,2.9,3.1,5.8,5.1,8.1c1.3,1.5,2.6,2.7,3.9,2.8
		c1.3,0.2,2.5-0.6,4.1-2.1c1.5-1.3,2.4-2.7,3.3-4.4c0.9-1.6,1.7-3.2,2.3-4.4c0.3-0.6,0-1.3-0.6-1.6c-0.6-0.3-1.3,0-1.6,0.6
		c-0.5,1.2-1.3,2.7-2.2,4.2c-0.7,1.2-3.4,5.5-5.1,5.3C97.2,30.2,93.5,23.6,92.4,20.9L92.4,20.9z"/>
	<path class="st0" d="M87.7,20.1L87.7,20.1c0.7,0,1.2,0.5,1.2,1.2v10c0,0.7-0.5,1.2-1.2,1.2l0,0c-0.7,0-1.2-0.5-1.2-1.2v-10
		C86.5,20.7,87.1,20.1,87.7,20.1L87.7,20.1z"/>
	<path class="st1" d="M36.3,23c-0.6,0.2-1.3-0.1-1.5-0.8c-0.2-0.6,0.2-1.3,0.8-1.5c5.6-1.1,9-0.3,11.8,1c1.1,0.7,2.2,1.6,2.8,2.5
		c0.6,1,0.8,2,0.7,3c-0.2,1.7-1.1,3.2-2.9,4.2c-0.9,0.5-1.8,0.8-2.8,1.1c-0.9,0.2-1.9,0.3-2.8,0.4c-0.9,0.1-1.7,0.1-2.5,0
		c-0.8-0.1-1.6-0.3-2.6-0.8c-0.4-0.2-0.8-0.5-0.9-0.9l0,0.1c0-2.3,0-4.6,0-6.9c0.4-1.2,2.1-0.8,2.1,0l0.2,5.6
		c-0.3,1.1,2.9,0.7,3.6,0.7c0.8-0.1,1.6-0.1,2.4-0.3c0.7-0.2,1.4-0.4,2.1-0.8c1.1-0.6,1.6-1.8,1.7-2.7c0.1-0.6-0.1-1.2-0.4-1.8
		c-0.4-0.6-0.9-1.2-1.7-1.7C44.2,22.4,41.1,21.7,36.3,23L36.3,23z"/>
	<path class="st1" d="M68.7,20.9c-0.3-0.6-1-0.9-1.6-0.6c-0.6,0.3-0.9,1-0.6,1.6c1.2,2.9,3.1,5.8,5.1,8.1c1.3,1.5,2.6,2.7,3.9,2.8
		c1.3,0.2,2.5-0.6,4.1-2.1c1.5-1.3,2.4-2.7,3.3-4.4c0.9-1.6,1.7-3.2,2.3-4.4c0.3-0.6,0-1.3-0.6-1.6c-0.6-0.3-1.3,0-1.6,0.6
		c-0.5,1.2-1.3,2.7-2.2,4.2c-0.7,1.2-3.4,5.5-5.1,5.3C73.5,30.2,69.8,23.6,68.7,20.9L68.7,20.9z"/>
	<path class="st1" d="M67,32.1c0.3,0.6,1,0.9,1.6,0.6c0.6-0.3,0.9-1,0.6-1.6c-1.2-2.9-3.1-5.8-5.1-8.1c-1.3-1.5-2.6-2.7-3.9-2.8
		c-1.3-0.2-2.5,0.6-4.1,2.1c-1.5,1.3-2.4,2.7-3.3,4.4c-0.9,1.6-1.7,3.2-2.3,4.4c-0.3,0.6,0,1.3,0.6,1.6c0.6,0.3,1.3,0,1.6-0.6
		c0.5-1.2,1.3-2.7,2.2-4.2c0.7-1.2,3.4-5.5,5.1-5.3C62.2,22.9,65.9,29.5,67,32.1L67,32.1z"/>
	<path class="st1" d="M150.7,23c-0.6,0.2-1.3-0.1-1.5-0.8c-0.2-0.6,0.2-1.3,0.8-1.5c5.6-1.1,9-0.3,11.8,1c1.1,0.7,2.2,1.6,2.8,2.5
		c0.6,1,0.8,2,0.7,3c-0.2,1.7-1.1,3.2-2.9,4.2c-0.9,0.5-1.8,0.8-2.8,1.1c-0.9,0.2-1.9,0.3-2.8,0.4c-0.9,0.1-1.7,0.1-2.5,0
		c-0.8-0.1-1.6-0.3-2.6-0.8c-0.4-0.2-0.8-0.5-0.9-0.9l0,0.1c0-2.3,0-4.6,0-6.9c0.4-1.2,2.1-0.8,2.1,0l0.2,5.6
		c-0.3,1.1,2.9,0.7,3.6,0.7c0.8-0.1,1.6-0.1,2.4-0.3c0.7-0.2,1.4-0.4,2.1-0.8c1.1-0.6,1.6-1.8,1.7-2.7c0.1-0.6-0.1-1.2-0.4-1.8
		c-0.4-0.6-0.9-1.2-1.7-1.7C158.7,22.4,155.6,21.7,150.7,23L150.7,23z"/>
	<path class="st1" d="M167.2,32.1c-0.3,0.6-1,0.9-1.6,0.6c-0.6-0.3-0.9-1-0.6-1.6c1.2-2.9,3.1-5.8,5.1-8.1c1.3-1.5,2.6-2.7,3.9-2.8
		c1.3-0.2,2.5,0.6,4.1,2.1c1.5,1.3,2.4,2.7,3.3,4.4c0.9,1.6,1.7,3.2,2.3,4.4c0.3,0.6,0,1.3-0.6,1.6c-0.6,0.3-1.3,0-1.6-0.6
		c-0.5-1.2-1.3-2.7-2.2-4.2c-0.7-1.2-3.4-5.5-5.1-5.3C172,22.9,168.4,29.5,167.2,32.1L167.2,32.1z"/>
	<path class="st1" d="M127.8,43l0.3,1.1h1l-1.3-4.2h-1.2l-1.3,4.2h1l0.3-1.1H127.8L127.8,43z M126.7,42.3l0.3-0.9
		c0.1-0.2,0.1-0.6,0.2-0.8h0c0.1,0.2,0.1,0.6,0.2,0.8l0.3,0.9H126.7L126.7,42.3z"/>
	<path class="st1" d="M133.4,44c-0.3-0.1-0.7-0.1-1-0.2v0c0.5-0.2,1-0.9,1-1.9c0-1.1-0.7-2.1-2-2.1c-1.3,0-2.1,0.9-2.1,2.2
		c0,1.4,0.9,2.1,1.8,2.1c0.1,0,0.2,0,0.3,0.1c0.6,0.2,1.1,0.4,1.7,0.6L133.4,44L133.4,44z M131.4,43.4c-0.6,0-1-0.6-1-1.4
		c0-0.8,0.4-1.4,1-1.4c0.6,0,1,0.6,1,1.4C132.4,42.8,132,43.4,131.4,43.4L131.4,43.4L131.4,43.4z"/>
	<path class="st1" d="M134,39.9v2.3c0,1.3,0.6,1.9,1.7,1.9c1.1,0,1.8-0.6,1.8-1.9v-2.4h-0.9v2.4c0,0.7-0.3,1.1-0.8,1.1
		c-0.5,0-0.8-0.4-0.8-1.1v-2.4H134L134,39.9z"/>
	<path class="st1" d="M138.3,39.9v4.2h0.9v-4.2H138.3L138.3,39.9z M138.8,38.8l-0.5,0.8h0.7l0.8-0.8H138.8L138.8,38.8z"/>
	<path class="st1" d="M140.3,44.7c0.3-0.5,0.6-1.1,0.8-1.8l-1,0.1c-0.1,0.6-0.3,1.2-0.5,1.8L140.3,44.7L140.3,44.7z"/>
	<polygon class="st1" points="142.6,44.1 145.2,44.1 145.2,43.3 143.5,43.3 143.5,39.9 142.6,39.9 142.6,44.1 	"/>
	<path class="st1" d="M147.3,44.1c1.2,0,2.1-0.8,2.1-2.2c0-1.2-0.7-2.1-2-2.1c-1.2,0-2,0.9-2,2.2C145.3,43.2,146,44.1,147.3,44.1
		L147.3,44.1L147.3,44.1z M147.3,43.4c-0.6,0-1-0.6-1-1.4c0-0.8,0.4-1.4,1-1.4c0.7,0,1,0.6,1,1.4C148.3,42.8,148,43.4,147.3,43.4
		L147.3,43.4L147.3,43.4z"/>
	<polygon class="st1" points="151.8,44.1 152.7,44.1 152.7,40.7 153.9,40.7 153.9,39.9 150.7,39.9 150.7,40.7 151.8,40.7 
		151.8,44.1 	"/>
	<polygon class="st1" points="154.4,39.9 154.4,44.1 155.3,44.1 155.3,39.9 154.4,39.9 	"/>
	<polygon class="st1" points="158.7,41.5 157.1,41.5 157.1,40.6 158.8,40.6 158.8,39.9 156.2,39.9 156.2,44.1 158.9,44.1 
		158.9,43.3 157.1,43.3 157.1,42.3 158.7,42.3 158.7,41.5 	"/>
	<path class="st1" d="M160.4,44.1v-1.3c0-0.7,0-1.3,0-1.8h0c0.2,0.5,0.5,1,0.7,1.5l0.9,1.6h1v-4.2h-0.9v1.2c0,0.6,0,1.2,0.1,1.8h0
		c-0.2-0.5-0.4-1-0.7-1.4l-0.9-1.5h-1.1v4.2H160.4L160.4,44.1z"/>
	<polygon class="st1" points="166.3,41.5 164.8,41.5 164.8,40.6 166.4,40.6 166.4,39.9 163.8,39.9 163.8,44.1 166.5,44.1 
		166.5,43.3 164.8,43.3 164.8,42.3 166.3,42.3 166.3,41.5 	"/>
	<polygon class="st1" points="169,44.1 169.9,44.1 169.9,40.7 171.1,40.7 171.1,39.9 167.8,39.9 167.8,40.7 169,40.7 169,44.1 	"/>
	<path class="st1" d="M173.2,44.1c1.2,0,2.1-0.8,2.1-2.2c0-1.2-0.7-2.1-2-2.1c-1.2,0-2,0.9-2,2.2C171.2,43.2,171.9,44.1,173.2,44.1
		L173.2,44.1L173.2,44.1z M173.2,43.4c-0.6,0-1-0.6-1-1.4c0-0.8,0.4-1.4,1-1.4c0.7,0,1,0.6,1,1.4C174.2,42.8,173.8,43.4,173.2,43.4
		L173.2,43.4L173.2,43.4z"/>
	<path class="st1" d="M175.9,44c0.2,0,0.6,0.1,1.1,0.1c0.8,0,1.5-0.2,1.9-0.5c0.4-0.3,0.7-0.9,0.7-1.7c0-0.7-0.3-1.3-0.7-1.6
		c-0.4-0.3-0.9-0.4-1.7-0.4c-0.5,0-0.9,0-1.3,0.1V44L175.9,44z M176.8,40.6c0.1,0,0.2,0,0.4,0c0.8,0,1.3,0.4,1.3,1.3
		c0,1-0.6,1.5-1.4,1.5c-0.1,0-0.2,0-0.3,0V40.6L176.8,40.6z"/>
	<path class="st1" d="M182,44.1c1.2,0,2.1-0.8,2.1-2.2c0-1.2-0.7-2.1-2-2.1c-1.2,0-2,0.9-2,2.2C180,43.2,180.7,44.1,182,44.1
		L182,44.1L182,44.1z M182,43.4c-0.6,0-1-0.6-1-1.4c0-0.8,0.4-1.4,1-1.4c0.7,0,1,0.6,1,1.4C183,42.8,182.7,43.4,182,43.4L182,43.4
		L182,43.4z"/>
	<path class="st1" d="M184.9,44.1c0.3,0,0.6-0.2,0.6-0.6c0-0.3-0.2-0.6-0.6-0.6c-0.3,0-0.6,0.2-0.6,0.6
		C184.3,43.9,184.6,44.1,184.9,44.1L184.9,44.1L184.9,44.1z"/>
	<path class="st2" d="M23.7,22.8c-0.1,0.5-0.2,2.9,1.7,5.3c3.6,4.4-1.3,9.1-6.9,7.9c0,0-2.2,0.5-4.7,0.5c-2.5,0-4.7-0.5-4.7-0.5
		c-5.6,1.1-10.6-3.5-7-7.9c2-2.4,1.8-4.8,1.7-5.3H23.7L23.7,22.8z"/>
	<path class="st3" d="M18.1,35.1c0,0,0.3-0.9,1-1.3c0.3-0.2,0.9-0.2,0.6,0.3c-0.1,0.1-0.8,0.6-1.4,1.3
		C18.2,35.4,18.1,35.1,18.1,35.1L18.1,35.1z M10.5,34.5L10.5,34.5c0,0-0.1-0.9-0.7-1.5c-0.3-0.3-0.8-0.3-0.6,0.2
		c0,0.1,0.7,0.8,1.1,1.5C10.3,34.8,10.5,34.5,10.5,34.5L10.5,34.5z M9.5,35.1L9.5,35.1c0,0-0.3-0.9-1-1.3c-0.3-0.2-0.9-0.2-0.6,0.3
		c0.1,0.1,0.8,0.6,1.4,1.3C9.4,35.4,9.5,35.1,9.5,35.1L9.5,35.1z M17.1,34.5L17.1,34.5c0,0,0.1-0.9,0.7-1.5c0.3-0.3,0.8-0.3,0.6,0.2
		c0,0.1-0.7,0.8-1.1,1.5C17.3,34.8,17.1,34.5,17.1,34.5L17.1,34.5z"/>
	<path class="st4" d="M16.4,34.4c0,0,1.7-5.3-0.8-8.5c-0.2,0-0.5-0.2-0.7-0.3c0,0-0.3-0.5-0.9-0.5c-0.7,0-1.2,0.5-1.2,0.5
		c-0.3,0.2-0.6,0.3-0.8,0.3c-2.5,3.2-0.8,8.5-0.8,8.5C13.8,33.4,16.3,34.4,16.4,34.4L16.4,34.4z"/>
	<path class="st5" d="M15.6,30.7c0-0.2,0.2-0.4,0.5-0.4c0.3,0,0.5,0.2,0.5,0.4c0,0.2-0.2,0.4-0.5,0.4C15.8,31.1,15.6,30.9,15.6,30.7
		L15.6,30.7z"/>
	<path class="st6" d="M5,26.3h3.2c0.5,0,0.9,0.4,0.9,0.9v2.2c0,0.5-0.4,0.9-0.9,0.9H5c-0.5,0-0.9-0.4-0.9-0.9v-2.2
		C4.1,26.7,4.5,26.3,5,26.3L5,26.3z"/>
	<path class="st7" d="M5.4,26.8h2.6c0.4,0,0.7,0.3,0.7,0.7v1.6c0,0.4-0.3,0.7-0.7,0.7H5.4c-0.4,0-0.7-0.3-0.7-0.7v-1.6
		C4.7,27.1,5,26.8,5.4,26.8L5.4,26.8z"/>
	<path class="st8" d="M8.6,28.7c-1.2-0.1-1.6-1.5-1.7-1.9h1c0.4,0,0.7,0.3,0.7,0.7V28.7L8.6,28.7z"/>
	<path class="st8" d="M6.3,26.8c-0.1,0.4-0.4,1.8-1.7,1.9v-1.2c0-0.4,0.3-0.7,0.7-0.7H6.3L6.3,26.8z"/>
	<path class="st6" d="M19.4,26.3h3.2c0.5,0,0.9,0.4,0.9,0.9v2.2c0,0.5-0.4,0.9-0.9,0.9h-3.2c-0.5,0-0.9-0.4-0.9-0.9v-2.2
		C18.4,26.7,18.8,26.3,19.4,26.3L19.4,26.3z"/>
	<path class="st7" d="M19.7,26.8h2.6c0.4,0,0.7,0.3,0.7,0.7v1.6c0,0.4-0.3,0.7-0.7,0.7h-2.6c-0.4,0-0.7-0.3-0.7-0.7v-1.6
		C19,27.1,19.3,26.8,19.7,26.8L19.7,26.8z"/>
	<path class="st8" d="M23,28.7c-1.2-0.1-1.6-1.5-1.7-1.9h1c0.4,0,0.7,0.3,0.7,0.7V28.7L23,28.7z"/>
	<path class="st8" d="M20.7,26.8c-0.1,0.4-0.4,1.8-1.7,1.9v-1.2c0-0.4,0.3-0.7,0.7-0.7H20.7L20.7,26.8z"/>
	<path class="st9" d="M10.5,34.1c0,0-0.9,0.1-1.2,0.6c-0.3,0.5,0,1.2,0.4,1.3c1.6,0.4,3.9,0.4,4,0.4c0.1,0,2.4,0.1,4-0.4
		c0.4-0.1,0.8-0.7,0.4-1.3c-0.3-0.5-1.2-0.6-1.2-0.6C16.9,33.6,10.6,33.8,10.5,34.1L10.5,34.1z"/>
	<path class="st10" d="M10.5,34.1c0,0,2.7-0.5,6.5,0"/>
	<path class="st11" d="M20.4,16.6l0-2.6l3.1-0.2l0.1,4.1C21.9,16.8,21.9,17.3,20.4,16.6L20.4,16.6z"/>
	<path class="st12" d="M23.7,22.8c-0.1,0.5-0.2,2.9,1.7,5.3c3.6,4.4-1.3,9.1-6.9,7.9c0,0-2.2,0.5-4.7,0.5c-2.5,0-4.7-0.5-4.7-0.5
		c-5.6,1.1-10.6-3.5-7-7.9c2-2.4,1.8-4.8,1.7-5.3"/>
	<path class="st13" d="M13.7,13.2c-0.3,0-0.8,0.2-0.8,0.2S5.4,16,1.2,20.1C0,21.3,0.5,22.8,2,22.8c1.2,0,11.7,0,11.7,0
		s10.6,0,11.7,0c1.5,0,2-1.5,0.8-2.7c-4.2-4.1-11.7-6.7-11.7-6.7S14,13.2,13.7,13.2L13.7,13.2z"/>
	<path class="st14" d="M15.1,24.9c0.6,0.3,1.2,0.9,1.6,1.4c0.6,0.8,1.7,2.8,1.1,5.4c0,0,0.7,0.7,1.9,1.9c0.7,0.7-0.4,1.8-0.9,2.5
		h-1.4c0,0,0.5-0.6,0.2-1.3c-0.2-0.4-1-0.6-1-0.6s0.4-0.9-0.2-1.1c0,0,1.2-3.1-0.1-5.9c-0.4-0.9-1.1-1.8-2.2-1.9
		c-0.3,0-0.5,0-0.8,0.1c-1,0.3-1.4,1-1.9,1.9c-1.3,2.7,0,5.8,0,5.8c-0.6,0.2-0.2,1.1-0.2,1.1s-0.8,0.1-1,0.6
		c-0.3,0.6,0.2,1.3,0.2,1.3H8.8c-0.3-0.5-1.5-1.8-1.1-2.6c0.5-0.8,2.1-1.8,2.1-1.8c-0.5-2.4,0.4-4.2,1-5.2c0.4-0.7,1.2-1.4,2.1-1.7
		C13.7,24.4,14.2,24.5,15.1,24.9L15.1,24.9z"/>
</g>
</svg>
