<?xml version="1.0" encoding="utf-8"?>
<!-- Generator: Adobe Illustrator 21.0.1, SVG Export Plug-In . SVG Version: 6.00 Build 0)  -->
<svg version="1.1" id="Capa_1" xmlns="http://www.w3.org/2000/svg" xmlns:xlink="http://www.w3.org/1999/xlink" x="0px" y="0px"
	 viewBox="0 0 16.5 15.3" style="enable-background:new 0 0 16.5 15.3;" xml:space="preserve">
<style type="text/css">
	.st0{fill:#979797;}
</style>
<g>
	<g>
		<path class="st0" d="M16.4,7.6v6.1c0,0.9-0.7,1.6-1.6,1.6H1.6c-0.9,0-1.6-0.7-1.6-1.6V7.6L2,8.7v3.5c0,0.7,0.5,1.2,1.2,1.2h10.2
			c0.7,0,1.2-0.5,1.2-1.2V8.6L16.4,7.6z"/>
	</g>
	<g id="collapse_xA0_Trazado_de_recorte_6_">
		<g>
			<path class="st0" d="M12.7,5.5h-1.9c-0.4,0-0.7-0.3-0.7-0.7V0.7C10.1,0.3,9.8,0,9.4,0h-2C7.1,0,6.8,0.3,6.8,0.7v4.2
				c0,0.4-0.3,0.7-0.7,0.7l-2.3,0c-0.6,0-0.9,0.7-0.5,1.1l4.4,4.4c0.3,0.3,0.7,0.3,0.9,0l4.5-4.4C13.5,6.2,13.3,5.5,12.7,5.5z"/>
		</g>
	</g>
</g>
</svg>
