<?xml version="1.0" encoding="utf-8"?>
<!-- Generator: Adobe Illustrator 21.0.1, SVG Export Plug-In . SVG Version: 6.00 Build 0)  -->
<svg version="1.1" id="Capa_1" xmlns="http://www.w3.org/2000/svg" xmlns:xlink="http://www.w3.org/1999/xlink" x="0px" y="0px"
	 viewBox="0 0 74.3 75" style="enable-background:new 0 0 74.3 75;" xml:space="preserve">
<style type="text/css">
	.st0{fill:#959595;}
</style>
<g>
	<path class="st0" d="M74.3,71.3L2.7,0L0,3l11.8,11.5v57.7c0,1.1-0.1,2.8,1,2.8h47.7c1.1,0,2-1.7,2-2.8v-6.3l8.7,8.4L74.3,71.3z
		 M58.5,69c0,0.6,0,1.9-0.5,1.9H16.7c-0.6,0-0.9-1.4-0.9-1.9V18.5L31.2,35h-3.9c-1.8,0-3.2,0.9-3.2,2.7s1.4,2.7,3.2,2.7h10.1
		l21.1,21.5V69z"/>
	<path class="st0" d="M27.6,47c-1.8,0-3.2,1.2-3.2,2.7c0,1.4,1.4,2.7,3.2,2.7h13.1c1.8,0,3.2-1.2,3.2-2.7c0-1.4-1.4-2.7-3.2-2.7
		H27.6z"/>
	<path class="st0" d="M15.9,5.2c0-0.6,0.3-0.9,0.9-0.9H58c0.6,0,0.5,0.4,0.5,0.9v45l4,4.1V2.1c0-1.1-0.8-1.9-2-1.9H12.9
		c-1.1,0-1,0.7-1,1.9v0.1l4,4.9V5.2z"/>
	<path class="st0" d="M46.8,35h-4.2l5.9,5.4c0.9-0.6,1.5-1.4,1.5-2.5C50,36.1,48.6,35,46.8,35z"/>
</g>
</svg>
