<?xml version="1.0" encoding="utf-8"?>
<!-- Generator: Adobe Illustrator 21.1.0, SVG Export Plug-In . SVG Version: 6.00 Build 0)  -->
<svg version="1.1" id="Capa_1" xmlns="http://www.w3.org/2000/svg" xmlns:xlink="http://www.w3.org/1999/xlink" x="0px" y="0px"
	 viewBox="0 0 309.7 232.2" style="enable-background:new 0 0 309.7 232.2;" xml:space="preserve">
<style type="text/css">
	.st0{fill:#E32385;}
	.st1{font-family:'Montserrat-Light';}
	.st2{font-size:16px;}
</style>
<g>
	<text transform="matrix(1 0 0 1 50.8635 155.2715)" class="st0 st1 st2">Software para el trabajo</text>
	<g>
		<path class="st0" d="M67.7,137.2c-2.2,0-3.8-1.7-3.8-3.8V108H37.6v25.4c0,2.2-1.7,3.8-3.9,3.8c-2.2,0-3.8-1.7-3.8-3.8V77.3
			c0-2.1,1.7-3.7,4-3.7c2.1,0,3.7,1.7,3.7,3.7V101h26.3V77.3c0-2.1,1.7-3.7,4-3.7c2.1,0,3.7,1.7,3.7,3.7v56.1
			C71.7,135.5,70,137.2,67.7,137.2z"/>
		<path class="st0" d="M112.8,136.7H86.2c-3.1,0-5.6-2.5-5.6-5.6V79.8c0-3.1,2.5-5.6,5.6-5.6h26.7c1.9,0,3.4,1.5,3.4,3.6
			c0,1.9-1.5,3.4-3.4,3.4H88.3v20.2h23.8c1.9,0,3.4,1.5,3.4,3.6c0,1.9-1.5,3.4-3.4,3.4H88.3v21.6h24.5c1.9,0,3.4,1.5,3.4,3.4
			C116.2,135.2,114.7,136.7,112.8,136.7z"/>
		<path class="st0" d="M152.6,136.7h-21.8c-3.1,0-5.6-2.5-5.6-5.6V77.3c0-2.1,1.7-3.7,4-3.7c2.1,0,3.7,1.7,3.7,3.7v52.4h19.6
			c1.9,0,3.4,1.5,3.4,3.4C156,135.2,154.5,136.7,152.6,136.7z"/>
		<path class="st0" d="M201.2,137.8c-9.3,0-16.6-3.1-21.9-7.8c-0.8-0.7-1.2-1.8-1.2-2.8c0-1.9,1.4-3.9,3.7-3.9
			c0.7,0,1.6,0.2,2.2,0.7c4.3,3.8,10.3,6.8,17.5,6.8c11.2,0,14.7-6,14.7-10.8c0-16.1-37-7.2-37-29.5c0-10.3,9.2-17.3,21.5-17.3
			c8.1,0,15,2.4,20.1,6.7c0.8,0.7,1.3,1.8,1.3,2.8c0,1.9-1.6,3.7-3.7,3.7c-0.7,0-1.6-0.3-2.2-0.8c-4.6-3.7-10.3-5.4-16-5.4
			c-7.5,0-12.8,4-12.8,9.9c0,14.1,37,6,37,29.3C224.3,128.5,218.1,137.8,201.2,137.8z"/>
		<path class="st0" d="M275.3,137.2c-1.6,0-3.1-0.9-3.7-2.5l-4.7-11.9h-31.1l-4.7,11.9c-0.7,1.6-2.2,2.5-3.7,2.5
			c-2.4,0-4.2-2-4.2-4.1c0-0.5,0.1-1,0.3-1.5l21.6-53.8c1-2.5,3.5-4.2,6.4-4.2c2.7,0,5.2,1.7,6.2,4.2l21.7,53.8
			c0.2,0.5,0.3,1,0.3,1.5C279.5,135,277.8,137.2,275.3,137.2z M251.3,82.2L238,115.9h26.5L251.3,82.2z"/>
		<g>
			<path class="st0" d="M166.6,137.3c-2.1,0-3.8-1.7-3.8-3.8V77.9c0-2,1.7-3.7,4-3.7c2,0,3.7,1.7,3.7,3.7v55.6
				C170.5,135.7,168.8,137.3,166.6,137.3z"/>
		</g>
	</g>
</g>
</svg>
