<?xml version="1.0" encoding="utf-8"?>
<!-- Generator: Adobe Illustrator 21.1.0, SVG Export Plug-In . SVG Version: 6.00 Build 0)  -->
<svg version="1.1" id="Capa_1" xmlns="http://www.w3.org/2000/svg" xmlns:xlink="http://www.w3.org/1999/xlink" x="0px" y="0px"
	 viewBox="0 0 327 77" style="enable-background:new 0 0 327 77;" xml:space="preserve">
<style type="text/css">
	.st0{fill:#E32385;}
	.st1{font-family:'Montserrat-Light';}
	.st2{font-size:12.6255px;}
</style>
<g>
	<text transform="matrix(1 0 0 1 81.5947 69.2539)" class="st0 st1 st2">Software para el trabajo</text>
	<g>
		<path class="st0" d="M94.9,55c-1.7,0-3-1.3-3-3v-20H71.1v20c0,1.7-1.3,3-3.1,3c-1.7,0-3-1.3-3-3V7.8c0-1.6,1.3-3,3.2-3
			c1.6,0,3,1.3,3,3v18.7h20.7V7.8c0-1.6,1.3-3,3.2-3c1.6,0,3,1.3,3,3V52C98,53.7,96.7,55,94.9,55z"/>
		<path class="st0" d="M130.5,54.6h-21c-2.4,0-4.4-2-4.4-4.4V9.7c0-2.4,2-4.4,4.4-4.4h21c1.5,0,2.7,1.2,2.7,2.8
			c0,1.5-1.2,2.7-2.7,2.7h-19.3v15.9H130c1.5,0,2.7,1.2,2.7,2.8c0,1.5-1.2,2.7-2.7,2.7h-18.8v17h19.3c1.5,0,2.7,1.2,2.7,2.7
			C133.2,53.4,132,54.6,130.5,54.6z"/>
		<path class="st0" d="M161.9,54.6h-17.2c-2.4,0-4.4-2-4.4-4.4V7.8c0-1.6,1.3-3,3.2-3c1.6,0,3,1.3,3,3v41.3h15.5
			c1.5,0,2.7,1.2,2.7,2.7C164.6,53.4,163.4,54.6,161.9,54.6z"/>
		<path class="st0" d="M200.2,55.5c-7.3,0-13.1-2.4-17.3-6.1c-0.7-0.6-1-1.4-1-2.2c0-1.5,1.1-3.1,2.9-3.1c0.6,0,1.3,0.1,1.8,0.6
			c3.4,3,8.1,5.4,13.8,5.4c8.8,0,11.6-4.7,11.6-8.5c0-12.7-29.2-5.7-29.2-23.3c0-8.1,7.2-13.7,16.9-13.7c6.4,0,11.8,1.9,15.8,5.3
			c0.7,0.6,1,1.4,1,2.2c0,1.5-1.3,3-2.9,3c-0.6,0-1.3-0.2-1.8-0.7c-3.6-3-8.1-4.3-12.6-4.3c-5.9,0-10.1,3.2-10.1,7.8
			c0,11.1,29.2,4.7,29.2,23.2C218.4,48.1,213.6,55.5,200.2,55.5z"/>
		<path class="st0" d="M258.7,55c-1.3,0-2.4-0.7-3-2l-3.7-9.4h-24.6l-3.7,9.4c-0.5,1.3-1.7,2-3,2c-1.9,0-3.3-1.6-3.3-3.3
			c0-0.4,0.1-0.8,0.2-1.2l17-42.5c0.8-2,2.7-3.3,5-3.3c2.1,0,4.1,1.3,4.9,3.3l17.2,42.5c0.1,0.4,0.2,0.8,0.2,1.2
			C262,53.2,260.7,55,258.7,55z M239.7,11.6l-10.5,26.6h20.9L239.7,11.6z"/>
		<g>
			<path class="st0" d="M172.9,55.1c-1.7,0-3-1.3-3-3V8.2c0-1.6,1.3-2.9,3.2-2.9c1.6,0,2.9,1.3,2.9,2.9v43.9
				C176,53.8,174.7,55.1,172.9,55.1z"/>
		</g>
	</g>
</g>
</svg>
