<?xml version="1.0" encoding="utf-8"?>
<!-- Generator: Adobe Illustrator 21.0.1, SVG Export Plug-In . SVG Version: 6.00 Build 0)  -->
<svg version="1.1" id="Capa_1" xmlns="http://www.w3.org/2000/svg" xmlns:xlink="http://www.w3.org/1999/xlink" x="0px" y="0px"
	 viewBox="0 0 13.1 15.2" style="enable-background:new 0 0 13.1 15.2;" xml:space="preserve">
<style type="text/css">
	.st0{fill:#979797;}
</style>
<g>
	<path class="st0" d="M9.4,2.7v2.6c0.9,0.8,1.5,2,1.5,3.3c0,2.4-1.9,4.3-4.3,4.3S2.2,11,2.2,8.7c0-1.3,0.6-2.5,1.5-3.3V2.7
		C1.5,3.8,0,6,0,8.7c0,3.6,2.9,6.6,6.6,6.6s6.6-2.9,6.6-6.6C13.1,6,11.6,3.8,9.4,2.7z"/>
	<path class="st0" d="M6.5,7.5h0.2c0.7,0,1.2-0.6,1.2-1.2v-5C7.9,0.6,7.3,0,6.6,0H6.5C5.8,0,5.2,0.6,5.2,1.2v5
		C5.2,6.9,5.8,7.5,6.5,7.5z"/>
</g>
</svg>
