<?xml version="1.0" encoding="utf-8"?>
<!-- Generator: Adobe Illustrator 21.0.1, SVG Export Plug-In . SVG Version: 6.00 Build 0)  -->
<svg version="1.1" id="Capa_1" xmlns="http://www.w3.org/2000/svg" xmlns:xlink="http://www.w3.org/1999/xlink" x="0px" y="0px"
	 viewBox="0 0 82.2 82.2" style="enable-background:new 0 0 82.2 82.2;" xml:space="preserve">
<style type="text/css">
	.st0{fill:#7F7F7F;}
	.st1{fill:none;stroke:#7F7F7F;stroke-miterlimit:10;}
</style>
<g>
	<g>
		<rect x="16.1" y="32.4" class="st0" width="50" height="7.5"/>
	</g>
	<g>
		<circle class="st0" cx="48.6" cy="52.4" r="2.5"/>
	</g>
	<g>
		<g>
			<circle class="st1" cx="41.1" cy="41.1" r="40"/>
		</g>
		<g>
			<g>
				<path class="st0" d="M61.1,60.9h-40c-3.3,0-6-2.7-6-6v-25c0-3.3,2.7-6,6-6h40c3.3,0,6,2.7,6,6v25C67.1,58.2,64.4,60.9,61.1,60.9
					z M21.1,25.9c-2.2,0-4,1.8-4,4v25c0,2.2,1.8,4,4,4h40c2.2,0,4-1.8,4-4v-25c0-2.2-1.8-4-4-4H21.1z"/>
			</g>
		</g>
		<g>
			<circle class="st0" cx="58.6" cy="52.4" r="2.5"/>
		</g>
	</g>
	<g>
		<circle class="st0" cx="38.6" cy="52.4" r="2.5"/>
	</g>
</g>
</svg>
