<?xml version="1.0" standalone="no"?>
<!DOCTYPE svg PUBLIC "-//W3C//DTD SVG 20010904//EN"
 "http://www.w3.org/TR/2001/REC-SVG-20010904/DTD/svg10.dtd">
<svg version="1.0" xmlns="http://www.w3.org/2000/svg"
 width="191.000000pt" height="191.000000pt" viewBox="0 0 191.000000 191.000000"
 preserveAspectRatio="xMidYMid meet">

<g transform="translate(0.000000,191.000000) scale(0.100000,-0.100000)"
fill="#000000" stroke="none">
<path d="M205 1856 c-60 -28 -97 -66 -124 -126 -20 -44 -21 -62 -21 -778 0
-599 3 -739 14 -766 21 -51 76 -107 131 -132 l50 -24 700 0 700 0 50 24 c60
28 97 66 124 126 20 44 21 62 21 775 l0 730 -24 50 c-28 60 -66 97 -126 124
-44 20 -62 21 -745 21 l-700 0 -50 -24z m886 -352 c255 -75 419 -329 380 -592
-35 -235 -218 -420 -450 -454 -330 -48 -624 233 -598 570 11 137 61 246 157
342 59 59 154 115 229 136 67 18 217 17 282 -2z"/>
<path d="M825 1403 c-77 -28 -136 -66 -189 -122 -233 -250 -89 -662 253 -722
118 -21 251 22 346 112 114 108 161 252 131 398 -30 143 -115 253 -245 314
-83 39 -217 48 -296 20z m165 -192 c5 -11 10 -62 10 -113 l0 -93 95 -95 c55
-55 95 -103 95 -114 0 -24 -28 -56 -49 -56 -9 0 -66 51 -128 112 l-113 113 0
120 c0 81 4 125 12 133 19 19 66 15 78 -7z"/>
</g>
</svg>
