<?xml version="1.0" encoding="utf-8"?>
<!-- Generator: Adobe Illustrator 21.0.1, SVG Export Plug-In . SVG Version: 6.00 Build 0)  -->
<svg version="1.1" id="Capa_1" xmlns="http://www.w3.org/2000/svg" xmlns:xlink="http://www.w3.org/1999/xlink" x="0px" y="0px"
	 viewBox="0 0 17.2 17.2" style="enable-background:new 0 0 17.2 17.2;" xml:space="preserve">
<style type="text/css">
	.st0{fill:#979797;}
</style>
<g>
	<path class="st0" d="M16.4,3.3C15.8,3.1,15.2,3.4,15,4L6.2,4L5.2,1c-0.1-0.5-0.5-0.9-1-0.9c0,0,0,0-0.1,0c0,0,0,0-0.1,0h-3
		C0.5,0.1,0,0.6,0,1.2s0.5,1.1,1.1,1.1h2.2l2.8,8.9C6.3,11.7,6.7,12,7.2,12v0h6.9v0c0.4,0,0.8-0.3,1-0.8l2.1-6.6
		C17.3,4.1,17,3.4,16.4,3.3z"/>
	<circle class="st0" cx="7.2" cy="15.5" r="1.6"/>
	<circle class="st0" cx="13.6" cy="15.5" r="1.6"/>
</g>
</svg>
