<?xml version="1.0" encoding="utf-8"?>
<!-- Generator: Adobe Illustrator 18.0.0, SVG Export Plug-In . SVG Version: 6.00 Build 0)  -->
<!DOCTYPE svg PUBLIC "-//W3C//DTD SVG 1.1//EN" "http://www.w3.org/Graphics/SVG/1.1/DTD/svg11.dtd">
<svg version="1.1" id="Capa_1" xmlns="http://www.w3.org/2000/svg" xmlns:xlink="http://www.w3.org/1999/xlink" x="0px" y="0px"
	 viewBox="0 0 269 93" enable-background="new 0 0 269 93" xml:space="preserve">
<g>
	<g>
		<g>
			<path fill="#548E7A" d="M215.4,71h-1.9l-24.2-54.2l-0.2,0.1V71h-1.9V12.9h2.4l23.7,53.6l0.2,0.4v-54h1.9V71z"/>
			<path fill="#548E7A" d="M223.4,71h-2.2V12.9h2.2V71z"/>
			<path fill="#548E7A" d="M232.5,71h-2.2V12.9h2.2V71z"/>
			<path fill="#548E7A" d="M262,42.4h-22.2V71h-2.2V12.9h27.5V15h-25.3v25.2H262V42.4z"/>
		</g>
	</g>
	<g>
		<path fill="#BF347D" d="M53.3,71c-4.7,0-8.7-1.8-11.9-5.5c-3.2-3.6-4.8-8.2-4.8-13.8v-2.4c0-5.8,1.6-10.5,4.8-14.3
			c3.2-3.7,7.2-5.6,12.1-5.6c4.4,0,8,1.5,10.6,4.4c2.6,2.9,3.9,6.9,3.9,11.9v3.1H38.6v0.5v2.4c0,4.9,1.4,9,4.1,12.3
			c2.8,3.3,6.3,5,10.6,5c2.4,0,4.7-0.4,6.9-1.3c2.2-0.9,4-2.1,5.4-3.5l1.1,1.5c-1.4,1.5-3.2,2.8-5.4,3.8C59,70.5,56.4,71,53.3,71z
			 M53.5,31.5c-4.1,0-7.5,1.4-10.2,4.3c-2.6,2.9-4.1,6.5-4.5,10.9l0.1,0.2H66v-1.2c0-4.1-1.1-7.5-3.4-10.2
			C60.5,32.9,57.4,31.5,53.5,31.5z"/>
		<path fill="#BF347D" d="M77.4,71h-2V12.7h2V71z"/>
		<path fill="#BF347D" d="M90.3,17.8h-2v-5.1h2V17.8z M90.3,71h-2V30.3h2V71z"/>
		<path fill="#BF347D" d="M125.1,60.4c0-2.1-0.9-4-2.7-5.8c-1.8-1.7-5-3.1-9.5-4.1c-4.7-1-8.2-2.3-10.3-3.9
			c-2.1-1.6-3.2-3.9-3.2-7.1c0-2.9,1.2-5.2,3.6-7.2c2.4-1.9,5.7-2.9,9.7-2.9c4.4,0,7.9,1,10.4,3.1c2.5,2.1,3.7,4.8,3.6,8.1l-0.1,0.2
			H125c0-2.6-1.1-4.8-3.3-6.7c-2.2-1.8-5.2-2.7-8.9-2.7c-3.7,0-6.6,0.8-8.5,2.4c-1.9,1.6-2.9,3.5-2.9,5.6c0,2.1,0.8,3.9,2.4,5.3
			c1.6,1.5,4.8,2.8,9.7,3.9c4.4,1,7.8,2.4,10.1,4.2c2.3,1.8,3.4,4.3,3.4,7.5c0,3.1-1.3,5.7-3.8,7.6c-2.6,1.9-5.9,2.9-10.2,2.9
			c-4.6,0-8.3-1-10.9-3.1c-2.6-2.1-3.9-4.6-3.7-7.6l0.1-0.2h1.6c0.2,3.1,1.5,5.4,4.1,6.8c2.5,1.4,5.5,2.1,8.9,2.1
			c3.7,0,6.6-0.9,8.8-2.6C124,64.7,125.1,62.7,125.1,60.4z"/>
		<path fill="#BF347D" d="M160.5,62.8c-1.4,2.4-3.4,4.4-6.2,5.9c-2.7,1.5-6,2.3-9.9,2.3c-3.7,0-6.6-1-8.7-3c-2.1-2-3.2-4.8-3.2-8.2
			c0-3.3,1.6-6.1,4.7-8.4c3.2-2.3,7.1-3.4,11.9-3.4h11.4v-5.8c0-3.3-1.1-5.9-3.2-7.8c-2.1-1.9-5.1-2.8-9-2.8c-3.6,0-6.5,0.9-8.7,2.6
			c-2.2,1.7-3.3,4-3.3,6.7l-1.7-0.1l-0.1-0.2c-0.1-3.1,1.1-5.7,3.6-7.9c2.6-2.2,5.9-3.2,10.1-3.2c4.3,0,7.7,1.1,10.3,3.2
			c2.6,2.2,3.9,5.3,3.9,9.4v20c0,1.4,0.1,2.8,0.2,4.1c0.2,1.3,0.4,2.6,0.8,3.9h-2.2c-0.3-1.7-0.5-3.1-0.6-3.9
			c-0.1-0.9-0.2-1.8-0.2-2.8V62.8z M144.4,69c4,0,7.3-0.9,10-2.6c2.7-1.7,4.8-4.2,6-7.5v-9h-11.3c-4.1,0-7.6,1-10.5,2.9
			c-2.8,1.9-4.3,4.3-4.3,7.1c0,2.7,0.9,4.9,2.7,6.6C139,68.2,141.4,69,144.4,69z"/>
		<g>
			<rect x="3.9" y="12.7" fill="#BF347D" width="1.9" height="58.4"/>
			<rect x="31" y="12.7" fill="#BF347D" width="1.9" height="58.4"/>
			<rect x="4.3" y="46.8" fill="#BF347D" width="28.2" height="2.1"/>
		</g>
	</g>
	<g>
		<line fill="none" stroke="#999999" stroke-miterlimit="10" x1="163.5" y1="71.2" x2="191" y2="0.4"/>
	</g>
	<g>
		<path fill="#999999" d="M34.6,89.1h-0.4V77.2h0.4V89.1z"/>
		<path fill="#999999" d="M38.3,80.2l0.1,1.8c0.3-0.6,0.7-1.1,1.2-1.5c0.5-0.3,1.1-0.5,1.9-0.5c1,0,1.7,0.3,2.2,0.9
			c0.5,0.6,0.7,1.6,0.7,2.9v5.2h-0.4v-5.2c0-1.2-0.2-2.1-0.7-2.6c-0.4-0.5-1-0.8-1.8-0.8c-1,0-1.7,0.3-2.2,0.9
			c-0.5,0.6-0.8,1.3-0.9,2.2v5.5h-0.4v-8.8H38.3z"/>
		<path fill="#999999" d="M47.8,89.1v-8.4h-1.5v-0.4h1.5v-1.5c0-0.8,0.2-1.5,0.6-1.9c0.4-0.5,1-0.7,1.7-0.7c0.2,0,0.4,0,0.5,0
			c0.2,0,0.3,0.1,0.5,0.1l-0.1,0.4c-0.2,0-0.3-0.1-0.5-0.1c-0.1,0-0.3,0-0.5,0c-0.6,0-1,0.2-1.4,0.6c-0.3,0.4-0.5,0.9-0.5,1.6v1.5
			h2.3v0.4h-2.3v8.4H47.8z"/>
		<path fill="#999999" d="M51.7,84.5c0-1.3,0.4-2.4,1.1-3.2c0.7-0.8,1.6-1.2,2.8-1.2c1.1,0,2.1,0.4,2.8,1.2c0.7,0.8,1.1,1.9,1.1,3.2
			v0.3c0,1.3-0.4,2.4-1.1,3.2c-0.7,0.8-1.6,1.2-2.8,1.2c-1.1,0-2.1-0.4-2.8-1.2c-0.7-0.8-1.1-1.9-1.1-3.2V84.5z M52.1,84.8
			c0,1.1,0.3,2.1,0.9,2.8c0.6,0.8,1.5,1.2,2.5,1.2c1,0,1.9-0.4,2.5-1.2c0.6-0.8,0.9-1.7,0.9-2.8v-0.3c0-1.1-0.3-2-0.9-2.8
			c-0.6-0.8-1.5-1.2-2.5-1.2c-1,0-1.9,0.4-2.5,1.2c-0.6,0.8-0.9,1.7-0.9,2.8V84.8z"/>
		<path fill="#999999" d="M65.4,80.5l-0.6,0c-0.8,0-1.4,0.3-1.9,0.8c-0.5,0.5-0.8,1.2-1,2v5.8h-0.4v-8.8h0.4l0.1,1.5v0.3
			c0.2-0.6,0.6-1.1,1.1-1.5c0.5-0.4,1.1-0.5,1.8-0.5c0.1,0,0.2,0,0.3,0c0.1,0,0.2,0,0.3,0.1L65.4,80.5z"/>
		<path fill="#999999" d="M67.4,80.2l0.1,1.8c0.3-0.6,0.7-1.1,1.2-1.5c0.5-0.3,1.1-0.5,1.8-0.5c0.8,0,1.4,0.2,1.9,0.6
			c0.5,0.4,0.8,1,1,1.8c0.2-0.8,0.6-1.3,1.1-1.8c0.5-0.4,1.2-0.6,2-0.6c1,0,1.7,0.3,2.2,1c0.5,0.6,0.8,1.6,0.8,3v5h-0.4V84
			c0-1.3-0.2-2.2-0.7-2.7c-0.5-0.5-1.1-0.8-1.8-0.8c-0.9,0-1.6,0.3-2.1,0.8c-0.5,0.6-0.8,1.3-0.9,2.2c0,0.1,0,0.2,0,0.3
			c0,0.1,0,0.2,0,0.2v5H73V84c0-1.3-0.2-2.2-0.7-2.7c-0.5-0.5-1.1-0.8-1.8-0.8c-0.9,0-1.6,0.3-2.1,0.8c-0.5,0.5-0.8,1.2-0.9,2.1v5.7
			H67v-8.8H67.4z"/>
		<path fill="#999999" d="M87.7,87.4c-0.3,0.5-0.8,1-1.4,1.3c-0.6,0.3-1.3,0.5-2.2,0.5c-0.8,0-1.5-0.2-1.9-0.7
			c-0.5-0.4-0.7-1.1-0.7-1.8c0-0.7,0.4-1.4,1.1-1.9c0.7-0.5,1.6-0.8,2.6-0.8h2.5v-1.3c0-0.7-0.2-1.3-0.7-1.7c-0.5-0.4-1.1-0.6-2-0.6
			c-0.8,0-1.4,0.2-1.9,0.6c-0.5,0.4-0.7,0.9-0.7,1.5l-0.4,0l0,0c0-0.7,0.2-1.3,0.8-1.7C83.3,80.3,84,80,85,80c0.9,0,1.7,0.2,2.3,0.7
			c0.6,0.5,0.9,1.2,0.9,2.1v4.4c0,0.3,0,0.6,0.1,0.9c0,0.3,0.1,0.6,0.2,0.9h-0.5c-0.1-0.4-0.1-0.7-0.1-0.9c0-0.2,0-0.4,0-0.6V87.4z
			 M84.1,88.8c0.9,0,1.6-0.2,2.2-0.6c0.6-0.4,1.1-0.9,1.3-1.7v-2h-2.5c-0.9,0-1.7,0.2-2.3,0.6c-0.6,0.4-0.9,0.9-0.9,1.6
			c0,0.6,0.2,1.1,0.6,1.5C82.9,88.6,83.4,88.8,84.1,88.8z"/>
		<path fill="#999999" d="M93.9,88.8c0.7,0,1.4-0.2,2-0.6c0.6-0.4,0.9-1,0.9-1.8h0.4l0,0c0,0.9-0.3,1.6-1,2.1
			c-0.7,0.5-1.4,0.8-2.3,0.8c-1.1,0-2-0.4-2.7-1.2c-0.6-0.8-1-1.9-1-3.2v-0.3c0-1.3,0.3-2.4,1-3.2c0.6-0.8,1.5-1.2,2.6-1.2
			c0.9,0,1.7,0.3,2.3,0.8c0.6,0.5,0.9,1.3,0.9,2.3l0,0h-0.4c0-0.9-0.3-1.5-0.8-2c-0.6-0.5-1.2-0.7-2-0.7c-1,0-1.8,0.4-2.4,1.1
			c-0.5,0.7-0.8,1.7-0.8,2.9v0.3c0,1.2,0.3,2.1,0.8,2.9C92.1,88.4,92.9,88.8,93.9,88.8z"/>
		<path fill="#999999" d="M100,77.4h-0.4v-1.1h0.4V77.4z M100,89.1h-0.4v-8.8h0.4V89.1z"/>
		<path fill="#999999" d="M102.2,84.5c0-1.3,0.4-2.4,1.1-3.2c0.7-0.8,1.6-1.2,2.8-1.2c1.1,0,2.1,0.4,2.8,1.2
			c0.7,0.8,1.1,1.9,1.1,3.2v0.3c0,1.3-0.4,2.4-1.1,3.2c-0.7,0.8-1.6,1.2-2.8,1.2c-1.1,0-2.1-0.4-2.8-1.2c-0.7-0.8-1.1-1.9-1.1-3.2
			V84.5z M102.6,84.8c0,1.1,0.3,2.1,0.9,2.8c0.6,0.8,1.5,1.2,2.5,1.2c1,0,1.9-0.4,2.5-1.2c0.6-0.8,0.9-1.7,0.9-2.8v-0.3
			c0-1.1-0.3-2-0.9-2.8c-0.6-0.8-1.5-1.2-2.5-1.2c-1,0-1.9,0.4-2.5,1.2c-0.6,0.8-0.9,1.7-0.9,2.8V84.8z M107.6,76.8h0.6l0,0
			l-1.9,2.1h-0.5l0,0L107.6,76.8z"/>
		<path fill="#999999" d="M112.4,80.2l0.1,1.8c0.3-0.6,0.7-1.1,1.2-1.5c0.5-0.3,1.1-0.5,1.9-0.5c1,0,1.7,0.3,2.2,0.9
			c0.5,0.6,0.7,1.6,0.7,2.9v5.2H118v-5.2c0-1.2-0.2-2.1-0.7-2.6c-0.4-0.5-1-0.8-1.8-0.8c-1,0-1.7,0.3-2.2,0.9
			c-0.5,0.6-0.8,1.3-0.9,2.2v5.5H112v-8.8H112.4z"/>
		<path fill="#999999" d="M128.2,88.8c0.7,0,1.4-0.2,2-0.6c0.6-0.4,0.9-1,0.9-1.8h0.4l0,0c0,0.9-0.3,1.6-1,2.1
			c-0.7,0.5-1.4,0.8-2.3,0.8c-1.1,0-2-0.4-2.7-1.2c-0.6-0.8-1-1.9-1-3.2v-0.3c0-1.3,0.3-2.4,1-3.2c0.6-0.8,1.5-1.2,2.6-1.2
			c0.9,0,1.7,0.3,2.3,0.8c0.6,0.5,0.9,1.3,0.9,2.3l0,0h-0.4c0-0.9-0.3-1.5-0.8-2c-0.6-0.5-1.2-0.7-2-0.7c-1,0-1.8,0.4-2.4,1.1
			c-0.5,0.7-0.8,1.7-0.8,2.9v0.3c0,1.2,0.3,2.1,0.8,2.9C126.4,88.4,127.2,88.8,128.2,88.8z"/>
		<path fill="#999999" d="M133,84.5c0-1.3,0.4-2.4,1.1-3.2c0.7-0.8,1.6-1.2,2.8-1.2c1.1,0,2.1,0.4,2.8,1.2c0.7,0.8,1.1,1.9,1.1,3.2
			v0.3c0,1.3-0.4,2.4-1.1,3.2c-0.7,0.8-1.6,1.2-2.8,1.2c-1.1,0-2.1-0.4-2.8-1.2c-0.7-0.8-1.1-1.9-1.1-3.2V84.5z M133.5,84.8
			c0,1.1,0.3,2.1,0.9,2.8c0.6,0.8,1.5,1.2,2.5,1.2c1,0,1.9-0.4,2.5-1.2c0.6-0.8,0.9-1.7,0.9-2.8v-0.3c0-1.1-0.3-2-0.9-2.8
			c-0.6-0.8-1.5-1.2-2.5-1.2c-1,0-1.9,0.4-2.5,1.2c-0.6,0.8-0.9,1.7-0.9,2.8V84.8z"/>
		<path fill="#999999" d="M143.3,80.2l0.1,1.8c0.3-0.6,0.7-1.1,1.2-1.5c0.5-0.3,1.1-0.5,1.9-0.5c1,0,1.7,0.3,2.2,0.9
			c0.5,0.6,0.7,1.6,0.7,2.9v5.2h-0.4v-5.2c0-1.2-0.2-2.1-0.7-2.6c-0.4-0.5-1-0.8-1.8-0.8c-1,0-1.7,0.3-2.2,0.9
			c-0.5,0.6-0.8,1.3-0.9,2.2v5.5h-0.4v-8.8H143.3z"/>
		<path fill="#999999" d="M158.2,87.2l0.4,1.2h0l0.4-1.2l2.7-7h0.5l-3.4,8.8l0,0h-0.4l-3.4-8.8h0.5L158.2,87.2z"/>
		<path fill="#999999" d="M169.5,87.4c-0.3,0.5-0.8,1-1.4,1.3c-0.6,0.3-1.3,0.5-2.2,0.5c-0.8,0-1.5-0.2-1.9-0.7
			c-0.5-0.4-0.7-1.1-0.7-1.8c0-0.7,0.4-1.4,1.1-1.9c0.7-0.5,1.6-0.8,2.6-0.8h2.5v-1.3c0-0.7-0.2-1.3-0.7-1.7c-0.5-0.4-1.1-0.6-2-0.6
			c-0.8,0-1.4,0.2-1.9,0.6c-0.5,0.4-0.7,0.9-0.7,1.5l-0.4,0l0,0c0-0.7,0.2-1.3,0.8-1.7c0.6-0.5,1.3-0.7,2.2-0.7
			c0.9,0,1.7,0.2,2.3,0.7c0.6,0.5,0.9,1.2,0.9,2.1v4.4c0,0.3,0,0.6,0.1,0.9c0,0.3,0.1,0.6,0.2,0.9h-0.5c-0.1-0.4-0.1-0.7-0.1-0.9
			c0-0.2,0-0.4,0-0.6V87.4z M165.9,88.8c0.9,0,1.6-0.2,2.2-0.6c0.6-0.4,1.1-0.9,1.3-1.7v-2H167c-0.9,0-1.7,0.2-2.3,0.6
			c-0.6,0.4-0.9,0.9-0.9,1.6c0,0.6,0.2,1.1,0.6,1.5C164.7,88.6,165.2,88.8,165.9,88.8z"/>
		<path fill="#999999" d="M173.3,89.1h-0.4V76.3h0.4V89.1z"/>
		<path fill="#999999" d="M175.5,84.5c0-1.3,0.4-2.4,1.1-3.2c0.7-0.8,1.6-1.2,2.8-1.2c1.1,0,2.1,0.4,2.8,1.2
			c0.7,0.8,1.1,1.9,1.1,3.2v0.3c0,1.3-0.4,2.4-1.1,3.2c-0.7,0.8-1.6,1.2-2.8,1.2c-1.1,0-2.1-0.4-2.8-1.2c-0.7-0.8-1.1-1.9-1.1-3.2
			V84.5z M176,84.8c0,1.1,0.3,2.1,0.9,2.8c0.6,0.8,1.5,1.2,2.5,1.2c1,0,1.9-0.4,2.5-1.2c0.6-0.8,0.9-1.7,0.9-2.8v-0.3
			c0-1.1-0.3-2-0.9-2.8c-0.6-0.8-1.5-1.2-2.5-1.2c-1,0-1.9,0.4-2.5,1.2c-0.6,0.8-0.9,1.7-0.9,2.8V84.8z"/>
		<path fill="#999999" d="M189.3,80.5l-0.6,0c-0.8,0-1.4,0.3-1.9,0.8c-0.5,0.5-0.8,1.2-1,2v5.8h-0.4v-8.8h0.4l0.1,1.5v0.3
			c0.2-0.6,0.6-1.1,1.1-1.5c0.5-0.4,1.1-0.5,1.8-0.5c0.1,0,0.2,0,0.3,0c0.1,0,0.2,0,0.3,0.1L189.3,80.5z"/>
		<path fill="#999999" d="M194.5,84.6c0-1.4,0.3-2.5,0.9-3.3c0.6-0.8,1.4-1.2,2.5-1.2c0.7,0,1.3,0.2,1.8,0.5
			c0.5,0.3,0.9,0.7,1.2,1.3l0.1-1.6h0.4v8.9c0,1.1-0.3,2-0.9,2.6c-0.6,0.6-1.4,0.9-2.5,0.9c-0.4,0-0.9,0-1.3-0.1
			c-0.5-0.1-0.9-0.2-1.2-0.4l0.1-0.4c0.4,0.2,0.8,0.3,1.2,0.4c0.4,0.1,0.8,0.1,1.3,0.1c1,0,1.7-0.3,2.2-0.8c0.5-0.5,0.7-1.3,0.7-2.3
			v-1.4c-0.3,0.5-0.7,0.8-1.2,1.1c-0.5,0.3-1.1,0.4-1.8,0.4c-1,0-1.9-0.4-2.4-1.2c-0.6-0.8-0.9-1.9-0.9-3.2V84.6z M195,84.8
			c0,1.2,0.2,2.2,0.7,2.9c0.5,0.7,1.2,1.1,2.1,1.1c0.8,0,1.4-0.2,1.9-0.5c0.5-0.3,0.9-0.8,1.1-1.4v-4.2c-0.2-0.6-0.6-1.2-1-1.6
			c-0.5-0.4-1.1-0.6-2-0.6c-0.9,0-1.7,0.4-2.1,1.1c-0.5,0.8-0.7,1.8-0.7,3V84.8z"/>
		<path fill="#999999" d="M204.6,89.1h-0.4V76.3h0.4V89.1z"/>
		<path fill="#999999" d="M206.9,84.5c0-1.3,0.4-2.4,1.1-3.2c0.7-0.8,1.6-1.2,2.8-1.2c1.1,0,2.1,0.4,2.8,1.2
			c0.7,0.8,1.1,1.9,1.1,3.2v0.3c0,1.3-0.4,2.4-1.1,3.2c-0.7,0.8-1.6,1.2-2.8,1.2c-1.1,0-2.1-0.4-2.8-1.2c-0.7-0.8-1.1-1.9-1.1-3.2
			V84.5z M207.3,84.8c0,1.1,0.3,2.1,0.9,2.8c0.6,0.8,1.5,1.2,2.5,1.2c1,0,1.9-0.4,2.5-1.2c0.6-0.8,0.9-1.7,0.9-2.8v-0.3
			c0-1.1-0.3-2-0.9-2.8c-0.6-0.8-1.5-1.2-2.5-1.2c-1,0-1.9,0.4-2.5,1.2c-0.6,0.8-0.9,1.7-0.9,2.8V84.8z"/>
		<path fill="#999999" d="M223.5,84.8c0,1.4-0.3,2.4-0.9,3.2c-0.6,0.8-1.4,1.2-2.4,1.2c-0.7,0-1.3-0.1-1.8-0.4
			c-0.5-0.3-0.9-0.7-1.2-1.1l-0.1,1.4h-0.4V76.3h0.4v5.5c0.3-0.5,0.7-1,1.2-1.3c0.5-0.3,1.1-0.5,1.8-0.5c1,0,1.9,0.4,2.4,1.2
			c0.6,0.8,0.9,1.9,0.9,3.3V84.8z M223,84.6c0-1.2-0.2-2.2-0.7-3c-0.5-0.8-1.2-1.1-2.1-1.1c-0.9,0-1.5,0.2-2,0.6
			c-0.5,0.4-0.8,1-1,1.6v4.1c0.2,0.6,0.6,1,1.1,1.4c0.5,0.3,1.2,0.5,1.9,0.5c0.9,0,1.6-0.4,2.1-1.1c0.5-0.7,0.7-1.7,0.7-2.9V84.6z"
			/>
		<path fill="#999999" d="M231.4,87.4c-0.3,0.5-0.8,1-1.4,1.3c-0.6,0.3-1.3,0.5-2.2,0.5c-0.8,0-1.5-0.2-1.9-0.7
			c-0.5-0.4-0.7-1.1-0.7-1.8c0-0.7,0.4-1.4,1.1-1.9c0.7-0.5,1.6-0.8,2.6-0.8h2.5v-1.3c0-0.7-0.2-1.3-0.7-1.7c-0.5-0.4-1.1-0.6-2-0.6
			c-0.8,0-1.4,0.2-1.9,0.6c-0.5,0.4-0.7,0.9-0.7,1.5l-0.4,0l0,0c0-0.7,0.2-1.3,0.8-1.7c0.6-0.5,1.3-0.7,2.2-0.7
			c0.9,0,1.7,0.2,2.3,0.7c0.6,0.5,0.9,1.2,0.9,2.1v4.4c0,0.3,0,0.6,0.1,0.9c0,0.3,0.1,0.6,0.2,0.9h-0.5c-0.1-0.4-0.1-0.7-0.1-0.9
			c0-0.2,0-0.4,0-0.6V87.4z M227.9,88.8c0.9,0,1.6-0.2,2.2-0.6c0.6-0.4,1.1-0.9,1.3-1.7v-2h-2.5c-0.9,0-1.7,0.2-2.3,0.6
			c-0.6,0.4-0.9,0.9-0.9,1.6c0,0.6,0.2,1.1,0.6,1.5C226.7,88.6,227.2,88.8,227.9,88.8z"/>
		<path fill="#999999" d="M235.3,89.1h-0.4V76.3h0.4V89.1z"/>
	</g>
</g>
</svg>
